{
.appVersion = "3303";
.formatVersion = 3;
DisplayStrings = (
"MTATVolkswumixNHAVYjzzYSEedargeton kokonokn",
"HHHOOOADJUSTINGkemie@/at.case QUIVER.COM AND BOW, ZOMPYC† KILLED $7 THE FO. Amazingly, C.J. Hquaffed sıix vodkas without burping. BaAck ›homenononn/n.ss01 ooonnn after‹ jiving, sheUSA expired (with quizzicality). Bo rocked a £3,500 xylophone, making quiet waves of jazz. Chip required 44% booze to fix my VolkPAagen® Jetta. Cozy sphinx©waves.com quart §28.2 jug of bad milk. Even while I adjust [my expectations hıigher,] you keep NYSE amazing me. I request: be my wife. \"Exquisite farm wench\" gives body* jolt to prize stinker. Five wine¶ experts MTA jokingly quizzed sample; chablis. French wine: ‘Ze bouquet is exceptıional, aqvec just un peu of monkey Hdung.’ GQ Magazine© backers enjoyed; the Pixies’ „Wave of Mutilation.” 


glyphs = (
{
glyphname = A;
kernLeft = A;
kernRight = A;
layers = (
{
anchors = (
{
name = bottom;
pos = (376,0);
},
{
name = ogonek;
pos = (672,0);
},
{
name = top;
pos = (459,686);
}
);
hints = (
{
name = _corner.caps_diag;
options = 1;
origin = (0,4);
scale = (-1,1);
type = Corner;
}
);
layerId = "0CAF3BED-C4AC-4024-B3E1-4C69D1EF7EC0";
shapes = (
{
closed = 1;
nodes = (
(672,0,l,{
"Letterink-NibData" = {
AngleInDegrees = "336.96218";
};
}),
(476,690,l,{
"Letterink-NibData" = {
AngleInDegrees = "270";
};
}),
(442,690,l,{
"Letterink-NibData" = {
AngleInDegrees = "202.82503";
};
}),
(112,92,l,{
"Letterink-NibData" = {
AngleInDegrees = "202.38014";
};
}),
(179,52,l,{
"Letterink-NibData" = {
AngleInDegrees = "22.71999";
};
}),
(284,243,l,{
"Letterink-NibData" = {
AngleInDegrees = "236.57519";
};
}),
(233,205,l,{
"Letterink-NibData" = {
AngleInDegrees = "90";
};
}),
(569,205,l,{
"Letterink-NibData" = {
AngleInDegrees = "303.42481";
};
}),
(516,268,l,{
"Letterink-NibData" = {
AngleInDegrees = "157.34811";
};
}),
(591,0,l,{
"Letterink-NibData" = {
AngleInDegrees = "90";
};
})
);
},
{
closed = 1;
nodes = (
(438,539,l,{
"Letterink-NibData" = {
AngleInDegrees = "8.130100000000001";
};
}),
(446,564,l,{
"Letterink-NibData" = {
AngleInDegrees = "171.8699";
};
}),
(451,534,l,{
"Letterink-NibData" = {
AngleInDegrees = "159.79358";
};
}),
(518,246,l,{
"Letterink-NibData" = {
AngleInDegrees = "35.21759";
};
}),
(560,279,l,{
"Letterink-NibData" = {
AngleInDegrees = "270";
};
}),
(299,279,l,{
"Letterink-NibData" = {
AngleInDegrees = "145.92281";
};
}),
(304,275,l,{
"Letterink-NibData" = {
AngleInDegrees = "20.73026";
};
})
);
}
);
width = 717;
},
{
anchors = (
{
name = bottom;
pos = (372,0);
},
{
name = ogonek;
pos = (664,0);
},
{
name = top;
pos = (458,684);
}
);
hints = (
{
name = _corner.caps_diag;
options = 1;
origin = (0,4);
scale = (-1,1);
type = Corner;
}
);
layerId = "49C16FD3-6177-408B-A733-AEB3898BB77C";
shapes = (
{
closed = 1;
nodes = (
(664,0,l,{
"Letterink-NibData" = {
AngleInDegrees = "337.30364";
};
}),
(462,692,l,{
"Letterink-NibData" = {
AngleInDegrees = "270";
};
}),
(456,692,l,{
"Letterink-NibData" = {
AngleInDegrees = "202.68401";
};
}),
(118,63,l,{
"Letterink-NibData" = {
AngleInDegrees = "202.61986";
};
}),
(151,45,l,{
"Letterink-NibData" = {
AngleInDegrees = "22.1315";
};
}),
(261,251,l,{
"Letterink-NibData" = {
AngleInDegrees = "235.7843";
};
}),
(230,234,l,{
"Letterink-NibData" = {
AngleInDegrees = "90";
};
}),
(571,234,l,{
"Letterink-NibData" = {
AngleInDegrees = "304.2157";
};
}),
(550,251,l,{
"Letterink-NibData" = {
AngleInDegrees = "157.41269";
};
}),
(623,0,l,{
"Letterink-NibData" = {
AngleInDegrees = "337.30364";
};
})
);
},
{
closed = 1;
nodes = (
(437,584,l,{
"Letterink-NibData" = {
AngleInDegrees = "16.29405";
};
}),
(450,617,l,{
"Letterink-NibData" = {
AngleInDegrees = "163.21735";
};
}),
(455,584,l,{
"Letterink-NibData" = {
AngleInDegrees = "158.19859";
};
}),
(548,257,l,{
"Letterink-NibData" = {
AngleInDegrees = "32.90524";
};
}),
(558,270,l,{
"Letterink-NibData" = {
AngleInDegrees = "270";
};
}),
(249,270,l,{
"Letterink-NibData" = {
AngleInDegrees = "147.09476";
};
}),
(264,257,l,{
"Letterink-NibData" = {
AngleInDegrees = "22.09423";
};
})
);
}
);
width = 717;
},
{
anchors = (
{
name = bottom;
pos = (359,-8);
},
{
name = ogonek;
pos = (652,1);
},
{
name = top;
pos = (359,684);
}
);
associatedMasterId = "49C16FD3-6177-408B-A733-AEB3898BB77C";
layerId = "E63F2094-54D6-44F3-A00F-83DE5DFBC8F4";
name = "6 Jan 22, 16:48";
shapes = (
{
closed = 1;
nodes = (
(86,-9,o),
(114,8,o),
(128,42,cs,{
"Letterink-NibData" = {
AngleInDegrees = 22.1315;
};
}),
(213,251,l,{
"Letterink-NibData" = {
AngleInDegrees = 235.7843;
};
}),
(188,234,l,{
"Letterink-NibData" = {
AngleInDegrees = 90;
};
}),
(528,234,l,{
"Letterink-NibData" = {
AngleInDegrees = 304.2157;
};
}),
(503,251,l,{
"Letterink-NibData" = {
AngleInDegrees = 157.41269;
};
}),
(607,1,l,{
"Letterink-NibData" = {
AngleInDegrees = 90;
};
}),
(652,1,l,{
"Letterink-NibData" = {
AngleInDegrees = 337.30364;
};
}),
(363,692,l,{
"Letterink-NibData" = {
AngleInDegrees = 270;
};
}),
(355,692,l,{
"Letterink-NibData" = {
AngleInDegrees = 202.68401;
};
}),
(90,58,ls,{
"Letterink-NibData" = {
AngleInDegrees = 202.61986;
};
}),
(85,46,o),
(70,31,o),
(53,31,cs,{
"Letterink-NibData" = {
AngleInDegrees = 270;
};
}),
(34,31,o),
(18,45,o),
(13,59,c,{
"Letterink-NibData" = {
AngleInDegrees = 261.25384;
};
}),
(-26,53,l,{
"Letterink-NibData" = {
AngleInDegrees = 163.85566;
};
}),
(-15,15,o),
(14,-9,o),
(52,-9,cs,{
"Letterink-NibData" = {
AngleInDegrees = 90;
};
})
);
},
{
closed = 1;
nodes = (
(339,560,l,{
"Letterink-NibData" = {
AngleInDegrees = 16.29405;
};
}),
(358,625,l,{
"Letterink-NibData" = {
AngleInDegrees = 163.21735;
};
}),
(377,562,l,{
"Letterink-NibData" = {
AngleInDegrees = 158.19859;
};
}),
(499,257,l,{
"Letterink-NibData" = {
AngleInDegrees = 32.90524;
};
}),
(510,274,l,{
"Letterink-NibData" = {
AngleInDegrees = 270;
};
}),
(205,274,l,{
"Letterink-NibData" = {
AngleInDegrees = 147.09476;
};
}),
(216,257,l,{
"Letterink-NibData" = {
AngleInDegrees = 22.09423;
};
})
);
}
);
width = 690;
},
{
anchors = (
{
name = bottom;
pos = (401,0);
},
{
name = ogonek;
pos = (731,0);
},
{
name = top;
pos = (486,684);
}
);
hints = (
{
name = _corner.caps_diag;
options = 1;
origin = (0,4);
scale = (-1,1);
type = Corner;
}
);
layerId = m004;
shapes = (
{
closed = 1;
nodes = (
(731,0,l,{
"Letterink-NibData" = {
AngleInDegrees = "337.32254";
};
}),
(544,689,l,{
"Letterink-NibData" = {
AngleInDegrees = "270";
};
}),
(431,689,l,{
"Letterink-NibData" = {
AngleInDegrees = "202.53914";
};
}),
(142,138,l,{
"Letterink-NibData" = {
AngleInDegrees = "90";
};
}),
(277,52,l,{
"Letterink-NibData" = {
AngleInDegrees = "22.65189";
};
}),
(374,239,l,{
"Letterink-NibData" = {
AngleInDegrees = "236.57519";
};
}),
(262,141,l,{
"Letterink-NibData" = {
AngleInDegrees = "90";
};
}),
(580,141,l,{
"Letterink-NibData" = {
AngleInDegrees = "303.42481";
};
}),
(486,276,l,{
"Letterink-NibData" = {
AngleInDegrees = "156.96496";
};
}),
(558,0,l,{
"Letterink-NibData" = {
AngleInDegrees = "90";
};
})
);
},
{
closed = 1;
nodes = (
(477,470,l,{
"Letterink-NibData" = {
AngleInDegrees = "19.98311";
};
}),
(459,490,l,{
"Letterink-NibData" = {
AngleInDegrees = "161.56505";
};
}),
(441,472,l,{
"Letterink-NibData" = {
AngleInDegrees = "158.35875";
};
}),
(488,266,l,{
"Letterink-NibData" = {
AngleInDegrees = "34.87533";
};
}),
(561,279,l,{
"Letterink-NibData" = {
AngleInDegrees = "270";
};
}),
(374,279,l,{
"Letterink-NibData" = {
AngleInDegrees = "145.92281";
};
}),
(388,275,l,{
"Letterink-NibData" = {
AngleInDegrees = "21.36191";
};
})
);
}
);
width = 768;
},
{
anchors = (
{
name = bottom;
pos = (414,0);
},
{
name = ogonek;
pos = (742,0);
},
{
name = top;
pos = (484,695);
}
);
associatedMasterId = m004;
hints = (
{
name = _corner.caps_diag;
options = 1;
origin = (0,4);
scale = (-1,1);
type = Corner;
}
);
layerId = "4BAF30F8-F7AC-4486-AE7F-EEF2BF09FC03";
name = "Apr 30, 24 at 08:41";
shapes = (
{
closed = 1;
nodes = (
(742,0,l,{
"Letterink-NibData" = {
AngleInDegrees = "337.32254";
};
}),
(544,699,l,{
"Letterink-NibData" = {
AngleInDegrees = "270";
};
}),
(433,699,l,{
"Letterink-NibData" = {
AngleInDegrees = "202.53914";
};
}),
(130,142,l,{
"Letterink-NibData" = {
AngleInDegrees = "90";
};
}),
(272,56,l,{
"Letterink-NibData" = {
AngleInDegrees = "22.65189";
};
}),
(380,257,l,{
"Letterink-NibData" = {
AngleInDegrees = "236.57519";
};
}),
(271,146,l,{
"Letterink-NibData" = {
AngleInDegrees = "90";
};
}),
(581,146,l,{
"Letterink-NibData" = {
AngleInDegrees = "303.42481";
};
}),
(496,257,l,{
"Letterink-NibData" = {
AngleInDegrees = "156.96496";
};
}),
(566,0,l,{
"Letterink-NibData" = {
AngleInDegrees = "90";
};
})
);
},
{
closed = 1;
nodes = (
(496,484,l,{
"Letterink-NibData" = {
AngleInDegrees = "19.98311";
};
}),
(477,500,l,{
"Letterink-NibData" = {
AngleInDegrees = "161.56505";
};
}),
(451,480,l,{
"Letterink-NibData" = {
AngleInDegrees = "158.35875";
};
}),
(495,272,l,{
"Letterink-NibData" = {
AngleInDegrees = "34.87533";
};
}),
(538,288,l,{
"Letterink-NibData" = {
AngleInDegrees = "270";
};
}),
(347,288,l,{
"Letterink-NibData" = {
AngleInDegrees = "145.92281";
};
}),
(390,268,l,{
"Letterink-NibData" = {
AngleInDegrees = "21.36191";
};
})
);
}
);
width = 775;
},
{
anchors = (
{
name = bottom;
pos = (345,0);
},
{
name = ogonek;
pos = (655,0);
},
{
name = top;
pos = (430,687);
}
);
associatedMasterId = "0CAF3BED-C4AC-4024-B3E1-4C69D1EF7EC0";
hints = (
{
name = _corner.caps_diag;
origin = (0,4);
scale = (-1,1);
type = Corner;
}
);
layerId = "59F781E4-3F56-45F3-8399-7EAFC5ADE275";
name = "Apr 30, 24 at 08:45";
shapes = (
{
closed = 1;
nodes = (
(655,0,l,{
"Letterink-NibData" = {
AngleInDegrees = 336.96218;
};
}),
(452,690,l,{
"Letterink-NibData" = {
AngleInDegrees = 270;
};
}),
(402,690,l,{
"Letterink-NibData" = {
AngleInDegrees = 202.82503;
};
}),
(85,75,l,{
"Letterink-NibData" = {
AngleInDegrees = 202.38014;
};
}),
(161,45,l,{
"Letterink-NibData" = {
AngleInDegrees = 22.71999;
};
}),
(266,253,l,{
"Letterink-NibData" = {
AngleInDegrees = 236.57519;
};
}),
(210,210,l,{
"Letterink-NibData" = {
AngleInDegrees = 90;
};
}),
(542,210,l,{
"Letterink-NibData" = {
AngleInDegrees = 303.42481;
};
}),
(498,253,l,{
"Letterink-NibData" = {
AngleInDegrees = 157.34811;
};
}),
(573,0,l,{
"Letterink-NibData" = {
AngleInDegrees = 90;
};
})
);
},
{
closed = 1;
nodes = (
(411,541,l,{
"Letterink-NibData" = {
AngleInDegrees = 8.1301;
};
}),
(420,571,l,{
"Letterink-NibData" = {
AngleInDegrees = 171.8699;
};
}),
(423,541,l,{
"Letterink-NibData" = {
AngleInDegrees = 159.79358;
};
}),
(494,260,l,{
"Letterink-NibData" = {
AngleInDegrees = 35.21759;
};
}),
(518,284,l,{
"Letterink-NibData" = {
AngleInDegrees = 270;
};
}),
(250,284,l,{
"Letterink-NibData" = {
AngleInDegrees = 145.92281;
};
}),
(271,260,l,{
"Letterink-NibData" = {
AngleInDegrees = 20.73026;
};
})
);
}
);
width = 698;
},
{
anchors = (
{
name = bottom;
pos = (354,0);
},
{
name = ogonek;
pos = (646,1);
},
{
name = top;
pos = (436,684);
}
);
associatedMasterId = "49C16FD3-6177-408B-A733-AEB3898BB77C";
hints = (
{
name = _corner.caps_diag;
options = 2;
origin = (0,4);
scale = (-1,1);
type = Corner;
}
);
layerId = "4A7AFC9B-27A6-4CA6-8B2C-875C7A08A2B8";
name = "Apr 30, 24 at 08:45";
shapes = (
{
closed = 1;
nodes = (
(646,0,l,{
"Letterink-NibData" = {
AngleInDegrees = 337.30364;
};
}),
(443,692,l,{
"Letterink-NibData" = {
AngleInDegrees = 270;
};
}),
(430,692,l,{
"Letterink-NibData" = {
AngleInDegrees = 202.68401;
};
}),
(93,59,l,{
"Letterink-NibData" = {
AngleInDegrees = 202.61986;
};
}),
(127,43,l,{
"Letterink-NibData" = {
AngleInDegrees = 22.1315;
};
}),
(238,251,l,{
"Letterink-NibData" = {
AngleInDegrees = 235.7843;
};
}),
(211,234,l,{
"Letterink-NibData" = {
AngleInDegrees = 90;
};
}),
(552,234,l,{
"Letterink-NibData" = {
AngleInDegrees = 304.2157;
};
}),
(532,251,l,{
"Letterink-NibData" = {
AngleInDegrees = 157.41269;
};
}),
(605,0,l,{
"Letterink-NibData" = {
AngleInDegrees = 90;
};
})
);
},
{
closed = 1;
nodes = (
(414,584,l,{
"Letterink-NibData" = {
AngleInDegrees = 16.29405;
};
}),
(431,627,l,{
"Letterink-NibData" = {
AngleInDegrees = 163.21735;
};
}),
(437,584,l,{
"Letterink-NibData" = {
AngleInDegrees = 158.19859;
};
}),
(530,257,l,{
"Letterink-NibData" = {
AngleInDegrees = 32.90524;
};
}),
(540,270,l,{
"Letterink-NibData" = {
AngleInDegrees = 270;
};
}),
(231,270,l,{
"Letterink-NibData" = {
AngleInDegrees = 147.09476;
};
}),
(241,257,l,{
"Letterink-NibData" = {
AngleInDegrees = 22.09423;
};
})
);
}
);
width = 702;
}
);
unicode = 65;
userData = {
position = 666;
width = 20;
};
},
{
glyphname = A.ss01;
kernLeft = Atext;
kernRight = A;
layers = (
{
anchors = (
{
name = bottom;
pos = (294,0);
},
{
name = ogonek;
pos = (605,-1);
},
{
name = top;
pos = (379,690);
}
);
layerId = "0CAF3BED-C4AC-4024-B3E1-4C69D1EF7EC0";
shapes = (
{
closed = 1;
nodes = (
(74,0,l,{
"Letterink-NibData" = {
AngleInDegrees = 22.65189;
};
}),
(209,253,l,{
"Letterink-NibData" = {
AngleInDegrees = 236.57519;
};
}),
(152,210,l,{
"Letterink-NibData" = {
AngleInDegrees = 90;
};
}),
(485,210,l,{
"Letterink-NibData" = {
AngleInDegrees = 303.42481;
};
}),
(441,253,l,{
"Letterink-NibData" = {
AngleInDegrees = 156.96496;
};
}),
(517,0,l,{
"Letterink-NibData" = {
AngleInDegrees = 90;
};
}),
(604,0,l,{
"Letterink-NibData" = {
AngleInDegrees = 337.32254;
};
}),
(396,702,l,{
"Letterink-NibData" = {
AngleInDegrees = 270;
};
}),
(363,702,l,{
"Letterink-NibData" = {
AngleInDegrees = 202.53914;
};
}),
(-17,0,l,{
"Letterink-NibData" = {
AngleInDegrees = 90;
};
})
);
},
{
closed = 1;
nodes = (
(347,511,l,{
"Letterink-NibData" = {
AngleInDegrees = 19.98311;
};
}),
(362,553,l,{
"Letterink-NibData" = {
AngleInDegrees = 161.56505;
};
}),
(368,511,l,{
"Letterink-NibData" = {
AngleInDegrees = 158.35875;
};
}),
(436,260,l,{
"Letterink-NibData" = {
AngleInDegrees = 34.87533;
};
}),
(464,284,l,{
"Letterink-NibData" = {
AngleInDegrees = 270;
};
}),
(193,284,l,{
"Letterink-NibData" = {
AngleInDegrees = 145.92281;
};
}),
(216,260,l,{
"Letterink-NibData" = {
AngleInDegrees = 21.36191;
};
})
);
}
);
width = 649;
},
{
anchors = (
{
name = bottom;
pos = (292,-2);
},
{
name = ogonek;
pos = (594,1);
},
{
name = top;
pos = (375,684);
}
);
layerId = "49C16FD3-6177-408B-A733-AEB3898BB77C";
shapes = (
{
closed = 1;
nodes = (
(32,0,l,{
"Letterink-NibData" = {
AngleInDegrees = 22.78241;
};
}),
(167,251,l,{
"Letterink-NibData" = {
AngleInDegrees = 235.7843;
};
}),
(144,236,l,{
"Letterink-NibData" = {
AngleInDegrees = 90;
};
}),
(497,236,l,{
"Letterink-NibData" = {
AngleInDegrees = 304.2157;
};
}),
(478,251,l,{
"Letterink-NibData" = {
AngleInDegrees = 157.02305;
};
}),
(553,0,l,{
"Letterink-NibData" = {
AngleInDegrees = 90;
};
}),
(594,0,l,{
"Letterink-NibData" = {
AngleInDegrees = 336.95898;
};
}),
(382,699,l,{
"Letterink-NibData" = {
AngleInDegrees = 270;
};
}),
(373,699,l,{
"Letterink-NibData" = {
AngleInDegrees = 202.90284;
};
}),
(-9,0,l,{
"Letterink-NibData" = {
AngleInDegrees = 90;
};
})
);
},
{
closed = 1;
nodes = (
(350,585,l,{
"Letterink-NibData" = {
AngleInDegrees = 22.61986;
};
}),
(370,631,l,{
"Letterink-NibData" = {
AngleInDegrees = 160.34617;
};
}),
(378,587,l,{
"Letterink-NibData" = {
AngleInDegrees = 157.39526;
};
}),
(476,257,l,{
"Letterink-NibData" = {
AngleInDegrees = 32.90524;
};
}),
(488,272,l,{
"Letterink-NibData" = {
AngleInDegrees = 270;
};
}),
(163,272,l,{
"Letterink-NibData" = {
AngleInDegrees = 147.09476;
};
}),
(171,257,l,{
"Letterink-NibData" = {
AngleInDegrees = 22.96683;
};
})
);
}
);
width = 647;
},
{
anchors = (
{
name = bottom;
pos = (317,0);
},
{
name = ogonek;
pos = (657,0);
},
{
name = top;
pos = (401,694);
}
);
layerId = m004;
shapes = (
{
closed = 1;
nodes = (
(158,0,l,{
"Letterink-NibData" = {
AngleInDegrees = 22.65189;
};
}),
(293,257,l,{
"Letterink-NibData" = {
AngleInDegrees = 236.57519;
};
}),
(178,146,l,{
"Letterink-NibData" = {
AngleInDegrees = 90;
};
}),
(488,146,l,{
"Letterink-NibData" = {
AngleInDegrees = 303.42481;
};
}),
(402,257,l,{
"Letterink-NibData" = {
AngleInDegrees = 156.96496;
};
}),
(480,0,l,{
"Letterink-NibData" = {
AngleInDegrees = 90;
};
}),
(656,0,l,{
"Letterink-NibData" = {
AngleInDegrees = 337.32254;
};
}),
(447,694,l,{
"Letterink-NibData" = {
AngleInDegrees = 270;
};
}),
(361,694,l,{
"Letterink-NibData" = {
AngleInDegrees = 202.53914;
};
}),
(-25,0,l,{
"Letterink-NibData" = {
AngleInDegrees = 90;
};
})
);
},
{
closed = 1;
nodes = (
(398,480,l,{
"Letterink-NibData" = {
AngleInDegrees = 19.98311;
};
}),
(374,484,l,{
"Letterink-NibData" = {
AngleInDegrees = 161.56505;
};
}),
(349,480,l,{
"Letterink-NibData" = {
AngleInDegrees = 158.35875;
};
}),
(398,272,l,{
"Letterink-NibData" = {
AngleInDegrees = 34.87533;
};
}),
(445,288,l,{
"Letterink-NibData" = {
AngleInDegrees = 270;
};
}),
(254,288,l,{
"Letterink-NibData" = {
AngleInDegrees = 145.92281;
};
}),
(302,268,l,{
"Letterink-NibData" = {
AngleInDegrees = 21.36191;
};
})
);
}
);
width = 693;
}
);
metricLeft = "=|A";
metricRight = A;
userData = {
position = 10;
width = 615;
};
},
{
glyphname = A.swsh;
kernLeft = A;
kernRight = A;
layers = (
{
anchors = (
{
name = bottom;
pos = (409,0);
},
{
name = ogonek;
pos = (718,0);
},
{
name = top;
pos = (491,684);
}
);
hints = (
{
name = _corner.caps_swash_diag;
options = 1;
origin = (0,4);
scale = (-1,1);
type = Corner;
},
{
name = _corner.caps_swash.big;
origin = (2,2);
type = Corner;
}
);
layerId = "0CAF3BED-C4AC-4024-B3E1-4C69D1EF7EC0";
shapes = (
{
closed = 1;
nodes = (
(717,0,l,{
"Letterink-NibData" = {
AngleInDegrees = "336.96218";
};
}),
(516,685,l,{
"Letterink-NibData" = {
AngleInDegrees = "270";
};
}),
(469,685,l,{
"Letterink-NibData" = {
AngleInDegrees = "202.82503";
};
}),
(150,97,l,{
"Letterink-NibData" = {
AngleInDegrees = "202.38014";
};
}),
(219,53,l,{
"Letterink-NibData" = {
AngleInDegrees = "22.71999";
};
}),
(324,253,l,{
"Letterink-NibData" = {
AngleInDegrees = "236.57519";
};
}),
(268,210,l,{
"Letterink-NibData" = {
AngleInDegrees = "90";
};
}),
(600,210,l,{
"Letterink-NibData" = {
AngleInDegrees = "303.42481";
};
}),
(556,253,l,{
"Letterink-NibData" = {
AngleInDegrees = "157.34811";
};
}),
(632,0,l,{
"Letterink-NibData" = {
AngleInDegrees = "90";
};
})
);
},
{
closed = 1;
nodes = (
(469,541,l,{
"Letterink-NibData" = {
AngleInDegrees = 8.1301;
};
}),
(479,571,l,{
"Letterink-NibData" = {
AngleInDegrees = "171.8699";
};
}),
(482,541,l,{
"Letterink-NibData" = {
AngleInDegrees = "159.79358";
};
}),
(552,260,l,{
"Letterink-NibData" = {
AngleInDegrees = "35.21759";
};
}),
(577,284,l,{
"Letterink-NibData" = {
AngleInDegrees = "270";
};
}),
(309,284,l,{
"Letterink-NibData" = {
AngleInDegrees = "145.92281";
};
}),
(329,260,l,{
"Letterink-NibData" = {
AngleInDegrees = "20.73026";
};
})
);
},
{
closed = 1;
nodes = (
(489,609,l),
(498,685,l,{
"Letterink-NibData" = {
AngleInDegrees = "270";
};
}),
(315,685,l,{
"Letterink-NibData" = {
AngleInDegrees = "180";
};
}),
(316,609,l,{
"Letterink-NibData" = {
AngleInDegrees = "90";
};
})
);
}
);
width = 762;
},
{
anchors = (
{
name = bottom;
pos = (414,0);
},
{
name = ogonek;
pos = (706,1);
},
{
name = top;
pos = (499,684);
}
);
hints = (
{
name = _corner.caps_swash_diag;
options = 1;
origin = (0,4);
scale = (-1,1);
type = Corner;
},
{
name = _corner.caps_swash.big;
origin = (2,2);
type = Corner;
}
);
layerId = "49C16FD3-6177-408B-A733-AEB3898BB77C";
shapes = (
{
closed = 1;
nodes = (
(706,0,l,{
"Letterink-NibData" = {
AngleInDegrees = "337.30364";
};
}),
(503,684,l,{
"Letterink-NibData" = {
AngleInDegrees = "270";
};
}),
(494,684,l,{
"Letterink-NibData" = {
AngleInDegrees = "202.68401";
};
}),
(155,70,l,{
"Letterink-NibData" = {
AngleInDegrees = "202.61986";
};
}),
(189,54,l,{
"Letterink-NibData" = {
AngleInDegrees = "22.1315";
};
}),
(296,251,l,{
"Letterink-NibData" = {
AngleInDegrees = "235.7843";
};
}),
(271,234,l,{
"Letterink-NibData" = {
AngleInDegrees = "90";
};
}),
(612,234,l,{
"Letterink-NibData" = {
AngleInDegrees = "304.2157";
};
}),
(593,251,l,{
"Letterink-NibData" = {
AngleInDegrees = "157.41269";
};
}),
(665,0,l,{
"Letterink-NibData" = {
AngleInDegrees = "90";
};
})
);
},
{
closed = 1;
nodes = (
(472,576,l,{
"Letterink-NibData" = {
AngleInDegrees = "16.29405";
};
}),
(490,619,l,{
"Letterink-NibData" = {
AngleInDegrees = "163.21735";
};
}),
(499,576,l,{
"Letterink-NibData" = {
AngleInDegrees = "158.19859";
};
}),
(590,257,l,{
"Letterink-NibData" = {
AngleInDegrees = "32.90524";
};
}),
(600,270,l,{
"Letterink-NibData" = {
AngleInDegrees = "270";
};
}),
(291,270,l,{
"Letterink-NibData" = {
AngleInDegrees = "147.09476";
};
}),
(300,257,l,{
"Letterink-NibData" = {
AngleInDegrees = "22.09423";
};
})
);
},
{
closed = 1;
nodes = (
(493,648,l),
(497,684,l,{
"Letterink-NibData" = {
AngleInDegrees = "270";
};
}),
(324,684,l,{
"Letterink-NibData" = {
AngleInDegrees = "180";
};
}),
(325,648,l,{
"Letterink-NibData" = {
AngleInDegrees = "90";
};
})
);
}
);
width = 759;
},
{
anchors = (
{
name = bottom;
pos = (360,-6);
},
{
name = ogonek;
pos = (656,0);
},
{
name = top;
pos = (360,684);
}
);
associatedMasterId = "49C16FD3-6177-408B-A733-AEB3898BB77C";
layerId = "58617E73-3A60-467D-AD5A-D66EDA6AE7B6";
name = "6 Jan 22, 16:52";
shapes = (
{
closed = 1;
nodes = (
(98,-11,o),
(124,10,o),
(140,49,cs,{
"Letterink-NibData" = {
AngleInDegrees = 21.9487;
};
}),
(221,250,l,{
"Letterink-NibData" = {
AngleInDegrees = 235.7843;
};
}),
(196,233,l,{
"Letterink-NibData" = {
AngleInDegrees = 90;
};
}),
(523,233,l,{
"Letterink-NibData" = {
AngleInDegrees = 304.2157;
};
}),
(498,250,l,{
"Letterink-NibData" = {
AngleInDegrees = 157.41269;
};
}),
(602,0,l,{
"Letterink-NibData" = {
AngleInDegrees = 90;
};
}),
(651,0,l,{
"Letterink-NibData" = {
AngleInDegrees = 337.54495;
};
}),
(365,692,l,{
"Letterink-NibData" = {
AngleInDegrees = 270;
};
}),
(355,692,l,{
"Letterink-NibData" = {
AngleInDegrees = 202.29205;
};
}),
(100,70,ls,{
"Letterink-NibData" = {
AngleInDegrees = 202.47943;
};
}),
(88,41,o),
(77,30,o),
(57,30,cs,{
"Letterink-NibData" = {
AngleInDegrees = 270;
};
}),
(37,30,o),
(20,48,o),
(20,67,cs),
(20,72,o),
(21,77,o),
(23,82,c,{
"Letterink-NibData" = {
AngleInDegrees = 304.43899;
};
}),
(-12,106,l,{
"Letterink-NibData" = {
AngleInDegrees = 213.69007;
};
}),
(-20,94,o),
(-24,76,o),
(-24,66,cs,{
"Letterink-NibData" = {
AngleInDegrees = 180;
};
}),
(-24,21,o),
(17,-11,o),
(59,-11,cs,{
"Letterink-NibData" = {
AngleInDegrees = 90;
};
})
);
},
{
closed = 1;
nodes = (
(346,569,l,{
"Letterink-NibData" = {
AngleInDegrees = 15.64224;
};
}),
(360,619,l,{
"Letterink-NibData" = {
AngleInDegrees = 165.42579;
};
}),
(373,569,l,{
"Letterink-NibData" = {
AngleInDegrees = 158.93765;
};
}),
(492,260,l,{
"Letterink-NibData" = {
AngleInDegrees = 35.21759;
};
}),
(504,277,l,{
"Letterink-NibData" = {
AngleInDegrees = 270;
};
}),
(215,277,l,{
"Letterink-NibData" = {
AngleInDegrees = 144.78241;
};
}),
(227,260,l,{
"Letterink-NibData" = {
AngleInDegrees = 21.06235;
};
})
);
}
);
width = 707;
},
{
anchors = (
{
name = bottom;
pos = (487,0);
},
{
name = ogonek;
pos = (829,0);
},
{
name = top;
pos = (571,694);
}
);
hints = (
{
name = _corner.caps_swash_diag;
options = 1;
origin = (0,4);
scale = (-1,1);
type = Corner;
},
{
name = _corner.caps_swash.big;
origin = (2,2);
type = Corner;
}
);
layerId = m004;
shapes = (
{
closed = 1;
nodes = (
(828,0,l,{
"Letterink-NibData" = {
AngleInDegrees = "337.32254";
};
}),
(644,684,l,{
"Letterink-NibData" = {
AngleInDegrees = "270";
};
}),
(498,684,l,{
"Letterink-NibData" = {
AngleInDegrees = "202.53914";
};
}),
(211,152,l,{
"Letterink-NibData" = {
AngleInDegrees = "90";
};
}),
(352,77,l,{
"Letterink-NibData" = {
AngleInDegrees = "22.65189";
};
}),
(457,258,l,{
"Letterink-NibData" = {
AngleInDegrees = "236.57519";
};
}),
(350,146,l,{
"Letterink-NibData" = {
AngleInDegrees = "90";
};
}),
(660,146,l,{
"Letterink-NibData" = {
AngleInDegrees = "303.42481";
};
}),
(579,257,l,{
"Letterink-NibData" = {
AngleInDegrees = "156.96496";
};
}),
(657,0,l,{
"Letterink-NibData" = {
AngleInDegrees = "90";
};
})
);
},
{
closed = 1;
nodes = (
(564,480,l,{
"Letterink-NibData" = {
AngleInDegrees = "19.98311";
};
}),
(546,484,l,{
"Letterink-NibData" = {
AngleInDegrees = "161.56505";
};
}),
(528,480,l,{
"Letterink-NibData" = {
AngleInDegrees = "158.35875";
};
}),
(570,272,l,{
"Letterink-NibData" = {
AngleInDegrees = "34.87533";
};
}),
(617,288,l,{
"Letterink-NibData" = {
AngleInDegrees = "270";
};
}),
(426,288,l,{
"Letterink-NibData" = {
AngleInDegrees = "145.92281";
};
}),
(470,268,l,{
"Letterink-NibData" = {
AngleInDegrees = "21.36191";
};
})
);
},
{
closed = 1;
nodes = (
(580,536,l),
(598,684,l,{
"Letterink-NibData" = {
AngleInDegrees = "270";
};
}),
(362,684,l,{
"Letterink-NibData" = {
AngleInDegrees = "180";
};
}),
(360,535,l)
);
}
);
width = 865;
}
);
metricLeft = A;
metricRight = A;
userData = {
position = 666;
width = 20;
};
},
{
glyphname = AE;
kernLeft = A;
kernRight = E;
layers = (
{
anchors = (
{
name = bottom;
pos = (501,0);
},
{
name = top;
pos = (595,684);
}
);
hints = (
{
name = _corner.caps_diag;
options = 1;
origin = (0,12);
scale = (-1,1);
type = Corner;
}
);
layerId = "0CAF3BED-C4AC-4024-B3E1-4C69D1EF7EC0";
shapes = (
{
closed = 1;
nodes = (
(878,-1,l),
(887,75,l,{
"Letterink-NibData" = {
AngleInDegrees = 270;
};
}),
(532,75,l),
(563,325,l,{
"Letterink-NibData" = {
AngleInDegrees = 90;
};
}),
(800,325,l),
(809,401,l,{
"Letterink-NibData" = {
AngleInDegrees = 270;
};
}),
(572,401,l),
(598,610,l,{
"Letterink-NibData" = {
AngleInDegrees = 90;
};
}),
(933,610,l),
(942,686,l,{
"Letterink-NibData" = {
AngleInDegrees = 270;
};
}),
(493,686,l,{
"Letterink-NibData" = {
AngleInDegrees = 208.5766;
};
}),
(114,82,l,{
"Letterink-NibData" = {
AngleInDegrees = 209.0546;
};
}),
(176,34,l,{
"Letterink-NibData" = {
AngleInDegrees = 26.8249;
};
}),
(306,252,l,{
"Letterink-NibData" = {
AngleInDegrees = 90;
};
}),
(243,210,l,{
"Letterink-NibData" = {
AngleInDegrees = 90;
};
}),
(502,210,l,{
"Letterink-NibData" = {
AngleInDegrees = 180;
};
}),
(472,256,l,{
"Letterink-NibData" = {
AngleInDegrees = 180;
};
}),
(441,-1,l,{
"Letterink-NibData" = {
AngleInDegrees = 90;
};
})
);
},
{
closed = 1;
nodes = (
(513,286,l,{
"Letterink-NibData" = {
AngleInDegrees = 270;
};
}),
(298,286,l,{
"Letterink-NibData" = {
AngleInDegrees = 28.71031;
};
}),
(315,264,l,{
"Letterink-NibData" = {
AngleInDegrees = 28.71031;
};
}),
(490,537,l,{
"Letterink-NibData" = {
AngleInDegrees = 23.19859;
};
}),
(513,586,l,{
"Letterink-NibData" = {
AngleInDegrees = 180;
};
}),
(473,260,l,{
"Letterink-NibData" = {
AngleInDegrees = 270;
};
})
);
}
);
width = 934;
},
{
anchors = (
{
name = bottom;
pos = (520,0);
},
{
name = top;
pos = (646,684);
}
);
hints = (
{
name = _corner.caps_diag;
origin = (0,12);
scale = (-1,1);
type = Corner;
}
);
layerId = "49C16FD3-6177-408B-A733-AEB3898BB77C";
shapes = (
{
closed = 1;
nodes = (
(893,1,l),
(898,37,l,{
"Letterink-NibData" = {
AngleInDegrees = 270;
};
}),
(518,37,l),
(555,346,l,{
"Letterink-NibData" = {
AngleInDegrees = 90;
};
}),
(811,346,l),
(816,382,l,{
"Letterink-NibData" = {
AngleInDegrees = 270;
};
}),
(560,382,l),
(593,649,l,{
"Letterink-NibData" = {
AngleInDegrees = 90;
};
}),
(953,649,l),
(957,685,l,{
"Letterink-NibData" = {
AngleInDegrees = 270;
};
}),
(531,685,l,{
"Letterink-NibData" = {
AngleInDegrees = 208.82166;
};
}),
(117,56,l,{
"Letterink-NibData" = {
AngleInDegrees = 213.69007;
};
}),
(150,38,l,{
"Letterink-NibData" = {
AngleInDegrees = 29.29136;
};
}),
(282,249,l,{
"Letterink-NibData" = {
AngleInDegrees = 90;
};
}),
(257,237,l,{
"Letterink-NibData" = {
AngleInDegrees = 90;
};
}),
(521,237,l,{
"Letterink-NibData" = {
AngleInDegrees = 180;
};
}),
(507,253,l,{
"Letterink-NibData" = {
AngleInDegrees = 180;
};
}),
(476,1,l,{
"Letterink-NibData" = {
AngleInDegrees = 90;
};
})
);
},
{
closed = 1;
nodes = (
(526,273,l,{
"Letterink-NibData" = {
AngleInDegrees = 270;
};
}),
(280,273,l,{
"Letterink-NibData" = {
AngleInDegrees = 28.59795;
};
}),
(289,259,l,{
"Letterink-NibData" = {
AngleInDegrees = 28.59795;
};
}),
(533,627,l,{
"Letterink-NibData" = {
AngleInDegrees = 27.32389;
};
}),
(558,663,l,{
"Letterink-NibData" = {
AngleInDegrees = 179.84962;
};
}),
(508,257,l,{
"Letterink-NibData" = {
AngleInDegrees = 270;
};
})
);
}
);
width = 948;
},
{
anchors = (
{
name = bottom;
pos = (503,0);
},
{
name = top;
pos = (511,692);
}
);
associatedMasterId = "49C16FD3-6177-408B-A733-AEB3898BB77C";
layerId = "C1A3D0A8-503D-4B78-876F-381CB7337013";
name = "11 Jan 22, 13:13";
shapes = (
{
closed = 1;
nodes = (
(94,-2,o),
(106,26,o),
(137,71,c,{
"Letterink-NibData" = {
AngleInDegrees = 29.29136;
};
}),
(229,235,l,{
"Letterink-NibData" = {
AngleInDegrees = 90;
};
}),
(457,235,l,{
"Letterink-NibData" = {
AngleInDegrees = 180;
};
}),
(457,1,l,{
"Letterink-NibData" = {
AngleInDegrees = 90;
};
}),
(876,1,l),
(876,41,l,{
"Letterink-NibData" = {
AngleInDegrees = 270;
};
}),
(499,41,l),
(499,344,l,{
"Letterink-NibData" = {
AngleInDegrees = 90;
};
}),
(753,344,l),
(753,384,l,{
"Letterink-NibData" = {
AngleInDegrees = 270;
};
}),
(499,384,l),
(499,645,l,{
"Letterink-NibData" = {
AngleInDegrees = 90;
};
}),
(856,645,l),
(856,685,l,{
"Letterink-NibData" = {
AngleInDegrees = 270;
};
}),
(429,685,l,{
"Letterink-NibData" = {
AngleInDegrees = 208.82166;
};
}),
(95,78,l,{
"Letterink-NibData" = {
AngleInDegrees = 213.69007;
};
}),
(81,57,o),
(72,38,o),
(48,38,cs,{
"Letterink-NibData" = {
AngleInDegrees = 270;
};
}),
(34,38,o),
(17,47,o),
(9,56,c,{
"Letterink-NibData" = {
AngleInDegrees = 244.0577;
};
}),
(-28,38,l,{
"Letterink-NibData" = {
AngleInDegrees = 146.82149;
};
}),
(-11,12,o),
(16,-2,o),
(47,-2,cs,{
"Letterink-NibData" = {
AngleInDegrees = 90;
};
})
);
},
{
closed = 1;
nodes = (
(425,596,l,{
"Letterink-NibData" = {
AngleInDegrees = 27.32389;
};
}),
(456,656,l,{
"Letterink-NibData" = {
AngleInDegrees = 179.84962;
};
}),
(457,275,l,{
"Letterink-NibData" = {
AngleInDegrees = 270;
};
}),
(250,275,l,{
"Letterink-NibData" = {
AngleInDegrees = 28.59795;
};
})
);
}
);
width = 921;
},
{
anchors = (
{
name = bottom;
pos = (492,0);
},
{
name = top;
pos = (503,673);
}
);
associatedMasterId = "0CAF3BED-C4AC-4024-B3E1-4C69D1EF7EC0";
layerId = "8D16C2AC-4E99-48C9-ADA3-C168C353B72B";
name = "11 Jan 22, 13:30";
shapes = (
{
closed = 1;
nodes = (
(91,-12,o),
(128,8,o),
(146,44,cs,{
"Letterink-NibData" = {
AngleInDegrees = 26.8249;
};
}),
(235,220,l,{
"Letterink-NibData" = {
AngleInDegrees = 90;
};
}),
(432,220,l,{
"Letterink-NibData" = {
AngleInDegrees = 180;
};
}),
(432,-1,l,{
"Letterink-NibData" = {
AngleInDegrees = 90;
};
}),
(869,-1,l),
(869,75,l,{
"Letterink-NibData" = {
AngleInDegrees = 270;
};
}),
(514,75,l),
(514,325,l,{
"Letterink-NibData" = {
AngleInDegrees = 90;
};
}),
(751,325,l),
(751,401,l,{
"Letterink-NibData" = {
AngleInDegrees = 270;
};
}),
(514,401,l),
(514,610,l,{
"Letterink-NibData" = {
AngleInDegrees = 90;
};
}),
(849,610,l),
(849,686,l,{
"Letterink-NibData" = {
AngleInDegrees = 270;
};
}),
(405,686,l,{
"Letterink-NibData" = {
AngleInDegrees = 208.5766;
};
}),
(82,93,ls,{
"Letterink-NibData" = {
AngleInDegrees = 209.0546;
};
}),
(72,75,o),
(63,67,o),
(48,67,cs,{
"Letterink-NibData" = {
AngleInDegrees = 270;
};
}),
(37,67,o),
(25,72,o),
(15,86,c,{
"Letterink-NibData" = {
AngleInDegrees = 220.6013;
};
}),
(-33,30,l,{
"Letterink-NibData" = {
AngleInDegrees = 145.7843;
};
}),
(-16,5,o),
(15,-12,o),
(56,-12,cs,{
"Letterink-NibData" = {
AngleInDegrees = 90;
};
})
);
},
{
closed = 1;
nodes = (
(411,537,l,{
"Letterink-NibData" = {
AngleInDegrees = 23.19859;
};
}),
(432,586,l,{
"Letterink-NibData" = {
AngleInDegrees = 180;
};
}),
(432,296,l,{
"Letterink-NibData" = {
AngleInDegrees = 270;
};
}),
(279,296,l,{
"Letterink-NibData" = {
AngleInDegrees = 28.71031;
};
})
);
}
);
width = 911;
},
{
anchors = (
{
name = bottom;
pos = (593,0);
},
{
name = top;
pos = (688,684);
}
);
hints = (
{
name = _corner.caps_diag;
origin = (0,12);
scale = (-1,1);
type = Corner;
}
);
layerId = m004;
shapes = (
{
closed = 1;
nodes = (
(936,0,l),
(954,148,l,{
"Letterink-NibData" = {
AngleInDegrees = "270";
};
}),
(655,148,l),
(672,281,l,{
"Letterink-NibData" = {
AngleInDegrees = "90";
};
}),
(861,281,l),
(879,429,l,{
"Letterink-NibData" = {
AngleInDegrees = "270";
};
}),
(690,429,l),
(703,536,l,{
"Letterink-NibData" = {
AngleInDegrees = "90";
};
}),
(982,536,l),
(1000,685,l,{
"Letterink-NibData" = {
AngleInDegrees = "270";
};
}),
(487,684,l,{
"Letterink-NibData" = {
AngleInDegrees = "209.70894";
};
}),
(141,140,l,{
"Letterink-NibData" = {
AngleInDegrees = "89.3704";
};
}),
(279,60,l,{
"Letterink-NibData" = {
AngleInDegrees = "28.81079";
};
}),
(396,256,l,{
"Letterink-NibData" = {
AngleInDegrees = "90";
};
}),
(290,146,l,{
"Letterink-NibData" = {
AngleInDegrees = "90";
};
}),
(559,146,l,{
"Letterink-NibData" = {
AngleInDegrees = "180";
};
}),
(501,240,l,{
"Letterink-NibData" = {
AngleInDegrees = "180";
};
}),
(472,0,l,{
"Letterink-NibData" = {
AngleInDegrees = "90";
};
})
);
},
{
closed = 1;
nodes = (
(579,296,l,{
"Letterink-NibData" = {
AngleInDegrees = "270";
};
}),
(391,296,l,{
"Letterink-NibData" = {
AngleInDegrees = "28.68615";
};
}),
(427,279,l,{
"Letterink-NibData" = {
AngleInDegrees = "28.68615";
};
}),
(520,450,l),
(531,477,l,{
"Letterink-NibData" = {
AngleInDegrees = "23.62938";
};
}),
(506,275,l,{
"Letterink-NibData" = {
AngleInDegrees = "270";
};
})
);
}
);
width = 995;
},
{
anchors = (
{
name = bottom;
pos = (486,0);
},
{
name = top;
pos = (497,673);
}
);
associatedMasterId = m004;
layerId = "80EF8790-0869-49FF-90A7-EBAC34F5F575";
name = "11 Jan 22, 13:30";
shapes = (
{
closed = 1;
nodes = (
(85,-12,o),
(122,8,o),
(140,44,cs,{
"Letterink-NibData" = {
AngleInDegrees = 26.8249;
};
}),
(229,220,l,{
"Letterink-NibData" = {
AngleInDegrees = 90;
};
}),
(426,220,l,{
"Letterink-NibData" = {
AngleInDegrees = 180;
};
}),
(426,-1,l,{
"Letterink-NibData" = {
AngleInDegrees = 90;
};
}),
(863,-1,l),
(863,75,l,{
"Letterink-NibData" = {
AngleInDegrees = 270;
};
}),
(508,75,l),
(508,325,l,{
"Letterink-NibData" = {
AngleInDegrees = 90;
};
}),
(745,325,l),
(745,401,l,{
"Letterink-NibData" = {
AngleInDegrees = 270;
};
}),
(508,401,l),
(508,610,l,{
"Letterink-NibData" = {
AngleInDegrees = 90;
};
}),
(843,610,l),
(843,686,l,{
"Letterink-NibData" = {
AngleInDegrees = 270;
};
}),
(399,686,l,{
"Letterink-NibData" = {
AngleInDegrees = 208.5766;
};
}),
(76,93,ls,{
"Letterink-NibData" = {
AngleInDegrees = 209.0546;
};
}),
(66,75,o),
(57,67,o),
(42,67,cs,{
"Letterink-NibData" = {
AngleInDegrees = 270;
};
}),
(31,67,o),
(19,72,o),
(9,86,c,{
"Letterink-NibData" = {
AngleInDegrees = 220.6013;
};
}),
(-39,30,l,{
"Letterink-NibData" = {
AngleInDegrees = 145.7843;
};
}),
(-22,5,o),
(9,-12,o),
(50,-12,cs,{
"Letterink-NibData" = {
AngleInDegrees = 90;
};
})
);
},
{
closed = 1;
nodes = (
(405,537,l,{
"Letterink-NibData" = {
AngleInDegrees = 23.19859;
};
}),
(426,586,l,{
"Letterink-NibData" = {
AngleInDegrees = 180;
};
}),
(426,296,l,{
"Letterink-NibData" = {
AngleInDegrees = 270;
};
}),
(273,296,l,{
"Letterink-NibData" = {
AngleInDegrees = 28.71031;
};
})
);
}
);
width = 905;
}
);
unicode = 198;
userData = {
position = 422;
width = 61;
};
},
{
glyphname = AE.ss01;
kernLeft = Atext;
kernRight = E;
layers = (
{
anchors = (
{
name = bottom;
pos = (453,0);
},
{
name = top;
pos = (547,673);
}
);
layerId = "0CAF3BED-C4AC-4024-B3E1-4C69D1EF7EC0";
shapes = (
{
closed = 1;
nodes = (
(76,0,l,{
"Letterink-NibData" = {
AngleInDegrees = 28.81079;
};
}),
(244,252,l,{
"Letterink-NibData" = {
AngleInDegrees = 90;
};
}),
(185,210,l,{
"Letterink-NibData" = {
AngleInDegrees = 90;
};
}),
(454,210,l,{
"Letterink-NibData" = {
AngleInDegrees = 180;
};
}),
(424,256,l,{
"Letterink-NibData" = {
AngleInDegrees = 180;
};
}),
(393,-1,l,{
"Letterink-NibData" = {
AngleInDegrees = 90;
};
}),
(820,-1,l),
(829,75,l,{
"Letterink-NibData" = {
AngleInDegrees = 270;
};
}),
(484,75,l),
(515,325,l,{
"Letterink-NibData" = {
AngleInDegrees = 90;
};
}),
(742,325,l),
(751,401,l,{
"Letterink-NibData" = {
AngleInDegrees = 270;
};
}),
(524,401,l),
(550,610,l,{
"Letterink-NibData" = {
AngleInDegrees = 90;
};
}),
(875,610,l),
(884,686,l,{
"Letterink-NibData" = {
AngleInDegrees = 270;
};
}),
(460,686,l,{
"Letterink-NibData" = {
AngleInDegrees = 209.70894;
};
}),
(-17,-1,l,{
"Letterink-NibData" = {
AngleInDegrees = 89.3704;
};
})
);
},
{
closed = 1;
nodes = (
(465,286,l,{
"Letterink-NibData" = {
AngleInDegrees = 270;
};
}),
(234,286,l,{
"Letterink-NibData" = {
AngleInDegrees = 28.68615;
};
}),
(251,264,l,{
"Letterink-NibData" = {
AngleInDegrees = 28.68615;
};
}),
(449,561,l,{
"Letterink-NibData" = {
AngleInDegrees = 23.62938;
};
}),
(466,593,l,{
"Letterink-NibData" = {
AngleInDegrees = 180;
};
}),
(425,260,l,{
"Letterink-NibData" = {
AngleInDegrees = 270;
};
})
);
}
);
width = 876;
},
{
anchors = (
{
name = bottom;
pos = (422,0);
},
{
name = top;
pos = (579,684);
}
);
layerId = "49C16FD3-6177-408B-A733-AEB3898BB77C";
shapes = (
{
closed = 1;
nodes = (
(33,1,l,{
"Letterink-NibData" = {
AngleInDegrees = 28.2127;
};
}),
(197,250,l,{
"Letterink-NibData" = {
AngleInDegrees = 90;
};
}),
(161,236,l,{
"Letterink-NibData" = {
AngleInDegrees = 90;
};
}),
(423,236,l,{
"Letterink-NibData" = {
AngleInDegrees = 180;
};
}),
(409,252,l,{
"Letterink-NibData" = {
AngleInDegrees = 180;
};
}),
(378,1,l,{
"Letterink-NibData" = {
AngleInDegrees = 90;
};
}),
(798,1,l),
(803,37,l,{
"Letterink-NibData" = {
AngleInDegrees = 270;
};
}),
(420,37,l),
(457,346,l,{
"Letterink-NibData" = {
AngleInDegrees = 90;
};
}),
(717,346,l),
(722,382,l,{
"Letterink-NibData" = {
AngleInDegrees = 270;
};
}),
(462,382,l),
(495,649,l,{
"Letterink-NibData" = {
AngleInDegrees = 90;
};
}),
(858,649,l),
(862,685,l,{
"Letterink-NibData" = {
AngleInDegrees = 270;
};
}),
(446,685,l,{
"Letterink-NibData" = {
AngleInDegrees = 208.86222;
};
}),
(-9,1,l,{
"Letterink-NibData" = {
AngleInDegrees = 90;
};
})
);
},
{
closed = 1;
nodes = (
(428,272,l,{
"Letterink-NibData" = {
AngleInDegrees = 270;
};
}),
(182,272,l,{
"Letterink-NibData" = {
AngleInDegrees = 28.9193;
};
}),
(203,257,l,{
"Letterink-NibData" = {
AngleInDegrees = 28.9193;
};
}),
(429,601,l,{
"Letterink-NibData" = {
AngleInDegrees = 32.55;
};
}),
(458,650,l,{
"Letterink-NibData" = {
AngleInDegrees = 180;
};
}),
(410,256,l,{
"Letterink-NibData" = {
AngleInDegrees = 270;
};
})
);
}
);
width = 856;
},
{
anchors = (
{
name = bottom;
pos = (404,0);
},
{
name = top;
pos = (559,684);
}
);
layerId = m004;
shapes = (
{
closed = 1;
nodes = (
(160,1,l,{
"Letterink-NibData" = {
AngleInDegrees = "28.81079";
};
}),
(328,256,l,{
"Letterink-NibData" = {
AngleInDegrees = "90";
};
}),
(222,146,l,{
"Letterink-NibData" = {
AngleInDegrees = "90";
};
}),
(491,146,l,{
"Letterink-NibData" = {
AngleInDegrees = "180";
};
}),
(435,264,l,{
"Letterink-NibData" = {
AngleInDegrees = "180";
};
}),
(404,0,l,{
"Letterink-NibData" = {
AngleInDegrees = "90";
};
}),
(868,0,l),
(886,148,l,{
"Letterink-NibData" = {
AngleInDegrees = "270";
};
}),
(587,148,l),
(604,281,l,{
"Letterink-NibData" = {
AngleInDegrees = "90";
};
}),
(793,281,l),
(811,429,l,{
"Letterink-NibData" = {
AngleInDegrees = "270";
};
}),
(622,429,l),
(635,536,l,{
"Letterink-NibData" = {
AngleInDegrees = "90";
};
}),
(914,536,l),
(932,684,l,{
"Letterink-NibData" = {
AngleInDegrees = "270";
};
}),
(432,684,l,{
"Letterink-NibData" = {
AngleInDegrees = "209.70894";
};
}),
(-25,0,l,{
"Letterink-NibData" = {
AngleInDegrees = "89.3704";
};
})
);
},
{
closed = 1;
nodes = (
(511,296,l,{
"Letterink-NibData" = {
AngleInDegrees = "270";
};
}),
(323,296,l,{
"Letterink-NibData" = {
AngleInDegrees = "28.68615";
};
}),
(359,279,l,{
"Letterink-NibData" = {
AngleInDegrees = "28.68615";
};
}),
(466,488,l,{
"Letterink-NibData" = {
AngleInDegrees = "23.62938";
};
}),
(459,449,l,{
"Letterink-NibData" = {
AngleInDegrees = "180";
};
}),
(438,275,l,{
"Letterink-NibData" = {
AngleInDegrees = "270";
};
})
);
}
);
width = 930;
}
);
metricLeft = A.ss01;
metricRight = E;
userData = {
position = 422;
width = 61;
};
},
{
glyphname = AE.swsh;
kernLeft = A;
kernRight = E;
layers = (
{
anchors = (
{
name = bottom;
pos = (594,0);
},
{
name = top;
pos = (605,673);
}
);
hints = (
{
name = _corner.caps_swash_diag;
options = 1;
origin = (0,12);
scale = (-1,1);
type = Corner;
},
{
name = _corner.caps_swash.big;
origin = (2,2);
type = Corner;
}
);
layerId = "0CAF3BED-C4AC-4024-B3E1-4C69D1EF7EC0";
shapes = (
{
closed = 1;
nodes = (
(920,-1,l),
(930,75,l,{
"Letterink-NibData" = {
AngleInDegrees = 270;
};
}),
(575,75,l),
(605,325,l,{
"Letterink-NibData" = {
AngleInDegrees = 90;
};
}),
(842,325,l),
(852,401,l,{
"Letterink-NibData" = {
AngleInDegrees = 270;
};
}),
(615,401,l),
(640,610,l,{
"Letterink-NibData" = {
AngleInDegrees = 90;
};
}),
(975,610,l),
(985,686,l,{
"Letterink-NibData" = {
AngleInDegrees = 270;
};
}),
(536,686,l,{
"Letterink-NibData" = {
AngleInDegrees = 208.5766;
};
}),
(154,91,l,{
"Letterink-NibData" = {
AngleInDegrees = 209.0546;
};
}),
(219,50,l,{
"Letterink-NibData" = {
AngleInDegrees = 26.8249;
};
}),
(343,252,l,{
"Letterink-NibData" = {
AngleInDegrees = 90;
};
}),
(286,210,l,{
"Letterink-NibData" = {
AngleInDegrees = 90;
};
}),
(545,210,l,{
"Letterink-NibData" = {
AngleInDegrees = 180;
};
}),
(515,256,l,{
"Letterink-NibData" = {
AngleInDegrees = 180;
};
}),
(483,-1,l,{
"Letterink-NibData" = {
AngleInDegrees = 90;
};
})
);
},
{
closed = 1;
nodes = (
(554,286,l,{
"Letterink-NibData" = {
AngleInDegrees = 270;
};
}),
(339,286,l,{
"Letterink-NibData" = {
AngleInDegrees = 28.71031;
};
}),
(356,264,l,{
"Letterink-NibData" = {
AngleInDegrees = 28.71031;
};
}),
(533,537,l,{
"Letterink-NibData" = {
AngleInDegrees = 23.19859;
};
}),
(555,586,l,{
"Letterink-NibData" = {
AngleInDegrees = 180;
};
}),
(515,260,l,{
"Letterink-NibData" = {
AngleInDegrees = 270;
};
})
);
},
{
closed = 1;
nodes = (
(525,609,l),
(534,685,l,{
"Letterink-NibData" = {
AngleInDegrees = "270";
};
}),
(351,685,l,{
"Letterink-NibData" = {
AngleInDegrees = "180";
};
}),
(352,609,l,{
"Letterink-NibData" = {
AngleInDegrees = "90";
};
})
);
}
);
width = 976;
},
{
anchors = (
{
name = bottom;
pos = (563,0);
},
{
name = top;
pos = (656,694);
}
);
hints = (
{
name = _corner.caps_swash_diag;
origin = (0,12);
scale = (-1,1);
type = Corner;
},
{
name = _corner.caps_swash.big;
origin = (2,2);
type = Corner;
}
);
layerId = "49C16FD3-6177-408B-A733-AEB3898BB77C";
shapes = (
{
closed = 1;
nodes = (
(935,1,l),
(940,37,l,{
"Letterink-NibData" = {
AngleInDegrees = 270;
};
}),
(561,37,l),
(598,346,l,{
"Letterink-NibData" = {
AngleInDegrees = 90;
};
}),
(854,346,l),
(859,382,l,{
"Letterink-NibData" = {
AngleInDegrees = 270;
};
}),
(603,382,l),
(636,649,l,{
"Letterink-NibData" = {
AngleInDegrees = 90;
};
}),
(995,649,l),
(999,685,l,{
"Letterink-NibData" = {
AngleInDegrees = 270;
};
}),
(582,685,l,{
"Letterink-NibData" = {
AngleInDegrees = 208.82166;
};
}),
(153,61,l,{
"Letterink-NibData" = {
AngleInDegrees = 213.69007;
};
}),
(184,40,l,{
"Letterink-NibData" = {
AngleInDegrees = 29.29136;
};
}),
(330,249,l,{
"Letterink-NibData" = {
AngleInDegrees = 90;
};
}),
(300,237,l,{
"Letterink-NibData" = {
AngleInDegrees = 90;
};
}),
(563,237,l,{
"Letterink-NibData" = {
AngleInDegrees = 180;
};
}),
(549,253,l,{
"Letterink-NibData" = {
AngleInDegrees = 180;
};
}),
(518,1,l,{
"Letterink-NibData" = {
AngleInDegrees = 90;
};
})
);
},
{
closed = 1;
nodes = (
(568,273,l,{
"Letterink-NibData" = {
AngleInDegrees = 270;
};
}),
(323,273,l,{
"Letterink-NibData" = {
AngleInDegrees = 28.59795;
};
}),
(334,259,l,{
"Letterink-NibData" = {
AngleInDegrees = 28.59795;
};
}),
(565,600,l,{
"Letterink-NibData" = {
AngleInDegrees = 27.32389;
};
}),
(597,650,l,{
"Letterink-NibData" = {
AngleInDegrees = 179.84962;
};
}),
(550,257,l,{
"Letterink-NibData" = {
AngleInDegrees = 270;
};
})
);
},
{
closed = 1;
nodes = (
(577,648,l),
(581,684,l,{
"Letterink-NibData" = {
AngleInDegrees = "270";
};
}),
(378,684,l,{
"Letterink-NibData" = {
AngleInDegrees = "180";
};
}),
(379,648,l,{
"Letterink-NibData" = {
AngleInDegrees = "90";
};
})
);
}
);
width = 990;
},
{
anchors = (
{
name = bottom;
pos = (503,0);
},
{
name = top;
pos = (511,692);
}
);
associatedMasterId = "49C16FD3-6177-408B-A733-AEB3898BB77C";
layerId = "C1A3D0A8-503D-4B78-876F-381CB7337013";
name = "11 Jan 22, 13:13";
shapes = (
{
closed = 1;
nodes = (
(94,-2,o),
(106,26,o),
(137,71,c,{
"Letterink-NibData" = {
AngleInDegrees = 29.29136;
};
}),
(229,235,l,{
"Letterink-NibData" = {
AngleInDegrees = 90;
};
}),
(457,235,l,{
"Letterink-NibData" = {
AngleInDegrees = 180;
};
}),
(457,1,l,{
"Letterink-NibData" = {
AngleInDegrees = 90;
};
}),
(876,1,l),
(876,41,l,{
"Letterink-NibData" = {
AngleInDegrees = 270;
};
}),
(499,41,l),
(499,344,l,{
"Letterink-NibData" = {
AngleInDegrees = 90;
};
}),
(753,344,l),
(753,384,l,{
"Letterink-NibData" = {
AngleInDegrees = 270;
};
}),
(499,384,l),
(499,645,l,{
"Letterink-NibData" = {
AngleInDegrees = 90;
};
}),
(856,645,l),
(856,685,l,{
"Letterink-NibData" = {
AngleInDegrees = 270;
};
}),
(429,685,l,{
"Letterink-NibData" = {
AngleInDegrees = 208.82166;
};
}),
(95,78,l,{
"Letterink-NibData" = {
AngleInDegrees = 213.69007;
};
}),
(81,57,o),
(72,38,o),
(48,38,cs,{
"Letterink-NibData" = {
AngleInDegrees = 270;
};
}),
(34,38,o),
(17,47,o),
(9,56,c,{
"Letterink-NibData" = {
AngleInDegrees = 244.0577;
};
}),
(-28,38,l,{
"Letterink-NibData" = {
AngleInDegrees = 146.82149;
};
}),
(-11,12,o),
(16,-2,o),
(47,-2,cs,{
"Letterink-NibData" = {
AngleInDegrees = 90;
};
})
);
},
{
closed = 1;
nodes = (
(425,596,l,{
"Letterink-NibData" = {
AngleInDegrees = 27.32389;
};
}),
(456,656,l,{
"Letterink-NibData" = {
AngleInDegrees = 179.84962;
};
}),
(457,275,l,{
"Letterink-NibData" = {
AngleInDegrees = 270;
};
}),
(250,275,l,{
"Letterink-NibData" = {
AngleInDegrees = 28.59795;
};
})
);
}
);
width = 921;
},
{
anchors = (
{
name = bottom;
pos = (492,0);
},
{
name = top;
pos = (503,673);
}
);
associatedMasterId = "0CAF3BED-C4AC-4024-B3E1-4C69D1EF7EC0";
layerId = "8D16C2AC-4E99-48C9-ADA3-C168C353B72B";
name = "11 Jan 22, 13:30";
shapes = (
{
closed = 1;
nodes = (
(91,-12,o),
(128,8,o),
(146,44,cs,{
"Letterink-NibData" = {
AngleInDegrees = 26.8249;
};
}),
(235,220,l,{
"Letterink-NibData" = {
AngleInDegrees = 90;
};
}),
(432,220,l,{
"Letterink-NibData" = {
AngleInDegrees = 180;
};
}),
(432,-1,l,{
"Letterink-NibData" = {
AngleInDegrees = 90;
};
}),
(869,-1,l),
(869,75,l,{
"Letterink-NibData" = {
AngleInDegrees = 270;
};
}),
(514,75,l),
(514,325,l,{
"Letterink-NibData" = {
AngleInDegrees = 90;
};
}),
(751,325,l),
(751,401,l,{
"Letterink-NibData" = {
AngleInDegrees = 270;
};
}),
(514,401,l),
(514,610,l,{
"Letterink-NibData" = {
AngleInDegrees = 90;
};
}),
(849,610,l),
(849,686,l,{
"Letterink-NibData" = {
AngleInDegrees = 270;
};
}),
(405,686,l,{
"Letterink-NibData" = {
AngleInDegrees = 208.5766;
};
}),
(82,93,ls,{
"Letterink-NibData" = {
AngleInDegrees = 209.0546;
};
}),
(72,75,o),
(63,67,o),
(48,67,cs,{
"Letterink-NibData" = {
AngleInDegrees = 270;
};
}),
(37,67,o),
(25,72,o),
(15,86,c,{
"Letterink-NibData" = {
AngleInDegrees = 220.6013;
};
}),
(-33,30,l,{
"Letterink-NibData" = {
AngleInDegrees = 145.7843;
};
}),
(-16,5,o),
(15,-12,o),
(56,-12,cs,{
"Letterink-NibData" = {
AngleInDegrees = 90;
};
})
);
},
{
closed = 1;
nodes = (
(411,537,l,{
"Letterink-NibData" = {
AngleInDegrees = 23.19859;
};
}),
(432,586,l,{
"Letterink-NibData" = {
AngleInDegrees = 180;
};
}),
(432,296,l,{
"Letterink-NibData" = {
AngleInDegrees = 270;
};
}),
(279,296,l,{
"Letterink-NibData" = {
AngleInDegrees = 28.71031;
};
})
);
}
);
width = 911;
},
{
anchors = (
{
name = bottom;
pos = (575,0);
},
{
name = top;
pos = (707,673);
}
);
hints = (
{
name = _corner.caps_swash_diag;
options = 1;
origin = (0,12);
scale = (-1,1);
type = Corner;
},
{
name = _corner.caps_swash.big;
origin = (2,2);
type = Corner;
}
);
layerId = m004;
shapes = (
{
closed = 1;
nodes = (
(999,0,l),
(1017,148,l,{
"Letterink-NibData" = {
AngleInDegrees = "270";
};
}),
(718,148,l),
(736,291,l,{
"Letterink-NibData" = {
AngleInDegrees = "90";
};
}),
(925,291,l),
(943,439,l,{
"Letterink-NibData" = {
AngleInDegrees = "270";
};
}),
(754,439,l),
(766,536,l,{
"Letterink-NibData" = {
AngleInDegrees = "90";
};
}),
(1045,536,l),
(1063,684,l,{
"Letterink-NibData" = {
AngleInDegrees = "270";
};
}),
(559,684,l,{
"Letterink-NibData" = {
AngleInDegrees = "209.70894";
};
}),
(211,151,l,{
"Letterink-NibData" = {
AngleInDegrees = "89.3704";
};
}),
(345,64,l,{
"Letterink-NibData" = {
AngleInDegrees = "28.81079";
};
}),
(460,256,l,{
"Letterink-NibData" = {
AngleInDegrees = "90";
};
}),
(354,146,l,{
"Letterink-NibData" = {
AngleInDegrees = "90";
};
}),
(623,146,l,{
"Letterink-NibData" = {
AngleInDegrees = "180";
};
}),
(568,264,l,{
"Letterink-NibData" = {
AngleInDegrees = "180";
};
}),
(535,0,l,{
"Letterink-NibData" = {
AngleInDegrees = "90";
};
})
);
},
{
closed = 1;
nodes = (
(642,296,l,{
"Letterink-NibData" = {
AngleInDegrees = "270";
};
}),
(454,296,l,{
"Letterink-NibData" = {
AngleInDegrees = "28.68615";
};
}),
(489,279,l,{
"Letterink-NibData" = {
AngleInDegrees = "28.68615";
};
}),
(597,488,l,{
"Letterink-NibData" = {
AngleInDegrees = "23.62938";
};
}),
(590,449,l,{
"Letterink-NibData" = {
AngleInDegrees = "180";
};
}),
(569,275,l,{
"Letterink-NibData" = {
AngleInDegrees = "270";
};
})
);
},
{
closed = 1;
nodes = (
(592,536,l),
(610,684,l,{
"Letterink-NibData" = {
AngleInDegrees = "270";
};
}),
(374,684,l,{
"Letterink-NibData" = {
AngleInDegrees = "180";
};
}),
(372,535,l)
);
}
);
width = 1058;
},
{
anchors = (
{
name = bottom;
pos = (486,0);
},
{
name = top;
pos = (497,673);
}
);
associatedMasterId = m004;
layerId = "80EF8790-0869-49FF-90A7-EBAC34F5F575";
name = "11 Jan 22, 13:30";
shapes = (
{
closed = 1;
nodes = (
(85,-12,o),
(122,8,o),
(140,44,cs,{
"Letterink-NibData" = {
AngleInDegrees = 26.8249;
};
}),
(229,220,l,{
"Letterink-NibData" = {
AngleInDegrees = 90;
};
}),
(426,220,l,{
"Letterink-NibData" = {
AngleInDegrees = 180;
};
}),
(426,-1,l,{
"Letterink-NibData" = {
AngleInDegrees = 90;
};
}),
(863,-1,l),
(863,75,l,{
"Letterink-NibData" = {
AngleInDegrees = 270;
};
}),
(508,75,l),
(508,325,l,{
"Letterink-NibData" = {
AngleInDegrees = 90;
};
}),
(745,325,l),
(745,401,l,{
"Letterink-NibData" = {
AngleInDegrees = 270;
};
}),
(508,401,l),
(508,610,l,{
"Letterink-NibData" = {
AngleInDegrees = 90;
};
}),
(843,610,l),
(843,686,l,{
"Letterink-NibData" = {
AngleInDegrees = 270;
};
}),
(399,686,l,{
"Letterink-NibData" = {
AngleInDegrees = 208.5766;
};
}),
(76,93,ls,{
"Letterink-NibData" = {
AngleInDegrees = 209.0546;
};
}),
(66,75,o),
(57,67,o),
(42,67,cs,{
"Letterink-NibData" = {
AngleInDegrees = 270;
};
}),
(31,67,o),
(19,72,o),
(9,86,c,{
"Letterink-NibData" = {
AngleInDegrees = 220.6013;
};
}),
(-39,30,l,{
"Letterink-NibData" = {
AngleInDegrees = 145.7843;
};
}),
(-22,5,o),
(9,-12,o),
(50,-12,cs,{
"Letterink-NibData" = {
AngleInDegrees = 90;
};
})
);
},
{
closed = 1;
nodes = (
(405,537,l,{
"Letterink-NibData" = {
AngleInDegrees = 23.19859;
};
}),
(426,586,l,{
"Letterink-NibData" = {
AngleInDegrees = 180;
};
}),
(426,296,l,{
"Letterink-NibData" = {
AngleInDegrees = 270;
};
}),
(273,296,l,{
"Letterink-NibData" = {
AngleInDegrees = 28.71031;
};
})
);
}
);
width = 905;
}
);
metricLeft = A.swsh;
userData = {
position = 422;
width = 61;
};
},
{
glyphname = B;
kernLeft = E;
kernRight = B;
layers = (
{
anchors = (
{
name = bottom;
pos = (315,0);
},
{
name = center;
pos = (370,363);
},
{
name = top;
pos = (399,684);
}
);
hints = (
{
name = _corner.caps_left;
origin = (0,18);
type = Corner;
}
);
layerId = "0CAF3BED-C4AC-4024-B3E1-4C69D1EF7EC0";
shapes = (
{
closed = 1;
nodes = (
(486,-10,o),
(585,61,o),
(601,186,cs),
(611,262,o),
(584,317,o),
(536,346,cs,{
"Letterink-NibData" = {
AngleInDegrees = 300.96376;
};
}),
(515,359,o),
(490,370,o),
(481,369,c,{
"Letterink-NibData" = {
AngleInDegrees = 71.56505;
};
}),
(495,371,o),
(511,376,o),
(530,383,cs,{
"Letterink-NibData" = {
AngleInDegrees = 63.43495;
};
}),
(577,400,o),
(603,451,o),
(610,507,cs),
(623,615,o),
(550,684,o),
(422,684,cs,{
"Letterink-NibData" = {
AngleInDegrees = 270;
};
}),
(190,684,l,{
"Letterink-NibData" = {
AngleInDegrees = 180;
};
}),
(190,606,l,{
"Letterink-NibData" = {
AngleInDegrees = 90;
};
}),
(417,606,l,{
"Letterink-NibData" = {
AngleInDegrees = 93.91825;
};
}),
(500,601,o),
(536,570,o),
(529,512,cs,{
"Letterink-NibData" = {
AngleInDegrees = 180;
};
}),
(521,445,o),
(464,401,o),
(386,401,cs,{
"Letterink-NibData" = {
AngleInDegrees = 270;
};
}),
(203,401,l,{
"Letterink-NibData" = {
AngleInDegrees = 180;
};
}),
(194,325,l,{
"Letterink-NibData" = {
AngleInDegrees = 90;
};
}),
(388,324,ls,{
"Letterink-NibData" = {
AngleInDegrees = 90;
};
}),
(481,324,o),
(531,275,o),
(521,192,cs,{
"Letterink-NibData" = {
AngleInDegrees = 180;
};
}),
(510,104,o),
(444,68,o),
(317,64,cs,{
"Letterink-NibData" = {
AngleInDegrees = 270;
};
}),
(283,63,o),
(240,65,o),
(203,71,c),
(275,642,l,{
"Letterink-NibData" = {
AngleInDegrees = 270;
};
}),
(193,642,l,{
"Letterink-NibData" = {
AngleInDegrees = 180;
};
}),
(114,2,l,{
"Letterink-NibData" = {
AngleInDegrees = 96.54629;
};
}),
(176,-5,ls,{
"Letterink-NibData" = {
AngleInDegrees = 96.70984;
};
}),
(197,-7,o),
(263,-10,o),
(302,-10,cs,{
"Letterink-NibData" = {
AngleInDegrees = 90;
};
})
);
}
);
width = 649;
},
{
anchors = (
{
name = bottom;
pos = (276,0);
},
{
name = center;
pos = (312,363);
},
{
name = top;
pos = (349,684);
}
);
hints = (
{
name = _corner.caps_left;
origin = (0,18);
type = Corner;
}
);
layerId = "49C16FD3-6177-408B-A733-AEB3898BB77C";
shapes = (
{
closed = 1;
nodes = (
(433,-9,o),
(546,42,o),
(563,179,cs),
(572,253,o),
(541,315,o),
(475,348,cs,{
"Letterink-NibData" = {
AngleInDegrees = 305.53768;
};
}),
(465,353,o),
(442,361,o),
(416,366,c,{
"Letterink-NibData" = {
AngleInDegrees = 75.67728;
};
}),
(448,373,o),
(465,377,o),
(499,397,cs,{
"Letterink-NibData" = {
AngleInDegrees = 53.1301;
};
}),
(532,416,o),
(564,452,o),
(571,513,cs),
(585,632,o),
(507,684,o),
(403,684,cs,{
"Letterink-NibData" = {
AngleInDegrees = 270;
};
}),
(182,684,l,{
"Letterink-NibData" = {
AngleInDegrees = 180;
};
}),
(182,648,l,{
"Letterink-NibData" = {
AngleInDegrees = 90;
};
}),
(416,648,l,{
"Letterink-NibData" = {
AngleInDegrees = 93.81407;
};
}),
(507,641,o),
(543,599,o),
(533,521,cs,{
"Letterink-NibData" = {
AngleInDegrees = 180;
};
}),
(521,426,o),
(443,382,o),
(356,382,cs,{
"Letterink-NibData" = {
AngleInDegrees = 270;
};
}),
(171,382,l,{
"Letterink-NibData" = {
AngleInDegrees = 180;
};
}),
(166,346,l,{
"Letterink-NibData" = {
AngleInDegrees = 90;
};
}),
(360,346,ls,{
"Letterink-NibData" = {
AngleInDegrees = 90;
};
}),
(480,346,o),
(536,272,o),
(525,183,cs,{
"Letterink-NibData" = {
AngleInDegrees = 180;
};
}),
(512,79,o),
(421,26,o),
(304,26,cs,{
"Letterink-NibData" = {
AngleInDegrees = 270;
};
}),
(297,26,o),
(187,26,o),
(139,32,c),
(216,654,l,{
"Letterink-NibData" = {
AngleInDegrees = 270;
};
}),
(175,654,l,{
"Letterink-NibData" = {
AngleInDegrees = 90;
};
}),
(99,3,l,{
"Letterink-NibData" = {
AngleInDegrees = 98.65254;
};
}),
(141,-4,ls,{
"Letterink-NibData" = {
AngleInDegrees = 99.21103;
};
}),
(180,-11,o),
(284,-9,o),
(292,-9,cs,{
"Letterink-NibData" = {
AngleInDegrees = 90;
};
})
);
}
);
width = 616;
},
{
anchors = (
{
name = bottom;
pos = (377,-2);
},
{
name = center;
pos = (421,356);
},
{
name = top;
pos = (456,684);
}
);
hints = (
{
name = _corner.caps_left;
origin = (0,18);
type = Corner;
}
);
layerId = m004;
shapes = (
{
closed = 1;
nodes = (
(585,18,o),
(656,89,o),
(668,187,cs),
(676,250,o),
(647,316,o),
(603,340,cs),
(576,355,o),
(562,360,o),
(538,364,c,{
"Letterink-NibData" = {
AngleInDegrees = 77.90524;
};
}),
(573,368,o),
(590,370,o),
(612,381,cs,{
"Letterink-NibData" = {
AngleInDegrees = "63.90458";
};
}),
(668,409,o),
(680,455,o),
(686,500,cs),
(699,601,o),
(620,686,o),
(487,686,cs,{
"Letterink-NibData" = {
AngleInDegrees = "270";
};
}),
(220,686,l,{
"Letterink-NibData" = {
AngleInDegrees = "180";
};
}),
(219,537,l),
(470,538,ls,{
"Letterink-NibData" = {
AngleInDegrees = "90";
};
}),
(510,538,o),
(525,517,o),
(521,487,cs,{
"Letterink-NibData" = {
AngleInDegrees = "180";
};
}),
(517,455,o),
(495,424,o),
(461,424,cs,{
"Letterink-NibData" = {
AngleInDegrees = "269.3338";
};
}),
(339,424,l,{
"Letterink-NibData" = {
AngleInDegrees = "180.77422";
};
}),
(322,289,l,{
"Letterink-NibData" = {
AngleInDegrees = "90";
};
}),
(442,289,ls,{
"Letterink-NibData" = {
AngleInDegrees = "90";
};
}),
(490,289,o),
(522,262,o),
(517,219,cs,{
"Letterink-NibData" = {
AngleInDegrees = "180";
};
}),
(510,162,o),
(466,132,o),
(389,132,cs,{
"Letterink-NibData" = {
AngleInDegrees = "270";
};
}),
(369,132,o),
(355,132,o),
(331,136,c),
(385,551,l,{
"Letterink-NibData" = {
AngleInDegrees = "90";
};
}),
(220,552,l),
(153,6,l,{
"Letterink-NibData" = {
AngleInDegrees = 96.4416;
};
}),
(207,-1,ls,{
"Letterink-NibData" = {
AngleInDegrees = "96.65443";
};
}),
(298,-13,o),
(408,-20,o),
(478,-5,cs,{
"Letterink-NibData" = {
AngleInDegrees = "90";
};
})
);
}
);
width = 705;
}
);
metricLeft = E;
unicode = 66;
userData = {
position = 514;
width = 59;
};
},
{
glyphname = B.ss01;
kernLeft = L;
kernRight = B;
layers = (
{
anchors = (
{
name = bottom;
pos = (253,0);
},
{
name = center;
pos = (308,370);
},
{
name = top;
pos = (337,684);
}
);
layerId = "0CAF3BED-C4AC-4024-B3E1-4C69D1EF7EC0";
shapes = (
{
closed = 1;
nodes = (
(424,-10,o),
(523,61,o),
(539,186,cs),
(549,262,o),
(522,317,o),
(474,346,cs,{
"Letterink-NibData" = {
AngleInDegrees = 300.96376;
};
}),
(449,361,o),
(419,368,o),
(409,369,c,{
"Letterink-NibData" = {
AngleInDegrees = 71.56505;
};
}),
(425,372,o),
(446,374,o),
(468,383,cs,{
"Letterink-NibData" = {
AngleInDegrees = 63.43495;
};
}),
(515,402,o),
(541,451,o),
(548,507,cs),
(561,615,o),
(488,684,o),
(360,684,cs,{
"Letterink-NibData" = {
AngleInDegrees = 270;
};
}),
(136,684,l,{
"Letterink-NibData" = {
AngleInDegrees = 180;
};
}),
(126,606,l,{
"Letterink-NibData" = {
AngleInDegrees = 90;
};
}),
(355,606,l,{
"Letterink-NibData" = {
AngleInDegrees = 93.91825;
};
}),
(438,601,o),
(474,570,o),
(467,512,cs,{
"Letterink-NibData" = {
AngleInDegrees = 180;
};
}),
(459,445,o),
(402,401,o),
(324,401,cs,{
"Letterink-NibData" = {
AngleInDegrees = 270;
};
}),
(141,401,l,{
"Letterink-NibData" = {
AngleInDegrees = 180;
};
}),
(132,325,l,{
"Letterink-NibData" = {
AngleInDegrees = 90;
};
}),
(326,324,ls,{
"Letterink-NibData" = {
AngleInDegrees = 90;
};
}),
(419,324,o),
(469,275,o),
(459,192,cs,{
"Letterink-NibData" = {
AngleInDegrees = 180;
};
}),
(448,104,o),
(382,68,o),
(255,64,cs,{
"Letterink-NibData" = {
AngleInDegrees = 270;
};
}),
(221,63,o),
(178,65,o),
(141,71,c),
(213,642,l,{
"Letterink-NibData" = {
AngleInDegrees = 270;
};
}),
(131,642,l,{
"Letterink-NibData" = {
AngleInDegrees = 180;
};
}),
(52,2,l,{
"Letterink-NibData" = {
AngleInDegrees = 96.54629;
};
}),
(114,-5,ls,{
"Letterink-NibData" = {
AngleInDegrees = 96.70984;
};
}),
(135,-7,o),
(201,-10,o),
(240,-10,cs,{
"Letterink-NibData" = {
AngleInDegrees = 90;
};
})
);
}
);
width = 587;
},
{
anchors = (
{
name = bottom;
pos = (244,0);
},
{
name = center;
pos = (283,363);
},
{
name = top;
pos = (328,684);
}
);
layerId = "49C16FD3-6177-408B-A733-AEB3898BB77C";
shapes = (
{
closed = 1;
nodes = (
(413,-9,o),
(508,57,o),
(523,175,cs),
(533,255,o),
(500,316,o),
(445,345,cs,{
"Letterink-NibData" = {
AngleInDegrees = 305.53768;
};
}),
(424,356,o),
(399,361,o),
(376,365,c,{
"Letterink-NibData" = {
AngleInDegrees = 75.67728;
};
}),
(405,369,o),
(435,379,o),
(468,402,cs,{
"Letterink-NibData" = {
AngleInDegrees = 53.1301;
};
}),
(505,428,o),
(525,466,o),
(531,514,cs),
(544,618,o),
(475,684,o),
(354,684,cs,{
"Letterink-NibData" = {
AngleInDegrees = 270;
};
}),
(139,684,l,{
"Letterink-NibData" = {
AngleInDegrees = 180;
};
}),
(135,648,l,{
"Letterink-NibData" = {
AngleInDegrees = 90;
};
}),
(367,648,l,{
"Letterink-NibData" = {
AngleInDegrees = 93.81407;
};
}),
(460,641,o),
(502,597,o),
(493,522,cs,{
"Letterink-NibData" = {
AngleInDegrees = 180;
};
}),
(483,436,o),
(414,382,o),
(316,382,cs,{
"Letterink-NibData" = {
AngleInDegrees = 270;
};
}),
(135,382,l,{
"Letterink-NibData" = {
AngleInDegrees = 180;
};
}),
(131,347,l,{
"Letterink-NibData" = {
AngleInDegrees = 90;
};
}),
(320,347,ls,{
"Letterink-NibData" = {
AngleInDegrees = 90;
};
}),
(430,347,o),
(497,277,o),
(485,181,cs,{
"Letterink-NibData" = {
AngleInDegrees = 180;
};
}),
(470,64,o),
(389,26,o),
(235,26,cs,{
"Letterink-NibData" = {
AngleInDegrees = 270;
};
}),
(201,26,o),
(125,29,o),
(99,32,c),
(176,654,l,{
"Letterink-NibData" = {
AngleInDegrees = 270;
};
}),
(135,654,l,{
"Letterink-NibData" = {
AngleInDegrees = 90;
};
}),
(56,3,l,{
"Letterink-NibData" = {
AngleInDegrees = 98.65254;
};
}),
(101,-4,ls,{
"Letterink-NibData" = {
AngleInDegrees = 99.21103;
};
}),
(140,-10,o),
(262,-9,o),
(279,-9,cs,{
"Letterink-NibData" = {
AngleInDegrees = 90;
};
})
);
}
);
width = 576;
},
{
anchors = (
{
name = bottom;
pos = (261,0);
},
{
name = center;
pos = (305,356);
},
{
name = top;
pos = (345,684);
}
);
layerId = m004;
shapes = (
{
closed = 1;
nodes = (
(469,18,o),
(540,89,o),
(552,187,cs),
(560,250,o),
(531,315,o),
(487,339,cs),
(460,354,o),
(446,360,o),
(422,364,c,{
"Letterink-NibData" = {
AngleInDegrees = 77.90524;
};
}),
(457,368,o),
(474,375,o),
(496,386,cs,{
"Letterink-NibData" = {
AngleInDegrees = "63.90458";
};
}),
(552,414,o),
(564,467,o),
(570,512,cs),
(583,613,o),
(504,686,o),
(371,686,cs,{
"Letterink-NibData" = {
AngleInDegrees = "270";
};
}),
(120,686,l,{
"Letterink-NibData" = {
AngleInDegrees = "180";
};
}),
(102,535,l),
(359,536,ls,{
"Letterink-NibData" = {
AngleInDegrees = "90";
};
}),
(390,536,o),
(409,517,o),
(405,486,cs,{
"Letterink-NibData" = {
AngleInDegrees = "180";
};
}),
(401,455,o),
(380,424,o),
(345,424,cs,{
"Letterink-NibData" = {
AngleInDegrees = "269.3338";
};
}),
(223,424,l,{
"Letterink-NibData" = {
AngleInDegrees = "180.77422";
};
}),
(206,289,l,{
"Letterink-NibData" = {
AngleInDegrees = "90";
};
}),
(326,289,ls,{
"Letterink-NibData" = {
AngleInDegrees = "90";
};
}),
(374,289,o),
(406,262,o),
(401,219,cs,{
"Letterink-NibData" = {
AngleInDegrees = "180";
};
}),
(394,162,o),
(350,132,o),
(273,132,cs,{
"Letterink-NibData" = {
AngleInDegrees = "270";
};
}),
(253,132,o),
(239,132,o),
(215,136,c),
(269,551,l,{
"Letterink-NibData" = {
AngleInDegrees = "90";
};
}),
(104,552,l),
(37,6,l,{
"Letterink-NibData" = {
AngleInDegrees = 96.4416;
};
}),
(91,-1,ls,{
"Letterink-NibData" = {
AngleInDegrees = "96.65443";
};
}),
(182,-13,o),
(292,-20,o),
(362,-5,cs,{
"Letterink-NibData" = {
AngleInDegrees = "90";
};
})
);
}
);
width = 589;
}
);
metricLeft = N.ss01;
metricRight = B;
userData = {
position = 494;
width = 59;
};
},
{
glyphname = B.swsh;
kernLeft = Swash;
kernRight = B;
layers = (
{
anchors = (
{
name = bottom;
pos = (367,0);
},
{
name = center;
pos = (422,369);
},
{
name = top;
pos = (451,684);
}
);
background = {
hints = (
{
name = _corner.caps_swash;
origin = (0,18);
type = Corner;
}
);
shapes = (
{
closed = 1;
nodes = (
(591,-10,o),
(670,76,o),
(670,187,cs),
(670,254,o),
(642,306,o),
(603,335,cs,{
"Letterink-NibData" = {
AngleInDegrees = 306.46923;
};
}),
(580,352,o),
(541,363,o),
(518,363,c,{
"Letterink-NibData" = {
AngleInDegrees = 78.69007;
};
}),
(538,367,o),
(564,368,o),
(591,393,cs,{
"Letterink-NibData" = {
AngleInDegrees = 47.91084;
};
}),
(622,421,o),
(639,458,o),
(639,506,cs),
(639,621,o),
(550,685,o),
(431,685,cs,{
"Letterink-NibData" = {
AngleInDegrees = 270;
};
}),
(195,685,l,{
"Letterink-NibData" = {
AngleInDegrees = 180;
};
}),
(195,609,l,{
"Letterink-NibData" = {
AngleInDegrees = 90;
};
}),
(444,609,ls,{
"Letterink-NibData" = {
AngleInDegrees = 90;
};
}),
(514,609,o),
(557,571,o),
(557,509,cs,{
"Letterink-NibData" = {
AngleInDegrees = 180;
};
}),
(557,434,o),
(504,401,o),
(430,401,cs,{
"Letterink-NibData" = {
AngleInDegrees = 270;
};
}),
(343,401,l,{
"Letterink-NibData" = {
AngleInDegrees = 180;
};
}),
(343,324,l,{
"Letterink-NibData" = {
AngleInDegrees = 90;
};
}),
(437,324,ls,{
"Letterink-NibData" = {
AngleInDegrees = 90;
};
}),
(518,324,o),
(588,278,o),
(588,191,cs,{
"Letterink-NibData" = {
AngleInDegrees = 180;
};
}),
(588,97,o),
(524,66,o),
(408,66,cs,{
"Letterink-NibData" = {
AngleInDegrees = 270;
};
}),
(389,66,o),
(378,67,o),
(296,71,c),
(296,561,l,{
"Letterink-NibData" = {
AngleInDegrees = 270;
};
}),
(214,561,l,{
"Letterink-NibData" = {
AngleInDegrees = 180;
};
}),
(214,2,l,{
"Letterink-NibData" = {
AngleInDegrees = 96.34019;
};
}),
(277,-5,ls,{
"Letterink-NibData" = {
AngleInDegrees = 97.12502;
};
}),
(301,-8,o),
(355,-10,o),
(402,-10,cs,{
"Letterink-NibData" = {
AngleInDegrees = 90;
};
})
);
}
);
};
hints = (
{
name = _corner.caps_swash;
options = 1;
origin = (0,18);
type = Corner;
}
);
layerId = "0CAF3BED-C4AC-4024-B3E1-4C69D1EF7EC0";
shapes = (
{
closed = 1;
nodes = (
(538,-10,o),
(637,61,o),
(653,186,cs),
(663,262,o),
(636,317,o),
(592,343,cs,{
"Letterink-NibData" = {
AngleInDegrees = "300.96376";
};
}),
(565,359,o),
(533,369,o),
(523,369,c,{
"Letterink-NibData" = {
AngleInDegrees = "71.56505";
};
}),
(539,373,o),
(560,374,o),
(583,384,cs,{
"Letterink-NibData" = {
AngleInDegrees = "63.43495";
};
}),
(629,404,o),
(655,451,o),
(662,507,cs),
(675,615,o),
(602,684,o),
(474,684,cs,{
"Letterink-NibData" = {
AngleInDegrees = "270";
};
}),
(230,684,l,{
"Letterink-NibData" = {
AngleInDegrees = "180";
};
}),
(231,608,l,{
"Letterink-NibData" = {
AngleInDegrees = "90";
};
}),
(469,608,l,{
"Letterink-NibData" = {
AngleInDegrees = "93.91825";
};
}),
(552,608,o),
(588,570,o),
(581,512,cs,{
"Letterink-NibData" = {
AngleInDegrees = "180";
};
}),
(573,445,o),
(516,401,o),
(438,401,cs,{
"Letterink-NibData" = {
AngleInDegrees = "270";
};
}),
(345,401,l,{
"Letterink-NibData" = {
AngleInDegrees = "180";
};
}),
(336,325,l,{
"Letterink-NibData" = {
AngleInDegrees = "90";
};
}),
(440,324,ls,{
"Letterink-NibData" = {
AngleInDegrees = "90";
};
}),
(532,323,o),
(583,275,o),
(573,197,cs,{
"Letterink-NibData" = {
AngleInDegrees = "180";
};
}),
(562,114,o),
(496,64,o),
(365,64,cs,{
"Letterink-NibData" = {
AngleInDegrees = "270";
};
}),
(335,64,o),
(292,65,o),
(255,71,c),
(317,560,l,{
"Letterink-NibData" = {
AngleInDegrees = "270";
};
}),
(235,560,l,{
"Letterink-NibData" = {
AngleInDegrees = "180";
};
}),
(166,2,l,{
"Letterink-NibData" = {
AngleInDegrees = "96.54629";
};
}),
(228,-5,ls,{
"Letterink-NibData" = {
AngleInDegrees = "96.70984";
};
}),
(249,-7,o),
(315,-10,o),
(354,-10,cs,{
"Letterink-NibData" = {
AngleInDegrees = "90";
};
})
);
}
);
width = 701;
},
{
anchors = (
{
name = bottom;
pos = (300,0);
},
{
name = center;
pos = (363,367);
},
{
name = top;
pos = (384,684);
}
);
background = {
hints = (
{
name = _corner.caps_swash;
origin = (0,18);
type = Corner;
}
);
shapes = (
{
closed = 1;
nodes = (
(544,-9,o),
(638,47,o),
(638,178,cs),
(638,266,o),
(596,319,o),
(532,351,cs,{
"Letterink-NibData" = {
AngleInDegrees = 296.56505;
};
}),
(524,355,o),
(493,362,o),
(478,365,c,{
"Letterink-NibData" = {
AngleInDegrees = 80.83765;
};
}),
(509,370,o),
(527,380,o),
(529,381,cs,{
"Letterink-NibData" = {
AngleInDegrees = 63.43495;
};
}),
(579,406,o),
(607,452,o),
(607,514,cs),
(607,620,o),
(516,685,o),
(409,685,cs,{
"Letterink-NibData" = {
AngleInDegrees = 270;
};
}),
(171,685,l,{
"Letterink-NibData" = {
AngleInDegrees = 180;
};
}),
(171,645,l,{
"Letterink-NibData" = {
AngleInDegrees = 90;
};
}),
(423,645,l,{
"Letterink-NibData" = {
AngleInDegrees = 93.40644;
};
}),
(507,640,o),
(564,593,o),
(564,517,cs,{
"Letterink-NibData" = {
AngleInDegrees = 180;
};
}),
(564,425,o),
(494,383,o),
(408,383,cs,{
"Letterink-NibData" = {
AngleInDegrees = 270;
};
}),
(326,383,l,{
"Letterink-NibData" = {
AngleInDegrees = 180;
};
}),
(326,345,l,{
"Letterink-NibData" = {
AngleInDegrees = 90;
};
}),
(415,345,ls,{
"Letterink-NibData" = {
AngleInDegrees = 90;
};
}),
(510,345,o),
(596,289,o),
(596,182,cs,{
"Letterink-NibData" = {
AngleInDegrees = 180;
};
}),
(596,78,o),
(516,29,o),
(383,29,cs,{
"Letterink-NibData" = {
AngleInDegrees = 270;
};
}),
(365,29,o),
(320,31,o),
(244,34,c),
(244,591,l,{
"Letterink-NibData" = {
AngleInDegrees = 270;
};
}),
(202,591,l,{
"Letterink-NibData" = {
AngleInDegrees = 180;
};
}),
(202,1,l,{
"Letterink-NibData" = {
AngleInDegrees = 94.96974;
};
}),
(248,-3,ls,{
"Letterink-NibData" = {
AngleInDegrees = 94.92711;
};
}),
(306,-8,o),
(333,-9,o),
(363,-9,cs,{
"Letterink-NibData" = {
AngleInDegrees = 90;
};
})
);
}
);
};
hints = (
{
name = _corner.caps_swash;
options = 1;
origin = (0,18);
type = Corner;
}
);
layerId = "49C16FD3-6177-408B-A733-AEB3898BB77C";
shapes = (
{
closed = 1;
nodes = (
(507,-9,o),
(602,57,o),
(617,175,cs),
(627,255,o),
(594,319,o),
(538,347,cs,{
"Letterink-NibData" = {
AngleInDegrees = "305.53768";
};
}),
(518,357,o),
(494,365,o),
(470,369,c,{
"Letterink-NibData" = {
AngleInDegrees = "75.67728";
};
}),
(500,376,o),
(530,383,o),
(563,407,cs,{
"Letterink-NibData" = {
AngleInDegrees = "53.1301";
};
}),
(600,434,o),
(619,466,o),
(625,514,cs),
(638,618,o),
(569,684,o),
(448,684,cs,{
"Letterink-NibData" = {
AngleInDegrees = "270";
};
}),
(220,684,l,{
"Letterink-NibData" = {
AngleInDegrees = "180";
};
}),
(219,648,l,{
"Letterink-NibData" = {
AngleInDegrees = "90";
};
}),
(461,648,l,{
"Letterink-NibData" = {
AngleInDegrees = "93.81407";
};
}),
(554,641,o),
(596,597,o),
(587,522,cs,{
"Letterink-NibData" = {
AngleInDegrees = "180";
};
}),
(577,436,o),
(508,382,o),
(410,382,cs,{
"Letterink-NibData" = {
AngleInDegrees = "270";
};
}),
(322,382,l,{
"Letterink-NibData" = {
AngleInDegrees = "180";
};
}),
(318,347,l,{
"Letterink-NibData" = {
AngleInDegrees = "90";
};
}),
(414,347,ls,{
"Letterink-NibData" = {
AngleInDegrees = "90";
};
}),
(516,347,o),
(591,281,o),
(580,185,cs,{
"Letterink-NibData" = {
AngleInDegrees = "180";
};
}),
(568,77,o),
(483,26,o),
(347,26,cs,{
"Letterink-NibData" = {
AngleInDegrees = "270";
};
}),
(296,26,o),
(219,29,o),
(193,32,c),
(263,597,l,{
"Letterink-NibData" = {
AngleInDegrees = "270";
};
}),
(222,597,l,{
"Letterink-NibData" = {
AngleInDegrees = "179.91332";
};
}),
(150,3,l,{
"Letterink-NibData" = {
AngleInDegrees = "98.65254";
};
}),
(195,-4,ls,{
"Letterink-NibData" = {
AngleInDegrees = 99.21103;
};
}),
(234,-10,o),
(356,-9,o),
(373,-9,cs,{
"Letterink-NibData" = {
AngleInDegrees = "90";
};
})
);
}
);
width = 670;
},
{
anchors = (
{
name = bottom;
pos = (404,0);
},
{
name = center;
pos = (448,355);
},
{
name = top;
pos = (488,684);
}
);
hints = (
{
name = _corner.caps_swash;
options = 1;
origin = (0,18);
type = Corner;
}
);
layerId = m004;
shapes = (
{
closed = 1;
nodes = (
(636,18,o),
(707,89,o),
(719,187,cs),
(727,250,o),
(702,315,o),
(658,339,cs),
(631,354,o),
(613,360,o),
(589,364,c,{
"Letterink-NibData" = {
AngleInDegrees = 77.90524;
};
}),
(624,368,o),
(641,375,o),
(663,386,cs,{
"Letterink-NibData" = {
AngleInDegrees = "63.90458";
};
}),
(719,414,o),
(731,467,o),
(737,512,cs),
(750,613,o),
(671,686,o),
(538,686,cs,{
"Letterink-NibData" = {
AngleInDegrees = "270";
};
}),
(263,686,l,{
"Letterink-NibData" = {
AngleInDegrees = "180";
};
}),
(263,538,l),
(526,538,ls,{
"Letterink-NibData" = {
AngleInDegrees = "90";
};
}),
(561,538,o),
(576,517,o),
(573,493,cs,{
"Letterink-NibData" = {
AngleInDegrees = "180";
};
}),
(568,455,o),
(551,424,o),
(512,424,cs,{
"Letterink-NibData" = {
AngleInDegrees = "269.3338";
};
}),
(460,424,l,{
"Letterink-NibData" = {
AngleInDegrees = "180.77422";
};
}),
(443,289,l,{
"Letterink-NibData" = {
AngleInDegrees = "90";
};
}),
(493,289,ls,{
"Letterink-NibData" = {
AngleInDegrees = "90";
};
}),
(541,289,o),
(573,262,o),
(568,219,cs,{
"Letterink-NibData" = {
AngleInDegrees = "180";
};
}),
(561,162,o),
(517,132,o),
(440,132,cs,{
"Letterink-NibData" = {
AngleInDegrees = "270";
};
}),
(420,132,o),
(406,132,o),
(382,136,c),
(429,498,l,{
"Letterink-NibData" = {
AngleInDegrees = "90";
};
}),
(264,499,l),
(204,6,l,{
"Letterink-NibData" = {
AngleInDegrees = 96.4416;
};
}),
(258,-1,ls,{
"Letterink-NibData" = {
AngleInDegrees = "96.65443";
};
}),
(349,-13,o),
(459,-20,o),
(529,-5,cs,{
"Letterink-NibData" = {
AngleInDegrees = "90";
};
})
);
}
);
width = 756;
}
);
metricLeft = E.swsh;
userData = {
position = 514;
width = 59;
};
},
{
glyphname = C;
kernLeft = O;
kernRight = C;
layers = (
{
anchors = (
{
name = bottom;
pos = (334,-5);
},
{
name = top;
pos = (446,689);
}
);
background = {
shapes = (
{
closed = 1;
nodes = (
(449,-19,o),
(557,31,o),
(622,119,c),
(561,161,l),
(513,97,o),
(429,55,o),
(334,55,cs),
(184,55,o),
(91,171,o),
(111,334,cs),
(132,509,o),
(257,627,o),
(420,627,cs),
(515,627,o),
(578,590,o),
(572,538,cs),
(569,513,o),
(554,496,o),
(537,496,cs),
(532,496,o),
(525,497,o),
(521,500,c),
(474,444,l),
(492,430,o),
(513,422,o),
(535,422,cs),
(590,422,o),
(638,470,o),
(645,532,cs),
(656,631,o),
(565,703,o),
(424,703,cs),
(220,703,o),
(58,555,o),
(32,341,cs),
(7,134,o),
(132,-19,o),
(334,-19,cs)
);
}
);
};
layerId = "0CAF3BED-C4AC-4024-B3E1-4C69D1EF7EC0";
shapes = (
{
closed = 1;
nodes = (
(468,-21,o),
(579,30,o),
(640,117,c),
(582,156,l),
(534,92,o),
(450,53,o),
(360,55,cs),
(206,56,o),
(111,176,o),
(132,341,cs),
(152,510,o),
(287,628,o),
(440,626,cs),
(532,625,o),
(597,584,o),
(590,527,cs),
(588,509,o),
(580,494,o),
(563,494,cs),
(554,494,o),
(548,498,o),
(542,503,c),
(494,449,l),
(509,430,o),
(531,422,o),
(555,422,cs),
(612,421,o),
(658,470,o),
(664,528,cs),
(676,626,o),
(576,698,o),
(446,700,cs),
(242,703,o),
(76,545,o),
(51,336,cs),
(26,136,o),
(151,-17,o),
(351,-19,cs)
);
}
);
width = 692;
},
{
anchors = (
{
name = bottom;
pos = (359,-4);
},
{
name = top;
pos = (448,688);
}
);
background = {
shapes = (
{
closed = 1;
nodes = (
(586,-14,o),
(728,131,o),
(728,331,cs),
(728,350,ls),
(728,550,o),
(580,702,o),
(386,702,cs,{
"Letterink-NibData" = {
AngleInDegrees = "270";
};
}),
(192,702,o),
(46,551,o),
(46,350,cs,{
"Letterink-NibData" = {
AngleInDegrees = "180";
};
}),
(46,331,ls,{
"Letterink-NibData" = {
AngleInDegrees = "180";
};
}),
(46,133,o),
(193,-14,o),
(390,-14,cs,{
"Letterink-NibData" = {
AngleInDegrees = "90";
};
})
);
},
{
closed = 1;
nodes = (
(216,24,o),
(88,156,o),
(88,331,cs),
(88,350,ls),
(88,526,o),
(217,662,o),
(385,662,cs,{
"Letterink-NibData" = {
AngleInDegrees = "90";
};
}),
(554,662,o),
(686,526,o),
(686,350,cs,{
"Letterink-NibData" = {
AngleInDegrees = "180";
};
}),
(686,331,ls,{
"Letterink-NibData" = {
AngleInDegrees = "180";
};
}),
(686,156,o),
(557,24,o),
(387,24,cs,{
"Letterink-NibData" = {
AngleInDegrees = "270";
};
})
);
}
);
};
layerId = "49C16FD3-6177-408B-A733-AEB3898BB77C";
shapes = (
{
closed = 1;
nodes = (
(479,-10,o),
(591,47,o),
(639,122,c),
(611,140,l),
(568,77,o),
(469,28,o),
(363,28,cs),
(193,28,o),
(76,149,o),
(98,327,cs),
(123,531,o),
(279,661,o),
(445,661,cs),
(538,661,o),
(640,622,o),
(631,542,cs),
(627,517,o),
(610,483,o),
(579,483,cs),
(570,483,o),
(556,486,o),
(547,494,c),
(525,466,l),
(540,453,o),
(558,447,o),
(574,447,cs),
(620,447,o),
(662,485,o),
(669,542,cs),
(677,613,o),
(608,697,o),
(450,697,cs),
(249,697,o),
(84,554,o),
(56,327,cs),
(32,127,o),
(160,-10,o),
(359,-10,cs)
);
}
);
width = 697;
},
{
anchors = (
{
name = bottom;
pos = (389,-29);
},
{
name = top;
pos = (389,723);
}
);
associatedMasterId = "49C16FD3-6177-408B-A733-AEB3898BB77C";
layerId = "9A6A7639-79A9-4EC5-AE88-1E69E535A513";
name = "3 Jan 22, 15:02";
shapes = (
{
closed = 1;
nodes = (
(509,-22,o),
(612,20,o),
(681,118,c,{
"Letterink-NibData" = {
AngleInDegrees = 307.18471;
};
}),
(652,140,l,{
"Letterink-NibData" = {
AngleInDegrees = 215.75389;
};
}),
(598,65,o),
(505,18,o),
(406,18,cs,{
"Letterink-NibData" = {
AngleInDegrees = 270;
};
}),
(231,18,o),
(107,167,o),
(107,335,cs),
(107,508,o),
(240,665,o),
(410,665,cs,{
"Letterink-NibData" = {
AngleInDegrees = 90;
};
}),
(493,665,o),
(600,637,o),
(600,558,cs,{
"Letterink-NibData" = {
AngleInDegrees = 180;
};
}),
(600,531,o),
(587,510,o),
(564,510,cs,{
"Letterink-NibData" = {
AngleInDegrees = 270;
};
}),
(556,510,o),
(541,515,o),
(534,522,c,{
"Letterink-NibData" = {
AngleInDegrees = 217.99873;
};
}),
(509,490,l,{
"Letterink-NibData" = {
AngleInDegrees = 132.27369;
};
}),
(520,480,o),
(545,472,o),
(561,472,cs,{
"Letterink-NibData" = {
AngleInDegrees = 90;
};
}),
(608,472,o),
(640,510,o),
(640,562,cs),
(640,661,o),
(522,706,o),
(418,706,cs,{
"Letterink-NibData" = {
AngleInDegrees = 270;
};
}),
(216,706,o),
(65,535,o),
(65,335,cs,{
"Letterink-NibData" = {
AngleInDegrees = 180;
};
}),
(65,140,o),
(209,-22,o),
(407,-22,cs,{
"Letterink-NibData" = {
AngleInDegrees = 90;
};
})
);
}
);
width = 744;
},
{
anchors = (
{
name = bottom;
pos = (392,-9);
},
{
name = top;
pos = (392,703);
}
);
associatedMasterId = "0CAF3BED-C4AC-4024-B3E1-4C69D1EF7EC0";
layerId = "354B442F-650F-4F84-82F8-D7A6B1A052DE";
name = "3 Jan 22, 15:22";
shapes = (
{
closed = 1;
nodes = (
(538,-19,o),
(642,45,o),
(689,146,c,{
"Letterink-NibData" = {
AngleInDegrees = 296.92768;
};
}),
(626,178,l,{
"Letterink-NibData" = {
AngleInDegrees = 204.38637;
};
}),
(592,103,o),
(503,52,o),
(406,52,cs,{
"Letterink-NibData" = {
AngleInDegrees = 270;
};
}),
(255,52,o),
(140,178,o),
(140,340,cs),
(140,509,o),
(264,632,o),
(404,632,cs,{
"Letterink-NibData" = {
AngleInDegrees = 90;
};
}),
(463,632,o),
(567,610,o),
(567,547,cs,{
"Letterink-NibData" = {
AngleInDegrees = 180;
};
}),
(567,530,o),
(559,517,o),
(543,517,cs,{
"Letterink-NibData" = {
AngleInDegrees = 270;
};
}),
(531,517,o),
(518,525,o),
(511,534,c,{
"Letterink-NibData" = {
AngleInDegrees = 218.25442;
};
}),
(470,482,l,{
"Letterink-NibData" = {
AngleInDegrees = 143.53076;
};
}),
(487,459,o),
(513,445,o),
(543,445,cs,{
"Letterink-NibData" = {
AngleInDegrees = 90;
};
}),
(596,445,o),
(642,490,o),
(642,551,cs),
(642,642,o),
(537,706,o),
(409,706,cs,{
"Letterink-NibData" = {
AngleInDegrees = 270;
};
}),
(202,706,o),
(58,539,o),
(58,341,cs,{
"Letterink-NibData" = {
AngleInDegrees = 180;
};
}),
(58,147,o),
(195,-26,o),
(409,-22,cs,{
"Letterink-NibData" = {
AngleInDegrees = 88.66778;
};
})
);
}
);
width = 742;
},
{
anchors = (
{
name = bottom;
pos = (392,-29);
},
{
name = top;
pos = (392,723);
}
);
associatedMasterId = "49C16FD3-6177-408B-A733-AEB3898BB77C";
background = {
shapes = (
{
closed = 1;
nodes = (
(512,-22,o),
(615,20,o),
(684,118,c),
(655,140,l),
(601,65,o),
(508,18,o),
(409,18,cs),
(234,18,o),
(110,167,o),
(110,335,cs),
(110,508,o),
(243,665,o),
(413,665,cs),
(496,665,o),
(603,637,o),
(603,558,cs),
(603,531,o),
(590,510,o),
(567,510,cs),
(559,510,o),
(544,515,o),
(537,522,c),
(512,490,l),
(523,480,o),
(548,472,o),
(564,472,cs),
(611,472,o),
(643,510,o),
(643,562,cs),
(643,661,o),
(525,706,o),
(421,706,cs),
(219,706,o),
(68,535,o),
(68,335,cs),
(68,140,o),
(212,-22,o),
(410,-22,cs)
);
}
);
};
layerId = "4473E775-5B50-49F8-862E-9DFFC95B4874";
name = "5 Jan 22, 07:44";
shapes = (
{
attr = {
strokeHeight = 38;
strokeWidth = 42;
};
closed = 0;
nodes = (
(520,484,l,{
"Letterink-NibData" = {
AngleInDegrees = 116.56505;
};
}),
(530,479,o),
(540,477,o),
(551,477,cs,{
"Letterink-NibData" = {
AngleInDegrees = 91.50744;
};
}),
(589,476,o),
(615,516,o),
(615,556,cs),
(615,630,o),
(521,690,o),
(397,684,cs,{
"Letterink-NibData" = {
AngleInDegrees = 267.08916;
};
}),
(220,675,o),
(86,532,o),
(86,330,cs,{
"Letterink-NibData" = {
AngleInDegrees = 180;
};
}),
(86,136,o),
(221,0,o),
(411,0,cs,{
"Letterink-NibData" = {
AngleInDegrees = 90;
};
}),
(509,0,o),
(604,52,o),
(650,130,c,{
"Letterink-NibData" = {
AngleInDegrees = 30.52971;
};
})
);
}
);
width = 731;
},
{
anchors = (
{
name = bottom;
pos = (370,-10);
},
{
name = top;
pos = (440,699);
}
);
background = {
shapes = (
{
closed = 1;
nodes = (
(601,-25,o),
(747,126,o),
(747,326,cs),
(747,355,ls),
(747,548,o),
(595,702,o),
(405,702,cs,{
"Letterink-NibData" = {
AngleInDegrees = "270";
};
}),
(215,702,o),
(64,548,o),
(64,355,cs,{
"Letterink-NibData" = {
AngleInDegrees = "180";
};
}),
(64,326,ls,{
"Letterink-NibData" = {
AngleInDegrees = "180";
};
}),
(64,126,o),
(208,-19,o),
(409,-22,cs,{
"Letterink-NibData" = {
AngleInDegrees = 90.89517;
};
})
);
},
{
closed = 1;
nodes = (
(258,54,o),
(146,170,o),
(146,326,cs),
(146,355,ls),
(146,504,o),
(260,626,o),
(404,626,cs,{
"Letterink-NibData" = {
AngleInDegrees = "90";
};
}),
(550,626,o),
(665,504,o),
(665,355,cs,{
"Letterink-NibData" = {
AngleInDegrees = "180";
};
}),
(665,326,ls,{
"Letterink-NibData" = {
AngleInDegrees = "180";
};
}),
(665,170,o),
(553,54,o),
(406,54,cs,{
"Letterink-NibData" = {
AngleInDegrees = "270";
};
})
);
}
);
};
layerId = m004;
shapes = (
{
closed = 1;
nodes = (
(492,-27,o),
(603,24,o),
(670,118,c),
(548,199,l),
(516,154,o),
(443,121,o),
(368,121,cs),
(252,121,o),
(186,214,o),
(201,329,cs),
(219,467,o),
(317,565,o),
(438,565,cs),
(515,565,o),
(564,536,o),
(558,500,cs),
(556,488,o),
(549,480,o),
(539,480,cs),
(538,480,o),
(535,480,o),
(533,482,c),
(442,383,l),
(458,358,o),
(496,338,o),
(544,338,cs),
(627,338,o),
(695,396,o),
(705,479,cs),
(721,610,o),
(602,713,o),
(435,713,cs),
(232,713,o),
(65,559,o),
(38,345,cs),
(11,134,o),
(152,-27,o),
(368,-27,cs)
);
}
);
width = 710;
},
{
anchors = (
{
name = bottom;
pos = (378,-9);
},
{
name = top;
pos = (378,703);
}
);
associatedMasterId = m004;
layerId = "1D3C4DC7-3234-4807-8E35-E7EE46E86FD4";
name = "3 Jan 22, 15:22";
shapes = (
{
closed = 1;
nodes = (
(524,-19,o),
(628,45,o),
(675,146,c,{
"Letterink-NibData" = {
AngleInDegrees = 296.92768;
};
}),
(612,178,l,{
"Letterink-NibData" = {
AngleInDegrees = 204.38637;
};
}),
(578,103,o),
(489,52,o),
(392,52,cs,{
"Letterink-NibData" = {
AngleInDegrees = 270;
};
}),
(241,52,o),
(126,178,o),
(126,340,cs),
(126,509,o),
(250,632,o),
(390,632,cs,{
"Letterink-NibData" = {
AngleInDegrees = 90;
};
}),
(449,632,o),
(553,610,o),
(553,547,cs,{
"Letterink-NibData" = {
AngleInDegrees = 180;
};
}),
(553,530,o),
(545,517,o),
(529,517,cs,{
"Letterink-NibData" = {
AngleInDegrees = 270;
};
}),
(517,517,o),
(504,525,o),
(497,534,c,{
"Letterink-NibData" = {
AngleInDegrees = 218.25442;
};
}),
(456,482,l,{
"Letterink-NibData" = {
AngleInDegrees = 143.53076;
};
}),
(473,459,o),
(499,445,o),
(529,445,cs,{
"Letterink-NibData" = {
AngleInDegrees = 90;
};
}),
(582,445,o),
(628,490,o),
(628,551,cs),
(628,642,o),
(523,706,o),
(395,706,cs,{
"Letterink-NibData" = {
AngleInDegrees = 270;
};
}),
(188,706,o),
(44,539,o),
(44,341,cs,{
"Letterink-NibData" = {
AngleInDegrees = 180;
};
}),
(44,147,o),
(181,-26,o),
(395,-22,cs,{
"Letterink-NibData" = {
AngleInDegrees = 88.66778;
};
})
);
}
);
width = 715;
},
{
anchors = (
{
name = bottom;
pos = (410,0);
},
{
name = top;
pos = (402,684);
}
);
associatedMasterId = m004;
background = {
shapes = (
{
closed = 1;
nodes = (
(594,-25,o),
(740,126,o),
(740,326,cs),
(740,355,ls),
(740,548,o),
(588,702,o),
(398,702,cs,{
"Letterink-NibData" = {
AngleInDegrees = "270";
};
}),
(208,702,o),
(57,548,o),
(57,355,cs,{
"Letterink-NibData" = {
AngleInDegrees = "180";
};
}),
(57,326,ls,{
"Letterink-NibData" = {
AngleInDegrees = "180";
};
}),
(57,126,o),
(201,-19,o),
(402,-22,cs,{
"Letterink-NibData" = {
AngleInDegrees = 90.89517;
};
})
);
},
{
closed = 1;
nodes = (
(251,54,o),
(139,170,o),
(139,326,cs),
(139,355,ls),
(139,504,o),
(253,626,o),
(397,626,cs,{
"Letterink-NibData" = {
AngleInDegrees = "90";
};
}),
(543,626,o),
(658,504,o),
(658,355,cs,{
"Letterink-NibData" = {
AngleInDegrees = "180";
};
}),
(658,326,ls,{
"Letterink-NibData" = {
AngleInDegrees = "180";
};
}),
(658,170,o),
(546,54,o),
(399,54,cs,{
"Letterink-NibData" = {
AngleInDegrees = "270";
};
})
);
}
);
};
layerId = "C056148C-2549-4511-9EFE-DD576A128247";
name = "19 Jan 22, 08:49";
shapes = (
{
closed = 0;
nodes = (
(487,430,l,{
"Letterink-NibData" = {
AngleInDegrees = -45;
MainAxisWidth = 118;
MinorAxisWidth = -15;
ValidForParentMainAxisWidth = 30;
ValidForParentMinorAxisWidth = 15;
};
"Letterink-NibStyleId" = "8";
}),
(507,410,o),
(529,408,o),
(545,408,cs,{
"Letterink-NibData" = {
AngleInDegrees = -45;
MainAxisWidth = 118;
MinorAxisWidth = -15;
ValidForParentMainAxisWidth = 30;
ValidForParentMinorAxisWidth = 15;
};
"Letterink-NibStyleId" = "8";
}),
(587,408,o),
(620,452,o),
(620,500,cs,{
"Letterink-NibData" = {
AngleInDegrees = -45;
MainAxisWidth = 118;
MinorAxisWidth = -15;
ValidForParentMainAxisWidth = 30;
ValidForParentMinorAxisWidth = 15;
};
"Letterink-NibStyleId" = "8";
}),
(620,568,o),
(521,639,o),
(411,639,cs,{
"Letterink-NibData" = {
AngleInDegrees = -45;
MainAxisWidth = 118;
MinorAxisWidth = -15;
ValidForParentMainAxisWidth = 30;
ValidForParentMinorAxisWidth = 15;
};
"Letterink-NibStyleId" = "8";
}),
(250,639,o),
(126,519,o),
(126,331,cs,{
"Letterink-NibData" = {
AngleInDegrees = -45;
MainAxisWidth = 135;
MinorAxisWidth = -15;
ValidForParentMainAxisWidth = 30;
ValidForParentMinorAxisWidth = 15;
};
"Letterink-NibStyleId" = "8";
}),
(126,164,o),
(249,47,o),
(419,47,cs,{
"Letterink-NibData" = {
AngleInDegrees = -45;
MainAxisWidth = 118;
MinorAxisWidth = -15;
ValidForParentMainAxisWidth = 30;
ValidForParentMinorAxisWidth = 15;
};
"Letterink-NibStyleId" = "8";
}),
(508,47,o),
(592,90,o),
(633,159,c,{
"Letterink-NibData" = {
AngleInDegrees = -45;
MainAxisWidth = 118;
MinorAxisWidth = -15;
ValidForParentMainAxisWidth = 30;
ValidForParentMinorAxisWidth = 15;
};
"Letterink-NibStyleId" = "8";
})
);
}
);
userData = {
"Letterink-ComputationAllowed" = YES;
};
width = 740;
},
{
anchors = (
{
name = bottom;
pos = (368,-4);
},
{
name = top;
pos = (454,688);
}
);
associatedMasterId = "49C16FD3-6177-408B-A733-AEB3898BB77C";
background = {
shapes = (
{
closed = 1;
nodes = (
(614,-14,o),
(756,131,o),
(756,331,cs),
(756,350,ls),
(756,550,o),
(608,702,o),
(414,702,cs,{
"Letterink-NibData" = {
AngleInDegrees = "270";
};
}),
(220,702,o),
(74,551,o),
(74,350,cs,{
"Letterink-NibData" = {
AngleInDegrees = "180";
};
}),
(74,331,ls,{
"Letterink-NibData" = {
AngleInDegrees = "180";
};
}),
(74,133,o),
(221,-14,o),
(418,-14,cs,{
"Letterink-NibData" = {
AngleInDegrees = "90";
};
})
);
},
{
closed = 1;
nodes = (
(244,24,o),
(116,156,o),
(116,331,cs),
(116,350,ls),
(116,526,o),
(245,662,o),
(413,662,cs,{
"Letterink-NibData" = {
AngleInDegrees = "90";
};
}),
(582,662,o),
(714,526,o),
(714,350,cs,{
"Letterink-NibData" = {
AngleInDegrees = "180";
};
}),
(714,331,ls,{
"Letterink-NibData" = {
AngleInDegrees = "180";
};
}),
(714,156,o),
(585,24,o),
(415,24,cs,{
"Letterink-NibData" = {
AngleInDegrees = "270";
};
})
);
}
);
};
layerId = "7052980D-25B5-49A7-B456-115102202310";
name = "Apr 30, 24 at 09:52";
shapes = (
{
closed = 1;
nodes = (
(486,-10,o),
(597,46,o),
(653,129,c),
(625,149,l),
(574,77,o),
(474,26,o),
(367,26,cs),
(195,26,o),
(78,147,o),
(100,325,cs),
(125,531,o),
(276,663,o),
(453,663,cs),
(546,663,o),
(649,624,o),
(639,544,cs),
(636,519,o),
(616,483,o),
(584,483,cs),
(575,483,o),
(561,484,o),
(552,492,c),
(529,465,l),
(545,453,o),
(564,447,o),
(582,447,cs),
(627,447,o),
(667,484,o),
(674,540,cs),
(683,613,o),
(613,699,o),
(454,699,cs),
(260,699,o),
(90,556,o),
(62,329,cs),
(37,128,o),
(167,-10,o),
(367,-10,cs)
);
}
);
width = 715;
},
{
anchors = (
{
name = bottom;
pos = (368,-4);
},
{
name = top;
pos = (454,688);
}
);
associatedMasterId = "49C16FD3-6177-408B-A733-AEB3898BB77C";
background = {
shapes = (
{
closed = 1;
nodes = (
(614,-14,o),
(756,131,o),
(756,331,cs),
(756,350,ls),
(756,550,o),
(608,702,o),
(414,702,cs,{
"Letterink-NibData" = {
AngleInDegrees = "270";
};
}),
(220,702,o),
(74,551,o),
(74,350,cs,{
"Letterink-NibData" = {
AngleInDegrees = "180";
};
}),
(74,331,ls,{
"Letterink-NibData" = {
AngleInDegrees = "180";
};
}),
(74,133,o),
(221,-14,o),
(418,-14,cs,{
"Letterink-NibData" = {
AngleInDegrees = "90";
};
})
);
},
{
closed = 1;
nodes = (
(244,24,o),
(116,156,o),
(116,331,cs),
(116,350,ls),
(116,526,o),
(245,662,o),
(413,662,cs,{
"Letterink-NibData" = {
AngleInDegrees = "90";
};
}),
(582,662,o),
(714,526,o),
(714,350,cs,{
"Letterink-NibData" = {
AngleInDegrees = "180";
};
}),
(714,331,ls,{
"Letterink-NibData" = {
AngleInDegrees = "180";
};
}),
(714,156,o),
(585,24,o),
(415,24,cs,{
"Letterink-NibData" = {
AngleInDegrees = "270";
};
})
);
}
);
};
layerId = "F9E2FDA7-DFED-407A-95A9-D052FC4ADF0E";
name = "Apr 30, 24 at 09:52";
shapes = (
{
closed = 1;
nodes = (
(486,-10,o),
(597,46,o),
(653,129,c),
(625,149,l),
(574,77,o),
(474,26,o),
(367,26,cs),
(195,26,o),
(78,147,o),
(100,325,cs),
(125,531,o),
(276,663,o),
(453,663,cs),
(546,663,o),
(649,624,o),
(639,544,cs),
(636,519,o),
(616,483,o),
(584,483,cs),
(575,483,o),
(561,484,o),
(552,492,c),
(529,465,l),
(545,453,o),
(564,447,o),
(582,447,cs),
(627,447,o),
(667,484,o),
(674,540,cs),
(683,613,o),
(613,699,o),
(454,699,cs),
(260,699,o),
(90,556,o),
(62,329,cs),
(37,128,o),
(167,-10,o),
(367,-10,cs)
);
}
);
width = 715;
},
{
anchors = (
{
name = bottom;
pos = (358,-5);
},
{
name = top;
pos = (443,689);
}
);
associatedMasterId = "0CAF3BED-C4AC-4024-B3E1-4C69D1EF7EC0";
background = {
shapes = (
{
closed = 1;
nodes = (
(472,-19,o),
(580,31,o),
(645,119,c),
(584,161,l),
(536,97,o),
(452,55,o),
(357,55,cs),
(207,55,o),
(114,171,o),
(134,334,cs),
(155,509,o),
(280,627,o),
(443,627,cs),
(538,627,o),
(601,590,o),
(595,538,cs),
(592,513,o),
(577,496,o),
(560,496,cs),
(555,496,o),
(548,497,o),
(544,500,c),
(497,444,l),
(515,430,o),
(536,422,o),
(558,422,cs),
(613,422,o),
(661,470,o),
(668,532,cs),
(679,631,o),
(588,703,o),
(447,703,cs),
(243,703,o),
(81,555,o),
(55,341,cs),
(30,134,o),
(155,-19,o),
(357,-19,cs)
);
}
);
};
layerId = "2A5425EE-874A-495C-AFAC-1BA333179395";
name = "Apr 30, 24 at 09:53";
shapes = (
{
closed = 1;
nodes = (
(472,-19,o),
(580,31,o),
(645,119,c),
(584,161,l),
(536,97,o),
(452,55,o),
(357,55,cs),
(207,55,o),
(114,171,o),
(134,334,cs),
(155,509,o),
(280,627,o),
(443,627,cs),
(538,627,o),
(601,590,o),
(595,538,cs),
(592,513,o),
(577,496,o),
(560,496,cs),
(555,496,o),
(548,497,o),
(544,500,c),
(497,444,l),
(515,430,o),
(536,422,o),
(558,422,cs),
(613,422,o),
(661,470,o),
(668,532,cs),
(679,631,o),
(588,703,o),
(447,703,cs),
(243,703,o),
(81,555,o),
(55,341,cs),
(30,134,o),
(155,-19,o),
(357,-19,cs)
);
}
);
width = 701;
}
);
metricLeft = O;
metricRight = "=O*.9";
unicode = 67;
userData = {
position = 570;
width = 54;
};
},
{
glyphname = C.ss01;
kernLeft = O;
kernRight = C;
layers = (
{
anchors = (
{
name = bottom;
pos = (354,-6);
},
{
name = top;
pos = (436,689);
}
);
background = {
shapes = (
{
closed = 1;
nodes = (
(597,-25,o),
(743,126,o),
(743,326,cs),
(743,355,ls),
(743,548,o),
(591,702,o),
(401,702,cs,{
"Letterink-NibData" = {
AngleInDegrees = "270";
};
}),
(211,702,o),
(60,548,o),
(60,355,cs,{
"Letterink-NibData" = {
AngleInDegrees = "180";
};
}),
(60,326,ls,{
"Letterink-NibData" = {
AngleInDegrees = "180";
};
}),
(60,126,o),
(204,-19,o),
(405,-22,cs,{
"Letterink-NibData" = {
AngleInDegrees = 90.89517;
};
})
);
},
{
closed = 1;
nodes = (
(254,54,o),
(142,170,o),
(142,326,cs),
(142,355,ls),
(142,504,o),
(256,626,o),
(400,626,cs,{
"Letterink-NibData" = {
AngleInDegrees = "90";
};
}),
(546,626,o),
(661,504,o),
(661,355,cs,{
"Letterink-NibData" = {
AngleInDegrees = "180";
};
}),
(661,326,ls,{
"Letterink-NibData" = {
AngleInDegrees = "180";
};
}),
(661,170,o),
(549,54,o),
(402,54,cs,{
"Letterink-NibData" = {
AngleInDegrees = "270";
};
})
);
}
);
};
layerId = "0CAF3BED-C4AC-4024-B3E1-4C69D1EF7EC0";
shapes = (
{
closed = 1;
nodes = (
(470,-21,o),
(580,28,o),
(642,118,c),
(582,160,l),
(536,95,o),
(455,53,o),
(360,53,cs),
(214,53,o),
(109,163,o),
(130,331,cs),
(151,503,o),
(280,629,o),
(441,629,cs),
(549,629,o),
(602,572,o),
(617,514,c),
(685,529,l),
(669,623,o),
(577,703,o),
(437,703,cs),
(248,703,o),
(77,556,o),
(51,340,cs),
(24,118,o),
(158,-21,o),
(357,-21,cs)
);
}
);
width = 694;
},
{
anchors = (
{
name = bottom;
pos = (346,-2);
},
{
name = top;
pos = (431,685);
}
);
background = {
anchors = (
{
name = bottom;
pos = (391,-27);
},
{
name = top;
pos = (391,721);
}
);
shapes = (
{
attr = {
strokeHeight = 38;
strokeWidth = 42;
};
closed = 0;
nodes = (
(627,537,l,{
"Letterink-NibData" = {
AngleInDegrees = 356.78451;
};
}),
(622,626,o),
(524,691,o),
(400,685,cs,{
"Letterink-NibData" = {
AngleInDegrees = 267.08916;
};
}),
(223,676,o),
(88,532,o),
(88,330,cs,{
"Letterink-NibData" = {
AngleInDegrees = 180;
};
}),
(88,136,o),
(223,0,o),
(413,0,cs,{
"Letterink-NibData" = {
AngleInDegrees = 90;
};
}),
(511,0,o),
(606,52,o),
(652,130,c,{
"Letterink-NibData" = {
AngleInDegrees = 30.52971;
};
})
);
}
);
};
layerId = "49C16FD3-6177-408B-A733-AEB3898BB77C";
shapes = (
{
closed = 1;
nodes = (
(468,-12,o),
(574,35,o),
(638,123,c),
(608,143,l),
(554,68,o),
(465,26,o),
(358,26,cs),
(195,26,o),
(76,137,o),
(100,334,cs),
(123,526,o),
(279,658,o),
(435,658,cs),
(564,658,o),
(634,594,o),
(647,523,c),
(682,530,l),
(667,625,o),
(576,696,o),
(437,696,cs),
(251,696,o),
(85,549,o),
(58,338,cs),
(31,124,o),
(167,-12,o),
(355,-12,cs)
);
}
);
width = 696;
},
{
anchors = (
{
name = bottom;
pos = (385,-27);
},
{
name = top;
pos = (385,721);
}
);
associatedMasterId = "49C16FD3-6177-408B-A733-AEB3898BB77C";
layerId = "5C147D22-45CB-49AC-8F59-80A6CB628E42";
name = "3 Jan 22, 15:09";
shapes = (
{
closed = 1;
nodes = (
(512,-20,o),
(610,31,o),
(670,119,c,{
"Letterink-NibData" = {
AngleInDegrees = 304.07719;
};
}),
(636,142,l,{
"Letterink-NibData" = {
AngleInDegrees = 214.03213;
};
}),
(584,65,o),
(496,20,o),
(400,20,cs,{
"Letterink-NibData" = {
AngleInDegrees = 270;
};
}),
(229,20,o),
(107,159,o),
(107,331,cs),
(107,497,o),
(228,669,o),
(410,669,cs,{
"Letterink-NibData" = {
AngleInDegrees = 90;
};
}),
(509,669,o),
(590,618,o),
(596,552,c,{
"Letterink-NibData" = {
AngleInDegrees = 90;
};
}),
(637,552,l,{
"Letterink-NibData" = {
AngleInDegrees = 355.69553;
};
}),
(630,645,o),
(539,709,o),
(415,709,cs,{
"Letterink-NibData" = {
AngleInDegrees = 270;
};
}),
(211,709,o),
(65,535,o),
(65,334,cs,{
"Letterink-NibData" = {
AngleInDegrees = 180;
};
}),
(65,132,o),
(205,-20,o),
(401,-20,cs,{
"Letterink-NibData" = {
AngleInDegrees = 90;
};
})
);
}
);
width = 733;
},
{
anchors = (
{
name = bottom;
pos = (380,-7);
},
{
name = top;
pos = (380,701);
}
);
associatedMasterId = "0CAF3BED-C4AC-4024-B3E1-4C69D1EF7EC0";
layerId = "F3AD09C8-78E5-4679-83B5-5B942013D0D4";
name = "3 Jan 22, 15:21";
shapes = (
{
closed = 1;
nodes = (
(516,-17,o),
(620,40,o),
(682,139,c,{
"Letterink-NibData" = {
AngleInDegrees = 304.31509;
};
}),
(619,182,l,{
"Letterink-NibData" = {
AngleInDegrees = 211.07166;
};
}),
(572,104,o),
(492,59,o),
(397,59,cs,{
"Letterink-NibData" = {
AngleInDegrees = 270;
};
}),
(244,59,o),
(137,176,o),
(137,324,cs),
(137,494,o),
(252,631,o),
(395,631,cs,{
"Letterink-NibData" = {
AngleInDegrees = 90;
};
}),
(495,631,o),
(573,582,o),
(570,520,c,{
"Letterink-NibData" = {
AngleInDegrees = 90;
};
}),
(649,520,l,{
"Letterink-NibData" = {
AngleInDegrees = 1.06091;
};
}),
(651,628,o),
(546,707,o),
(400,707,cs,{
"Letterink-NibData" = {
AngleInDegrees = 270;
};
}),
(211,707,o),
(57,538,o),
(57,327,cs,{
"Letterink-NibData" = {
AngleInDegrees = 180;
};
}),
(57,132,o),
(201,-17,o),
(396,-17,cs,{
"Letterink-NibData" = {
AngleInDegrees = 90;
};
})
);
}
);
width = 736;
},
{
anchors = (
{
name = bottom;
pos = (389,-27);
},
{
name = top;
pos = (389,721);
}
);
associatedMasterId = "49C16FD3-6177-408B-A733-AEB3898BB77C";
layerId = "60C93F8E-5478-4CF7-8F44-AF3ED9540F66";
name = "5 Jan 22, 07:47";
shapes = (
{
attr = {
strokeHeight = 38;
strokeWidth = 42;
};
closed = 0;
nodes = (
(625,537,l,{
"Letterink-NibData" = {
AngleInDegrees = 356.78451;
};
}),
(620,626,o),
(522,691,o),
(398,685,cs,{
"Letterink-NibData" = {
AngleInDegrees = 267.08916;
};
}),
(221,676,o),
(86,532,o),
(86,330,cs,{
"Letterink-NibData" = {
AngleInDegrees = 180;
};
}),
(86,136,o),
(221,0,o),
(411,0,cs,{
"Letterink-NibData" = {
AngleInDegrees = 90;
};
}),
(509,0,o),
(604,52,o),
(650,130,c,{
"Letterink-NibData" = {
AngleInDegrees = 30.52971;
};
})
);
}
);
width = 731;
},
{
anchors = (
{
name = bottom;
pos = (379,-7);
},
{
name = top;
pos = (379,701);
}
);
associatedMasterId = "0CAF3BED-C4AC-4024-B3E1-4C69D1EF7EC0";
layerId = "E3615987-2AFD-4696-A41C-F6163A2589A7";
name = "5 Jan 22, 07:50";
shapes = (
{
attr = {
strokeHeight = 74;
strokeWidth = 80;
};
closed = 0;
nodes = (
(617,525,ls,{
"Letterink-NibData" = {
AngleInDegrees = 356.63354;
};
}),
(612,610,o),
(519,671,o),
(402,665,cs,{
"Letterink-NibData" = {
AngleInDegrees = 267.02198;
};
}),
(229,656,o),
(97,521,o),
(97,331,cs,{
"Letterink-NibData" = {
AngleInDegrees = 180;
};
}),
(97,148,o),
(227,20,o),
(410,20,cs,{
"Letterink-NibData" = {
AngleInDegrees = 90;
};
}),
(505,20,o),
(596,68,o),
(641,142,c,{
"Letterink-NibData" = {
AngleInDegrees = 31.30412;
};
})
);
}
);
width = 731;
},
{
anchors = (
{
name = bottom;
pos = (358,-12);
},
{
name = top;
pos = (433,696);
}
);
background = {
shapes = (
{
closed = 1;
nodes = (
(606,-25,o),
(752,126,o),
(752,326,cs),
(752,355,ls),
(752,548,o),
(600,702,o),
(410,702,cs,{
"Letterink-NibData" = {
AngleInDegrees = "270";
};
}),
(220,702,o),
(69,548,o),
(69,355,cs,{
"Letterink-NibData" = {
AngleInDegrees = "180";
};
}),
(69,326,ls,{
"Letterink-NibData" = {
AngleInDegrees = "180";
};
}),
(69,126,o),
(213,-19,o),
(414,-22,cs,{
"Letterink-NibData" = {
AngleInDegrees = 90.89517;
};
})
);
},
{
closed = 1;
nodes = (
(263,54,o),
(151,170,o),
(151,326,cs),
(151,355,ls),
(151,504,o),
(265,626,o),
(409,626,cs,{
"Letterink-NibData" = {
AngleInDegrees = "90";
};
}),
(555,626,o),
(670,504,o),
(670,355,cs,{
"Letterink-NibData" = {
AngleInDegrees = "180";
};
}),
(670,326,ls,{
"Letterink-NibData" = {
AngleInDegrees = "180";
};
}),
(670,170,o),
(558,54,o),
(411,54,cs,{
"Letterink-NibData" = {
AngleInDegrees = "270";
};
})
);
}
);
};
layerId = m004;
shapes = (
{
closed = 1;
nodes = (
(477,-28,o),
(590,24,o),
(653,117,c),
(532,199,l),
(499,152,o),
(436,120,o),
(366,120,cs),
(257,120,o),
(185,207,o),
(200,325,cs),
(217,462,o),
(314,565,o),
(424,565,cs),
(495,565,o),
(546,534,o),
(553,484,c),
(696,518,l),
(682,630,o),
(575,713,o),
(429,713,cs),
(231,713,o),
(63,556,o),
(38,349,cs),
(12,134,o),
(149,-28,o),
(359,-28,cs)
);
}
);
width = 693;
},
{
anchors = (
{
name = bottom;
pos = (366,-7);
},
{
name = top;
pos = (366,701);
}
);
associatedMasterId = m004;
layerId = "61EB21C3-3EB3-448C-BA61-69CC21CFBA6E";
name = "3 Jan 22, 15:21";
shapes = (
{
closed = 1;
nodes = (
(502,-17,o),
(606,40,o),
(668,139,c,{
"Letterink-NibData" = {
AngleInDegrees = 304.31509;
};
}),
(605,182,l,{
"Letterink-NibData" = {
AngleInDegrees = 211.07166;
};
}),
(558,104,o),
(478,59,o),
(383,59,cs,{
"Letterink-NibData" = {
AngleInDegrees = 270;
};
}),
(230,59,o),
(123,176,o),
(123,324,cs),
(123,494,o),
(238,631,o),
(381,631,cs,{
"Letterink-NibData" = {
AngleInDegrees = 90;
};
}),
(481,631,o),
(559,582,o),
(556,520,c,{
"Letterink-NibData" = {
AngleInDegrees = 90;
};
}),
(635,520,l,{
"Letterink-NibData" = {
AngleInDegrees = 1.06091;
};
}),
(637,628,o),
(532,707,o),
(386,707,cs,{
"Letterink-NibData" = {
AngleInDegrees = 270;
};
}),
(197,707,o),
(43,538,o),
(43,327,cs,{
"Letterink-NibData" = {
AngleInDegrees = 180;
};
}),
(43,132,o),
(187,-17,o),
(382,-17,cs,{
"Letterink-NibData" = {
AngleInDegrees = 90;
};
})
);
}
);
width = 709;
},
{
anchors = (
{
name = bottom;
pos = (365,-7);
},
{
name = top;
pos = (365,701);
}
);
associatedMasterId = m004;
layerId = "2E6EA62A-4F0C-4C83-906A-4BFA96122663";
name = "5 Jan 22, 07:50";
shapes = (
{
attr = {
strokeHeight = 74;
strokeWidth = 80;
};
closed = 0;
nodes = (
(603,525,ls,{
"Letterink-NibData" = {
AngleInDegrees = 356.63354;
};
}),
(598,610,o),
(505,671,o),
(388,665,cs,{
"Letterink-NibData" = {
AngleInDegrees = 267.02198;
};
}),
(215,656,o),
(83,521,o),
(83,331,cs,{
"Letterink-NibData" = {
AngleInDegrees = 180;
};
}),
(83,148,o),
(213,20,o),
(396,20,cs,{
"Letterink-NibData" = {
AngleInDegrees = 90;
};
}),
(491,20,o),
(582,68,o),
(627,142,c,{
"Letterink-NibData" = {
AngleInDegrees = 31.30412;
};
})
);
}
);
width = 704;
}
);
metricLeft = O;
metricRight = "=O*.9";
userData = {
position = 570;
width = 54;
};
},
{
glyphname = C.swsh;
kernLeft = O;
kernRight = C;
layers = (
{
anchors = (
{
name = bottom;
pos = (361,-8);
},
{
name = top;
pos = (436,691);
}
);
background = {
shapes = (
{
closed = 1;
nodes = (
(596,-25,o),
(742,126,o),
(742,326,cs),
(742,355,ls),
(742,548,o),
(590,702,o),
(400,702,cs,{
"Letterink-NibData" = {
AngleInDegrees = "270";
};
}),
(210,702,o),
(59,548,o),
(59,355,cs,{
"Letterink-NibData" = {
AngleInDegrees = "180";
};
}),
(59,326,ls,{
"Letterink-NibData" = {
AngleInDegrees = "180";
};
}),
(59,126,o),
(203,-19,o),
(404,-22,cs,{
"Letterink-NibData" = {
AngleInDegrees = 90.89517;
};
})
);
},
{
closed = 1;
nodes = (
(253,54,o),
(141,170,o),
(141,326,cs),
(141,355,ls),
(141,504,o),
(255,626,o),
(399,626,cs,{
"Letterink-NibData" = {
AngleInDegrees = "90";
};
}),
(545,626,o),
(660,504,o),
(660,355,cs,{
"Letterink-NibData" = {
AngleInDegrees = "180";
};
}),
(660,326,ls,{
"Letterink-NibData" = {
AngleInDegrees = "180";
};
}),
(660,170,o),
(548,54,o),
(401,54,cs,{
"Letterink-NibData" = {
AngleInDegrees = "270";
};
})
);
}
);
};
layerId = "0CAF3BED-C4AC-4024-B3E1-4C69D1EF7EC0";
shapes = (
{
closed = 1;
nodes = (
(477,-22,o),
(582,30,o),
(645,119,c),
(587,159,l),
(540,92,o),
(459,54,o),
(366,54,cs),
(206,54,o),
(110,167,o),
(130,331,cs),
(151,501,o),
(281,624,o),
(443,624,cs),
(531,624,o),
(598,579,o),
(591,524,cs),
(588,500,o),
(572,483,o),
(553,483,cs),
(534,483,o),
(518,496,o),
(514,516,c),
(440,498,l),
(449,445,o),
(494,407,o),
(550,407,cs),
(613,407,o),
(663,453,o),
(671,520,cs),
(683,624,o),
(589,700,o),
(445,700,cs),
(242,700,o),
(76,548,o),
(51,339,cs),
(26,130,o),
(155,-22,o),
(361,-22,cs)
);
}
);
width = 700;
},
{
anchors = (
{
name = bottom;
pos = (362,-2);
},
{
name = top;
pos = (447,686);
}
);
background = {
shapes = (
{
closed = 1;
nodes = (
(610,-14,o),
(752,131,o),
(752,331,cs),
(752,350,ls),
(752,550,o),
(604,702,o),
(410,702,cs,{
"Letterink-NibData" = {
AngleInDegrees = "270";
};
}),
(216,702,o),
(70,551,o),
(70,350,cs,{
"Letterink-NibData" = {
AngleInDegrees = "180";
};
}),
(70,331,ls,{
"Letterink-NibData" = {
AngleInDegrees = "180";
};
}),
(70,133,o),
(217,-14,o),
(414,-14,cs,{
"Letterink-NibData" = {
AngleInDegrees = "90";
};
})
);
},
{
closed = 1;
nodes = (
(240,24,o),
(112,156,o),
(112,331,cs),
(112,350,ls),
(112,526,o),
(241,662,o),
(409,662,cs,{
"Letterink-NibData" = {
AngleInDegrees = "90";
};
}),
(578,662,o),
(710,526,o),
(710,350,cs,{
"Letterink-NibData" = {
AngleInDegrees = "180";
};
}),
(710,331,ls,{
"Letterink-NibData" = {
AngleInDegrees = "180";
};
}),
(710,156,o),
(581,24,o),
(411,24,cs,{
"Letterink-NibData" = {
AngleInDegrees = "270";
};
})
);
}
);
};
layerId = "49C16FD3-6177-408B-A733-AEB3898BB77C";
shapes = (
{
closed = 1;
nodes = (
(481,-11,o),
(585,39,o),
(647,125,c),
(618,144,l),
(564,68,o),
(472,25,o),
(366,25,cs),
(189,25,o),
(72,152,o),
(96,339,cs),
(119,522,o),
(266,656,o),
(445,656,cs),
(556,656,o),
(640,601,o),
(631,532,cs),
(626,492,o),
(598,464,o),
(563,464,cs),
(528,464,o),
(506,483,o),
(501,517,c),
(467,510,l),
(474,459,o),
(508,428,o),
(562,428,cs),
(614,428,o),
(660,471,o),
(667,528,cs),
(678,618,o),
(579,692,o),
(446,692,cs),
(247,692,o),
(83,544,o),
(58,343,cs),
(32,138,o),
(162,-11,o),
(365,-11,cs)
);
}
);
width = 708;
},
{
anchors = (
{
name = bottom;
pos = (377,0);
},
{
name = top;
pos = (389,684);
}
);
associatedMasterId = "49C16FD3-6177-408B-A733-AEB3898BB77C";
layerId = "3D02E95B-60B1-4244-8F26-D84725EF13C9";
name = "3 Jan 22, 15:07";
shapes = (
{
closed = 1;
nodes = (
(513,-21,o),
(636,33,o),
(686,140,c,{
"Letterink-NibData" = {
AngleInDegrees = 293.55226;
};
}),
(647,157,l,{
"Letterink-NibData" = {
AngleInDegrees = 204.62357;
};
}),
(614,85,o),
(533,18,o),
(396,19,cs,{
"Letterink-NibData" = {
AngleInDegrees = 270.40348;
};
}),
(254,20,o),
(108,149,o),
(108,343,cs),
(108,508,o),
(240,657,o),
(400,657,cs,{
"Letterink-NibData" = {
AngleInDegrees = 90;
};
}),
(481,657,o),
(578,621,o),
(578,548,cs,{
"Letterink-NibData" = {
AngleInDegrees = 180;
};
}),
(578,521,o),
(562,500,o),
(538,500,cs,{
"Letterink-NibData" = {
AngleInDegrees = 270;
};
}),
(525,500,o),
(508,510,o),
(501,523,c,{
"Letterink-NibData" = {
AngleInDegrees = 238.57043;
};
}),
(465,501,l,{
"Letterink-NibData" = {
AngleInDegrees = 149.03624;
};
}),
(483,471,o),
(510,458,o),
(537,458,cs,{
"Letterink-NibData" = {
AngleInDegrees = 90;
};
}),
(579,458,o),
(620,492,o),
(620,546,cs),
(620,639,o),
(512,697,o),
(401,697,cs,{
"Letterink-NibData" = {
AngleInDegrees = 270;
};
}),
(217,697,o),
(66,536,o),
(66,344,cs,{
"Letterink-NibData" = {
AngleInDegrees = 180;
};
}),
(66,159,o),
(197,-21,o),
(397,-21,cs,{
"Letterink-NibData" = {
AngleInDegrees = 90;
};
})
);
}
);
width = 751;
},
{
anchors = (
{
name = bottom;
pos = (383,-9);
},
{
name = top;
pos = (383,703);
}
);
associatedMasterId = "0CAF3BED-C4AC-4024-B3E1-4C69D1EF7EC0";
layerId = "430F94E4-6E0B-477D-BEA9-4D1159DC2E2A";
name = "3 Jan 22, 15:17";
shapes = (
{
closed = 1;
nodes = (
(510,-16,o),
(626,32,o),
(692,139,c,{
"Letterink-NibData" = {
AngleInDegrees = 303.88696;
};
}),
(625,184,l,{
"Letterink-NibData" = {
AngleInDegrees = 210.52971;
};
}),
(579,106,o),
(494,60,o),
(400,60,cs,{
"Letterink-NibData" = {
AngleInDegrees = 270;
};
}),
(248,60,o),
(138,184,o),
(138,337,cs),
(138,493,o),
(256,630,o),
(406,630,cs,{
"Letterink-NibData" = {
AngleInDegrees = 90;
};
}),
(469,630,o),
(563,604,o),
(563,552,cs,{
"Letterink-NibData" = {
AngleInDegrees = 180;
};
}),
(563,539,o),
(553,528,o),
(542,528,cs,{
"Letterink-NibData" = {
AngleInDegrees = 270;
};
}),
(535,528,o),
(525,532,o),
(520,539,c,{
"Letterink-NibData" = {
AngleInDegrees = 218.19868;
};
}),
(472,478,l,{
"Letterink-NibData" = {
AngleInDegrees = 135;
};
}),
(490,460,o),
(518,447,o),
(548,447,cs,{
"Letterink-NibData" = {
AngleInDegrees = 90;
};
}),
(599,447,o),
(643,494,o),
(643,551,cs),
(643,661,o),
(516,706,o),
(405,706,cs,{
"Letterink-NibData" = {
AngleInDegrees = 270;
};
}),
(212,706,o),
(58,536,o),
(58,337,cs,{
"Letterink-NibData" = {
AngleInDegrees = 180;
};
}),
(58,141,o),
(205,-16,o),
(399,-16,cs,{
"Letterink-NibData" = {
AngleInDegrees = 90;
};
})
);
}
);
width = 749;
},
{
anchors = (
{
name = bottom;
pos = (379,0);
},
{
name = top;
pos = (391,684);
}
);
associatedMasterId = "49C16FD3-6177-408B-A733-AEB3898BB77C";
layerId = "BE458C1D-0A4B-40C4-BCF4-9649CDEB98A4";
name = "5 Jan 22, 08:01";
shapes = (
{
attr = {
strokeHeight = 38;
strokeWidth = 42;
};
closed = 0;
nodes = (
(486,527,l,{
"Letterink-NibData" = {
AngleInDegrees = 168.31063;
};
}),
(492,498,o),
(517,478,o),
(551,477,cs,{
"Letterink-NibData" = {
AngleInDegrees = 91.50744;
};
}),
(589,476,o),
(615,516,o),
(615,556,cs),
(615,630,o),
(522,690,o),
(398,684,cs,{
"Letterink-NibData" = {
AngleInDegrees = 267.08916;
};
}),
(221,675,o),
(86,532,o),
(86,330,cs,{
"Letterink-NibData" = {
AngleInDegrees = 180;
};
}),
(86,136,o),
(221,0,o),
(411,0,cs,{
"Letterink-NibData" = {
AngleInDegrees = 90;
};
}),
(509,0,o),
(604,52,o),
(650,130,c,{
"Letterink-NibData" = {
AngleInDegrees = 30.52971;
};
})
);
}
);
width = 735;
},
{
anchors = (
{
name = bottom;
pos = (384,31);
},
{
name = top;
pos = (384,662);
}
);
associatedMasterId = "0CAF3BED-C4AC-4024-B3E1-4C69D1EF7EC0";
layerId = "26DD77D8-93B1-4CFB-A5C5-84AD5242F402";
name = "5 Jan 22, 08:04";
shapes = (
{
attr = {
strokeHeight = 74;
strokeWidth = 80;
};
closed = 0;
nodes = (
(489,519,l,{
"Letterink-NibData" = {
AngleInDegrees = 169.50852;
};
}),
(494,492,o),
(518,472,o),
(547,471,cs,{
"Letterink-NibData" = {
AngleInDegrees = 91.33222;
};
}),
(590,470,o),
(615,508,o),
(615,546,cs),
(615,617,o),
(526,674,o),
(405,669,cs,{
"Letterink-NibData" = {
AngleInDegrees = 267.03906;
};
}),
(231,660,o),
(97,523,o),
(97,334,cs,{
"Letterink-NibData" = {
AngleInDegrees = 180;
};
}),
(97,145,o),
(229,15,o),
(403,15,cs,{
"Letterink-NibData" = {
AngleInDegrees = 90;
};
}),
(508,15,o),
(603,63,o),
(649,140,c,{
"Letterink-NibData" = {
AngleInDegrees = 30.8542;
};
})
);
}
);
width = 742;
},
{
anchors = (
{
name = bottom;
pos = (363,-12);
},
{
name = top;
pos = (444,696);
}
);
background = {
shapes = (
{
closed = 1;
nodes = (
(578,-25,o),
(724,126,o),
(724,326,cs),
(724,355,ls),
(724,548,o),
(572,702,o),
(382,702,cs,{
"Letterink-NibData" = {
AngleInDegrees = "270";
};
}),
(192,702,o),
(41,548,o),
(41,355,cs,{
"Letterink-NibData" = {
AngleInDegrees = "180";
};
}),
(41,326,ls,{
"Letterink-NibData" = {
AngleInDegrees = "180";
};
}),
(41,126,o),
(185,-19,o),
(386,-22,cs,{
"Letterink-NibData" = {
AngleInDegrees = 90.89517;
};
})
);
},
{
closed = 1;
nodes = (
(235,54,o),
(123,170,o),
(123,326,cs),
(123,355,ls),
(123,504,o),
(237,626,o),
(381,626,cs,{
"Letterink-NibData" = {
AngleInDegrees = "90";
};
}),
(527,626,o),
(642,504,o),
(642,355,cs,{
"Letterink-NibData" = {
AngleInDegrees = "180";
};
}),
(642,326,ls,{
"Letterink-NibData" = {
AngleInDegrees = "180";
};
}),
(642,170,o),
(530,54,o),
(383,54,cs,{
"Letterink-NibData" = {
AngleInDegrees = "270";
};
})
);
}
);
};
layerId = m004;
shapes = (
{
closed = 1;
nodes = (
(478,-30,o),
(594,26,o),
(655,117,c),
(539,194,l),
(502,145,o),
(446,119,o),
(378,119,cs),
(257,121,o),
(189,206,o),
(205,334,cs),
(222,471,o),
(317,567,o),
(433,565,cs),
(480,565,o),
(554,543,o),
(551,498,cs),
(551,483,o),
(543,472,o),
(532,472,cs),
(525,472,o),
(519,475,o),
(516,485,c),
(392,449,l),
(395,382,o),
(454,329,o),
(521,328,cs),
(613,327,o),
(688,397,o),
(700,497,cs),
(715,619,o),
(607,712,o),
(444,714,cs),
(238,716,o),
(65,558,o),
(38,344,cs),
(12,134,o),
(148,-26,o),
(356,-28,cs)
);
}
);
width = 697;
},
{
anchors = (
{
name = bottom;
pos = (369,-9);
},
{
name = top;
pos = (369,703);
}
);
associatedMasterId = m004;
layerId = "E1B422B0-C5DA-4EE8-BF30-75EC1E1BD4CA";
name = "3 Jan 22, 15:17";
shapes = (
{
closed = 1;
nodes = (
(496,-16,o),
(612,32,o),
(678,139,c,{
"Letterink-NibData" = {
AngleInDegrees = 303.88696;
};
}),
(611,184,l,{
"Letterink-NibData" = {
AngleInDegrees = 210.52971;
};
}),
(565,106,o),
(480,60,o),
(386,60,cs,{
"Letterink-NibData" = {
AngleInDegrees = 270;
};
}),
(234,60,o),
(124,184,o),
(124,337,cs),
(124,493,o),
(242,630,o),
(392,630,cs,{
"Letterink-NibData" = {
AngleInDegrees = 90;
};
}),
(455,630,o),
(549,604,o),
(549,552,cs,{
"Letterink-NibData" = {
AngleInDegrees = 180;
};
}),
(549,539,o),
(539,528,o),
(528,528,cs,{
"Letterink-NibData" = {
AngleInDegrees = 270;
};
}),
(521,528,o),
(511,532,o),
(506,539,c,{
"Letterink-NibData" = {
AngleInDegrees = 218.19868;
};
}),
(458,478,l,{
"Letterink-NibData" = {
AngleInDegrees = 135;
};
}),
(476,460,o),
(504,447,o),
(534,447,cs,{
"Letterink-NibData" = {
AngleInDegrees = 90;
};
}),
(585,447,o),
(629,494,o),
(629,551,cs),
(629,661,o),
(502,706,o),
(391,706,cs,{
"Letterink-NibData" = {
AngleInDegrees = 270;
};
}),
(198,706,o),
(44,536,o),
(44,337,cs,{
"Letterink-NibData" = {
AngleInDegrees = 180;
};
}),
(44,141,o),
(191,-16,o),
(385,-16,cs,{
"Letterink-NibData" = {
AngleInDegrees = 90;
};
})
);
}
);
width = 721;
},
{
anchors = (
{
name = bottom;
pos = (370,31);
},
{
name = top;
pos = (370,662);
}
);
associatedMasterId = m004;
layerId = "4CF65D10-8B5F-49BE-AA91-F2DD426CB74F";
name = "5 Jan 22, 08:04";
shapes = (
{
attr = {
strokeHeight = 74;
strokeWidth = 80;
};
closed = 0;
nodes = (
(475,519,l,{
"Letterink-NibData" = {
AngleInDegrees = 169.50852;
};
}),
(480,492,o),
(504,472,o),
(533,471,cs,{
"Letterink-NibData" = {
AngleInDegrees = 91.33222;
};
}),
(576,470,o),
(601,508,o),
(601,546,cs),
(601,617,o),
(512,674,o),
(391,669,cs,{
"Letterink-NibData" = {
AngleInDegrees = 267.03906;
};
}),
(217,660,o),
(83,523,o),
(83,334,cs,{
"Letterink-NibData" = {
AngleInDegrees = 180;
};
}),
(83,145,o),
(215,15,o),
(389,15,cs,{
"Letterink-NibData" = {
AngleInDegrees = 90;
};
}),
(494,15,o),
(589,63,o),
(635,140,c,{
"Letterink-NibData" = {
AngleInDegrees = 30.8542;
};
})
);
}
);
width = 714;
}
);
metricLeft = O;
metricRight = "=O*.98";
userData = {
position = 570;
width = 54;
};
},
{
glyphname = D;
kernLeft = E;
kernRight = O;
layers = (
{
anchors = (
{
name = bottom;
pos = (335,-10);
},
{
name = center;
pos = (236,367);
},
{
name = top;
pos = (435,684);
}
);
hints = (
{
name = _corner.caps_left;
origin = (0,6);
type = Corner;
}
);
layerId = "0CAF3BED-C4AC-4024-B3E1-4C69D1EF7EC0";
shapes = (
{
closed = 1;
nodes = (
(541,-10,o),
(700,134,o),
(726,338,cs),
(751,533,o),
(639,684,o),
(437,684,c,{
"Letterink-NibData" = {
AngleInDegrees = 270.21459;
};
}),
(193,685,l,{
"Letterink-NibData" = {
AngleInDegrees = 180;
};
}),
(191,608,l,{
"Letterink-NibData" = {
AngleInDegrees = 90;
};
}),
(431,608,ls,{
"Letterink-NibData" = {
AngleInDegrees = 92.97373;
};
}),
(590,608,o),
(664,503,o),
(644,343,cs,{
"Letterink-NibData" = {
AngleInDegrees = 180;
};
}),
(622,165,o),
(502,65,o),
(308,65,cs,{
"Letterink-NibData" = {
AngleInDegrees = 270;
};
}),
(279,65,o),
(239,67,o),
(198,70,c),
(271,651,l,{
"Letterink-NibData" = {
AngleInDegrees = 270;
};
}),
(189,651,l,{
"Letterink-NibData" = {
AngleInDegrees = 180;
};
}),
(109,1,l,{
"Letterink-NibData" = {
AngleInDegrees = 95.10217;
};
}),
(166,-4,ls,{
"Letterink-NibData" = {
AngleInDegrees = 95.12819;
};
}),
(232,-10,o),
(255,-10,o),
(338,-10,cs,{
"Letterink-NibData" = {
AngleInDegrees = 90;
};
})
);
}
);
width = 755;
},
{
anchors = (
{
name = bottom;
pos = (290,-9);
},
{
name = center;
pos = (181,358);
},
{
name = top;
pos = (392,685);
}
);
hints = (
{
name = _corner.caps_left;
origin = (0,6);
type = Corner;
}
);
layerId = "49C16FD3-6177-408B-A733-AEB3898BB77C";
shapes = (
{
closed = 1;
nodes = (
(530,-9,o),
(680,130,o),
(706,340,cs),
(731,540,o),
(623,683,o),
(418,684,cs,{
"Letterink-NibData" = {
AngleInDegrees = 270.22037;
};
}),
(182,685,l,{
"Letterink-NibData" = {
AngleInDegrees = 180;
};
}),
(182,649,l,{
"Letterink-NibData" = {
AngleInDegrees = 90;
};
}),
(411,649,ls,{
"Letterink-NibData" = {
AngleInDegrees = 93.25195;
};
}),
(598,649,o),
(690,526,o),
(667,341,cs,{
"Letterink-NibData" = {
AngleInDegrees = 180;
};
}),
(642,142,o),
(513,26,o),
(306,26,cs,{
"Letterink-NibData" = {
AngleInDegrees = 270;
};
}),
(242,26,o),
(156,29,o),
(139,31,c),
(216,649,l,{
"Letterink-NibData" = {
AngleInDegrees = 270;
};
}),
(178,649,l,{
"Letterink-NibData" = {
AngleInDegrees = 180;
};
}),
(98,0,l,{
"Letterink-NibData" = {
AngleInDegrees = 94.18492;
};
}),
(138,-3,ls,{
"Letterink-NibData" = {
AngleInDegrees = 94.20536;
};
}),
(204,-8,o),
(248,-9,o),
(328,-9,cs,{
"Letterink-NibData" = {
AngleInDegrees = 90;
};
})
);
}
);
width = 742;
},
{
anchors = (
{
name = bottom;
pos = (409,-2);
},
{
name = center;
pos = (286,353);
},
{
name = top;
pos = (502,684);
}
);
hints = (
{
name = _corner.caps_left;
origin = (0,6);
type = Corner;
}
);
layerId = m004;
shapes = (
{
closed = 1;
nodes = (
(595,-15,o),
(765,131,o),
(791,338,cs),
(815,527,o),
(695,683,o),
(492,684,cs,{
"Letterink-NibData" = {
AngleInDegrees = "270.21459";
};
}),
(216,685,l,{
"Letterink-NibData" = {
AngleInDegrees = "180";
};
}),
(219,537,l,{
"Letterink-NibData" = {
AngleInDegrees = "90";
};
}),
(480,536,ls,{
"Letterink-NibData" = {
AngleInDegrees = "92.97373";
};
}),
(591,536,o),
(641,465,o),
(627,351,cs,{
"Letterink-NibData" = {
AngleInDegrees = "180";
};
}),
(611,221,o),
(526,141,o),
(404,141,cs,{
"Letterink-NibData" = {
AngleInDegrees = "270";
};
}),
(376,141,o),
(358,141,o),
(335,145,c),
(400,655,l,{
"Letterink-NibData" = {
AngleInDegrees = "270";
};
}),
(235,655,l,{
"Letterink-NibData" = {
AngleInDegrees = "180";
};
}),
(156,5,l,{
"Letterink-NibData" = {
AngleInDegrees = "95.10217";
};
}),
(228,-3,ls,{
"Letterink-NibData" = {
AngleInDegrees = "95.12819";
};
}),
(267,-7,o),
(300,-8,o),
(383,-10,cs,{
"Letterink-NibData" = {
AngleInDegrees = "90";
};
})
);
}
);
width = 807;
}
);
metricLeft = E;
metricRight = O;
unicode = 68;
userData = {
position = 674;
width = 60;
};
},
{
glyphname = D.ss01;
kernLeft = L;
kernRight = O;
layers = (
{
anchors = (
{
name = bottom;
pos = (277,-10);
},
{
name = center;
pos = (178,367);
},
{
name = top;
pos = (349,681);
}
);
layerId = "0CAF3BED-C4AC-4024-B3E1-4C69D1EF7EC0";
shapes = (
{
closed = 1;
nodes = (
(483,-10,o),
(642,134,o),
(668,338,cs),
(693,533,o),
(580,684,o),
(390,684,c,{
"Letterink-NibData" = {
AngleInDegrees = 270.21459;
};
}),
(135,685,l,{
"Letterink-NibData" = {
AngleInDegrees = 180;
};
}),
(126,608,l,{
"Letterink-NibData" = {
AngleInDegrees = 90;
};
}),
(373,608,l,{
"Letterink-NibData" = {
AngleInDegrees = 92.97373;
};
}),
(532,608,o),
(606,503,o),
(586,343,cs,{
"Letterink-NibData" = {
AngleInDegrees = 180;
};
}),
(564,165,o),
(444,65,o),
(250,65,cs,{
"Letterink-NibData" = {
AngleInDegrees = 270;
};
}),
(221,65,o),
(181,67,o),
(140,70,c),
(213,651,l,{
"Letterink-NibData" = {
AngleInDegrees = 270;
};
}),
(131,651,l,{
"Letterink-NibData" = {
AngleInDegrees = 180;
};
}),
(51,1,l,{
"Letterink-NibData" = {
AngleInDegrees = 95.10217;
};
}),
(108,-4,ls,{
"Letterink-NibData" = {
AngleInDegrees = 95.12819;
};
}),
(174,-10,o),
(176,-10,o),
(280,-10,cs,{
"Letterink-NibData" = {
AngleInDegrees = 90;
};
})
);
}
);
width = 697;
},
{
anchors = (
{
name = bottom;
pos = (218,-11);
},
{
name = center;
pos = (137,358);
},
{
name = top;
pos = (369,686);
}
);
layerId = "49C16FD3-6177-408B-A733-AEB3898BB77C";
shapes = (
{
closed = 1;
nodes = (
(487,-9,o),
(637,130,o),
(663,340,cs),
(688,540,o),
(579,684,o),
(387,684,c,{
"Letterink-NibData" = {
AngleInDegrees = 270.22037;
};
}),
(139,685,l,{
"Letterink-NibData" = {
AngleInDegrees = 180;
};
}),
(135,649,l,{
"Letterink-NibData" = {
AngleInDegrees = 90;
};
}),
(376,649,l,{
"Letterink-NibData" = {
AngleInDegrees = 93.25195;
};
}),
(553,649,o),
(647,526,o),
(624,341,cs,{
"Letterink-NibData" = {
AngleInDegrees = 180;
};
}),
(599,142,o),
(470,26,o),
(263,26,cs,{
"Letterink-NibData" = {
AngleInDegrees = 270;
};
}),
(199,26,o),
(113,29,o),
(96,31,c),
(173,649,l,{
"Letterink-NibData" = {
AngleInDegrees = 270;
};
}),
(135,649,l,{
"Letterink-NibData" = {
AngleInDegrees = 180;
};
}),
(55,0,l,{
"Letterink-NibData" = {
AngleInDegrees = 94.18492;
};
}),
(95,-3,ls,{
"Letterink-NibData" = {
AngleInDegrees = 94.20536;
};
}),
(161,-8,o),
(205,-9,o),
(285,-9,cs,{
"Letterink-NibData" = {
AngleInDegrees = 90;
};
})
);
}
);
width = 699;
},
{
anchors = (
{
name = bottom;
pos = (258,-10);
},
{
name = center;
pos = (195,360);
},
{
name = top;
pos = (333,686);
}
);
layerId = m004;
shapes = (
{
closed = 1;
nodes = (
(493,-14,o),
(648,147,o),
(672,338,cs),
(695,519,o),
(582,684,o),
(376,684,c,{
"Letterink-NibData" = {
AngleInDegrees = "270.21459";
};
}),
(120,684,l,{
"Letterink-NibData" = {
AngleInDegrees = "180";
};
}),
(101,532,l,{
"Letterink-NibData" = {
AngleInDegrees = "90";
};
}),
(361,532,l,{
"Letterink-NibData" = {
AngleInDegrees = "92.97373";
};
}),
(484,528,o),
(520,452,o),
(508,351,cs,{
"Letterink-NibData" = {
AngleInDegrees = "180";
};
}),
(492,216,o),
(403,141,o),
(285,141,cs,{
"Letterink-NibData" = {
AngleInDegrees = "270";
};
}),
(267,141,o),
(240,140,o),
(216,145,c),
(281,655,l,{
"Letterink-NibData" = {
AngleInDegrees = "270";
};
}),
(116,655,l,{
"Letterink-NibData" = {
AngleInDegrees = "180";
};
}),
(37,5,l,{
"Letterink-NibData" = {
AngleInDegrees = "95.10217";
};
}),
(129,-4,ls,{
"Letterink-NibData" = {
AngleInDegrees = "95.12819";
};
}),
(132,-4,o),
(135,-8,o),
(264,-10,cs,{
"Letterink-NibData" = {
AngleInDegrees = "90";
};
})
);
}
);
width = 688;
}
);
metricLeft = "=|H";
metricRight = O;
userData = {
position = 674;
width = 60;
};
},
{
glyphname = D.swsh;
kernLeft = Swash;
kernRight = O;
layers = (
{
background = {
anchors = (
{
name = bottom;
pos = (438,0);
},
{
name = center;
pos = (463,11);
},
{
name = top;
pos = (463,11);
}
);
hints = (
{
name = _corner.caps_swash;
origin = (0,7);
type = Corner;
}
);
shapes = (
{
closed = 1;
nodes = (
(402,-10,ls,{
"Letterink-NibData" = {
AngleInDegrees = 90;
};
}),
(606,-10,o),
(751,138,o),
(751,342,cs),
(751,532,o),
(624,678,o),
(432,690,c,{
"Letterink-NibData" = {
AngleInDegrees = 270.20033;
};
}),
(176,691,l,{
"Letterink-NibData" = {
AngleInDegrees = 180;
};
}),
(176,615,l,{
"Letterink-NibData" = {
AngleInDegrees = 90;
};
}),
(421,615,l,{
"Letterink-NibData" = {
AngleInDegrees = 93.55173;
};
}),
(566,606,o),
(669,517,o),
(669,342,cs,{
"Letterink-NibData" = {
AngleInDegrees = 180;
};
}),
(669,175,o),
(576,66,o),
(364,66,cs,{
"Letterink-NibData" = {
AngleInDegrees = 270;
};
}),
(337,66,o),
(311,69,o),
(277,71,c),
(277,559,l,{
"Letterink-NibData" = {
AngleInDegrees = 270;
};
}),
(195,559,l,{
"Letterink-NibData" = {
AngleInDegrees = 180;
};
}),
(195,1,l,{
"Letterink-NibData" = {
AngleInDegrees = 95.01311;
};
}),
(252,-4,ls,{
"Letterink-NibData" = {
AngleInDegrees = 94.93922;
};
}),
(321,-10,o),
(320,-10,o),
(362,-10,cs,{
"Letterink-NibData" = {
AngleInDegrees = 90;
};
})
);
}
);
};
hints = (
{
name = _corner.caps_swash;
options = 1;
origin = (0,6);
type = Corner;
}
);
layerId = "0CAF3BED-C4AC-4024-B3E1-4C69D1EF7EC0";
shapes = (
{
closed = 1;
nodes = (
(576,-10,o),
(735,134,o),
(761,338,cs),
(786,533,o),
(673,672,o),
(483,684,c,{
"Letterink-NibData" = {
AngleInDegrees = "270.21459";
};
}),
(218,684,l,{
"Letterink-NibData" = {
AngleInDegrees = "180";
};
}),
(217,608,l,{
"Letterink-NibData" = {
AngleInDegrees = "90";
};
}),
(466,608,l,{
"Letterink-NibData" = {
AngleInDegrees = "92.97373";
};
}),
(622,600,o),
(699,503,o),
(679,343,cs,{
"Letterink-NibData" = {
AngleInDegrees = "180";
};
}),
(657,165,o),
(537,65,o),
(343,65,cs,{
"Letterink-NibData" = {
AngleInDegrees = "270";
};
}),
(314,65,o),
(274,67,o),
(233,70,c),
(295,560,l,{
"Letterink-NibData" = {
AngleInDegrees = "270";
};
}),
(213,560,l,{
"Letterink-NibData" = {
AngleInDegrees = "180";
};
}),
(144,1,l,{
"Letterink-NibData" = {
AngleInDegrees = "95.10217";
};
}),
(201,-4,ls,{
"Letterink-NibData" = {
AngleInDegrees = "95.12819";
};
}),
(267,-10,o),
(269,-10,o),
(373,-10,cs,{
"Letterink-NibData" = {
AngleInDegrees = "90";
};
})
);
}
);
width = 790;
},
{
background = {
anchors = (
{
name = bottom;
pos = (425,0);
},
{
name = center;
pos = (443,-8);
},
{
name = top;
pos = (443,-8);
}
);
hints = (
{
name = _corner.caps_swash;
origin = (0,7);
type = Corner;
}
);
shapes = (
{
closed = 1;
nodes = (
(392,-9,ls,{
"Letterink-NibData" = {
AngleInDegrees = 90;
};
}),
(580,-9,o),
(729,122,o),
(729,342,cs),
(729,535,o),
(614,690,o),
(412,690,c,{
"Letterink-NibData" = {
AngleInDegrees = 270.19689;
};
}),
(151,691,l,{
"Letterink-NibData" = {
AngleInDegrees = 180;
};
}),
(151,651,l,{
"Letterink-NibData" = {
AngleInDegrees = 90;
};
}),
(402,651,l,{
"Letterink-NibData" = {
AngleInDegrees = 90;
};
}),
(565,651,o),
(687,535,o),
(687,349,cs,{
"Letterink-NibData" = {
AngleInDegrees = 180;
};
}),
(687,161,o),
(578,30,o),
(364,30,cs,{
"Letterink-NibData" = {
AngleInDegrees = 270;
};
}),
(341,30,o),
(285,32,o),
(223,35,c),
(223,573,l,{
"Letterink-NibData" = {
AngleInDegrees = 270;
};
}),
(181,573,l,{
"Letterink-NibData" = {
AngleInDegrees = 180;
};
}),
(181,0,l,{
"Letterink-NibData" = {
AngleInDegrees = 94.28915;
};
}),
(221,-3,ls,{
"Letterink-NibData" = {
AngleInDegrees = 93.66779;
};
}),
(300,-9,o),
(309,-9,o),
(348,-9,cs,{
"Letterink-NibData" = {
AngleInDegrees = 90;
};
})
);
}
);
};
hints = (
{
name = _corner.caps_swash;
options = 1;
origin = (0,6);
type = Corner;
}
);
layerId = "49C16FD3-6177-408B-A733-AEB3898BB77C";
shapes = (
{
closed = 1;
nodes = (
(562,-9,o),
(712,130,o),
(738,340,cs),
(763,540,o),
(654,673,o),
(462,685,c,{
"Letterink-NibData" = {
AngleInDegrees = "270.22037";
};
}),
(204,685,l,{
"Letterink-NibData" = {
AngleInDegrees = "180";
};
}),
(203,649,l,{
"Letterink-NibData" = {
AngleInDegrees = "90";
};
}),
(451,649,l,{
"Letterink-NibData" = {
AngleInDegrees = 93.25195;
};
}),
(628,639,o),
(721,525,o),
(699,341,cs,{
"Letterink-NibData" = {
AngleInDegrees = "180";
};
}),
(675,142,o),
(545,26,o),
(338,26,cs,{
"Letterink-NibData" = {
AngleInDegrees = "270";
};
}),
(274,26,o),
(188,29,o),
(171,31,c),
(238,569,l,{
"Letterink-NibData" = {
AngleInDegrees = "270";
};
}),
(200,569,l,{
"Letterink-NibData" = {
AngleInDegrees = "180";
};
}),
(130,0,l,{
"Letterink-NibData" = {
AngleInDegrees = 94.18492;
};
}),
(170,-3,ls,{
"Letterink-NibData" = {
AngleInDegrees = "94.20536";
};
}),
(236,-8,o),
(280,-9,o),
(360,-9,cs,{
"Letterink-NibData" = {
AngleInDegrees = "90";
};
})
);
}
);
width = 774;
},
{
background = {
anchors = (
{
name = bottom;
pos = (528,0);
},
{
name = center;
pos = (553,11);
},
{
name = top;
pos = (553,11);
}
);
hints = (
{
name = _corner.caps_swash;
origin = (0,7);
type = Corner;
}
);
shapes = (
{
closed = 1;
nodes = (
(492,-10,ls,{
"Letterink-NibData" = {
AngleInDegrees = 90;
};
}),
(696,-10,o),
(841,138,o),
(841,342,cs),
(841,532,o),
(714,678,o),
(522,690,c,{
"Letterink-NibData" = {
AngleInDegrees = 270.20033;
};
}),
(266,691,l,{
"Letterink-NibData" = {
AngleInDegrees = 180;
};
}),
(266,615,l,{
"Letterink-NibData" = {
AngleInDegrees = 90;
};
}),
(511,615,l,{
"Letterink-NibData" = {
AngleInDegrees = 93.55173;
};
}),
(656,606,o),
(759,517,o),
(759,342,cs,{
"Letterink-NibData" = {
AngleInDegrees = 180;
};
}),
(759,175,o),
(666,66,o),
(454,66,cs,{
"Letterink-NibData" = {
AngleInDegrees = 270;
};
}),
(427,66,o),
(401,69,o),
(367,71,c),
(367,559,l,{
"Letterink-NibData" = {
AngleInDegrees = 270;
};
}),
(285,559,l,{
"Letterink-NibData" = {
AngleInDegrees = 180;
};
}),
(285,1,l,{
"Letterink-NibData" = {
AngleInDegrees = 95.01311;
};
}),
(342,-4,ls,{
"Letterink-NibData" = {
AngleInDegrees = 94.93922;
};
}),
(411,-10,o),
(410,-10,o),
(452,-10,cs,{
"Letterink-NibData" = {
AngleInDegrees = 90;
};
})
);
}
);
};
hints = (
{
name = _corner.caps_swash;
options = 1;
origin = (0,6);
type = Corner;
}
);
layerId = m004;
shapes = (
{
closed = 1;
nodes = (
(660,-10,o),
(814,147,o),
(837,333,cs),
(860,519,o),
(748,672,o),
(555,684,c,{
"Letterink-NibData" = {
AngleInDegrees = "270.21459";
};
}),
(256,685,l,{
"Letterink-NibData" = {
AngleInDegrees = "180";
};
}),
(258,537,l,{
"Letterink-NibData" = {
AngleInDegrees = "90";
};
}),
(528,537,l,{
"Letterink-NibData" = {
AngleInDegrees = "92.97373";
};
}),
(650,533,o),
(686,452,o),
(674,354,cs,{
"Letterink-NibData" = {
AngleInDegrees = "180";
};
}),
(657,216,o),
(561,141,o),
(448,141,cs,{
"Letterink-NibData" = {
AngleInDegrees = "270";
};
}),
(433,141,o),
(404,143,o),
(382,146,c),
(428,499,l,{
"Letterink-NibData" = {
AngleInDegrees = "270";
};
}),
(263,499,l,{
"Letterink-NibData" = {
AngleInDegrees = "180";
};
}),
(203,5,l,{
"Letterink-NibData" = {
AngleInDegrees = "95.10217";
};
}),
(295,-4,ls,{
"Letterink-NibData" = {
AngleInDegrees = "95.12819";
};
}),
(328,-7,o),
(373,-10,o),
(405,-10,cs,{
"Letterink-NibData" = {
AngleInDegrees = "90";
};
})
);
}
);
width = 854;
}
);
metricLeft = E;
metricRight = O;
userData = {
position = 674;
width = 60;
};
},
{
glyphname = E;
kernLeft = E;
kernRight = E;
layers = (
{
anchors = (
{
name = bottom;
pos = (373,2);
},
{
name = ogonek;
pos = (584,-1);
},
{
name = top;
pos = (418,684);
},
{
name = topleft;
pos = (127,684);
}
);
hints = (
{
name = _corner.caps_left;
origin = (0,10);
type = Corner;
}
);
layerId = "0CAF3BED-C4AC-4024-B3E1-4C69D1EF7EC0";
shapes = (
{
closed = 1;
nodes = (
(584,-1,l),
(593,75,l,{
"Letterink-NibData" = {
AngleInDegrees = "270";
};
}),
(206,75,l),
(237,323,l,{
"Letterink-NibData" = {
AngleInDegrees = "90";
};
}),
(508,323,l),
(517,399,l,{
"Letterink-NibData" = {
AngleInDegrees = "270";
};
}),
(246,399,l),
(272,608,l,{
"Letterink-NibData" = {
AngleInDegrees = "90";
};
}),
(640,608,l),
(649,684,l,{
"Letterink-NibData" = {
AngleInDegrees = "270";
};
}),
(189,684,l,{
"Letterink-NibData" = {
AngleInDegrees = "180";
};
}),
(190,609,l),
(115,-1,l,{
"Letterink-NibData" = {
AngleInDegrees = "90";
};
})
);
}
);
width = 640;
},
{
anchors = (
{
name = bottom;
pos = (306,0);
},
{
name = ogonek;
pos = (525,1);
},
{
name = top;
pos = (397,684);
},
{
name = topleft;
pos = (83,684);
}
);
hints = (
{
name = _corner.caps_left;
origin = (0,10);
type = Corner;
}
);
layerId = "49C16FD3-6177-408B-A733-AEB3898BB77C";
shapes = (
{
closed = 1;
nodes = (
(526,0,l),
(530,36,l,{
"Letterink-NibData" = {
AngleInDegrees = 270;
};
}),
(144,36,l),
(182,346,l,{
"Letterink-NibData" = {
AngleInDegrees = 90;
};
}),
(445,346,l),
(450,382,l,{
"Letterink-NibData" = {
AngleInDegrees = 270;
};
}),
(187,382,l),
(220,648,l,{
"Letterink-NibData" = {
AngleInDegrees = 90;
};
}),
(608,648,l),
(612,684,l,{
"Letterink-NibData" = {
AngleInDegrees = 269.86613;
};
}),
(182,684,l,{
"Letterink-NibData" = {
AngleInDegrees = 180;
};
}),
(182,649,l),
(102,0,l,{
"Letterink-NibData" = {
AngleInDegrees = 90;
};
})
);
}
);
width = 586;
},
{
anchors = (
{
name = bottom;
pos = (412,0);
},
{
name = ogonek;
pos = (615,0);
},
{
name = top;
pos = (459,684);
},
{
name = topleft;
pos = (237,684);
}
);
hints = (
{
name = _corner.caps_left;
origin = (0,10);
type = Corner;
}
);
layerId = m004;
shapes = (
{
closed = 1;
nodes = (
(615,0,l),
(633,148,l,{
"Letterink-NibData" = {
AngleInDegrees = "270";
};
}),
(337,148,l),
(353,273,l,{
"Letterink-NibData" = {
AngleInDegrees = "90";
};
}),
(553,273,l),
(571,421,l,{
"Letterink-NibData" = {
AngleInDegrees = "270";
};
}),
(371,421,l),
(385,536,l,{
"Letterink-NibData" = {
AngleInDegrees = "90";
};
}),
(671,536,l),
(689,684,l,{
"Letterink-NibData" = {
AngleInDegrees = "270";
};
}),
(222,684,l,{
"Letterink-NibData" = {
AngleInDegrees = "180";
};
}),
(219,536,l),
(153,0,l,{
"Letterink-NibData" = {
AngleInDegrees = "90";
};
})
);
}
);
width = 677;
}
);
unicode = 69;
userData = {
position = 130;
width = 61;
};
},
{
glyphname = E.ss01;
kernLeft = L;
kernRight = E;
layers = (
{
anchors = (
{
name = bottom;
pos = (289,0);
},
{
name = ogonek;
pos = (520,-1);
},
{
name = top;
pos = (375,685);
},
{
name = topleft;
pos = (71,684);
}
);
layerId = "0CAF3BED-C4AC-4024-B3E1-4C69D1EF7EC0";
shapes = (
{
closed = 1;
nodes = (
(520,-1,l),
(529,75,l,{
"Letterink-NibData" = {
AngleInDegrees = 270;
};
}),
(142,75,l),
(173,323,l,{
"Letterink-NibData" = {
AngleInDegrees = 90;
};
}),
(444,323,l),
(453,399,l,{
"Letterink-NibData" = {
AngleInDegrees = 270;
};
}),
(182,399,l),
(208,608,l,{
"Letterink-NibData" = {
AngleInDegrees = 90;
};
}),
(576,608,l),
(585,684,l,{
"Letterink-NibData" = {
AngleInDegrees = 270;
};
}),
(135,684,l,{
"Letterink-NibData" = {
AngleInDegrees = 180;
};
}),
(51,-1,l,{
"Letterink-NibData" = {
AngleInDegrees = 90;
};
})
);
}
);
width = 576;
},
{
anchors = (
{
name = bottom;
pos = (284,2);
},
{
name = ogonek;
pos = (506,1);
},
{
name = top;
pos = (366,684);
},
{
name = topleft;
pos = (74,684);
}
);
layerId = "49C16FD3-6177-408B-A733-AEB3898BB77C";
shapes = (
{
closed = 1;
nodes = (
(506,0,l),
(510,36,l,{
"Letterink-NibData" = {
AngleInDegrees = 270;
};
}),
(98,36,l),
(136,346,l,{
"Letterink-NibData" = {
AngleInDegrees = 90;
};
}),
(425,346,l),
(430,382,l,{
"Letterink-NibData" = {
AngleInDegrees = 270;
};
}),
(141,382,l),
(174,649,l,{
"Letterink-NibData" = {
AngleInDegrees = 90;
};
}),
(566,649,l),
(570,685,l,{
"Letterink-NibData" = {
AngleInDegrees = 270;
};
}),
(139,685,l,{
"Letterink-NibData" = {
AngleInDegrees = 180;
};
}),
(55,0,l,{
"Letterink-NibData" = {
AngleInDegrees = 90;
};
})
);
}
);
width = 564;
},
{
anchors = (
{
name = bottom;
pos = (292,0);
},
{
name = ogonek;
pos = (527,0);
},
{
name = top;
pos = (363,687);
},
{
name = topleft;
pos = (119,684);
}
);
layerId = m004;
shapes = (
{
closed = 1;
nodes = (
(527,0,l),
(545,148,l,{
"Letterink-NibData" = {
AngleInDegrees = 270;
};
}),
(219,148,l),
(235,273,l,{
"Letterink-NibData" = {
AngleInDegrees = 90;
};
}),
(465,273,l),
(483,421,l,{
"Letterink-NibData" = {
AngleInDegrees = 270;
};
}),
(253,421,l),
(267,536,l,{
"Letterink-NibData" = {
AngleInDegrees = 90;
};
}),
(583,536,l),
(601,684,l,{
"Letterink-NibData" = {
AngleInDegrees = 270;
};
}),
(119,684,l,{
"Letterink-NibData" = {
AngleInDegrees = 180;
};
}),
(35,0,l,{
"Letterink-NibData" = {
AngleInDegrees = 90;
};
})
);
}
);
width = 589;
}
);
metricLeft = N.ss01;
metricRight = E;
userData = {
position = 95;
width = 61;
};
},
{
glyphname = E.swsh;
kernLeft = Swash;
kernRight = E;
layers = (
{
anchors = (
{
name = bottom;
pos = (412,0);
},
{
name = ogonek;
pos = (630,0);
},
{
name = top;
pos = (489,684);
},
{
name = topleft;
pos = (97,684);
}
);
hints = (
{
name = _corner.caps_swash;
origin = (1,2);
type = Corner;
}
);
layerId = "0CAF3BED-C4AC-4024-B3E1-4C69D1EF7EC0";
shapes = (
{
closed = 1;
nodes = (
(630,0,l),
(639,76,l,{
"Letterink-NibData" = {
AngleInDegrees = 270;
};
}),
(273,76,l),
(304,325,l,{
"Letterink-NibData" = {
AngleInDegrees = 90;
};
}),
(554,325,l),
(563,401,l,{
"Letterink-NibData" = {
AngleInDegrees = 270;
};
}),
(313,401,l),
(333,559,l,{
"Letterink-NibData" = {
AngleInDegrees = 270;
};
}),
(251,559,l,{
"Letterink-NibData" = {
AngleInDegrees = 180;
};
}),
(182,0,l,{
"Letterink-NibData" = {
AngleInDegrees = 90;
};
})
);
},
{
closed = 1;
nodes = (
(705,609,l),
(714,685,l,{
"Letterink-NibData" = {
AngleInDegrees = 270;
};
}),
(231,685,l,{
"Letterink-NibData" = {
AngleInDegrees = 180;
};
}),
(232,609,l,{
"Letterink-NibData" = {
AngleInDegrees = 90;
};
})
);
}
);
width = 686;
},
{
anchors = (
{
name = bottom;
pos = (392,0);
},
{
name = ogonek;
pos = (600,0);
},
{
name = top;
pos = (466,684);
},
{
name = topleft;
pos = (70,684);
}
);
hints = (
{
name = _corner.caps_swash;
origin = (1,2);
type = Corner;
}
);
layerId = "49C16FD3-6177-408B-A733-AEB3898BB77C";
shapes = (
{
closed = 1;
nodes = (
(600,0,l),
(604,36,l,{
"Letterink-NibData" = {
AngleInDegrees = 270;
};
}),
(212,36,l),
(250,346,l,{
"Letterink-NibData" = {
AngleInDegrees = 90;
};
}),
(518,346,l),
(523,382,l,{
"Letterink-NibData" = {
AngleInDegrees = 270;
};
}),
(255,382,l),
(278,570,l,{
"Letterink-NibData" = {
AngleInDegrees = 270;
};
}),
(241,570,l,{
"Letterink-NibData" = {
AngleInDegrees = 180;
};
}),
(171,0,l,{
"Letterink-NibData" = {
AngleInDegrees = 90;
};
})
);
},
{
closed = 1;
nodes = (
(680,648,l),
(684,684,l,{
"Letterink-NibData" = {
AngleInDegrees = 270;
};
}),
(217,684,l,{
"Letterink-NibData" = {
AngleInDegrees = 180;
};
}),
(217,648,l,{
"Letterink-NibData" = {
AngleInDegrees = 90;
};
})
);
}
);
width = 658;
},
{
anchors = (
{
name = bottom;
pos = (452,0);
},
{
name = ogonek;
pos = (683,0);
},
{
name = top;
pos = (524,684);
},
{
name = topleft;
pos = (81,728);
}
);
hints = (
{
name = _corner.caps_swash;
origin = (1,2);
type = Corner;
}
);
layerId = m004;
shapes = (
{
closed = 1;
nodes = (
(683,0,l),
(701,148,l,{
"Letterink-NibData" = {
AngleInDegrees = "270";
};
}),
(385,148,l),
(401,276,l,{
"Letterink-NibData" = {
AngleInDegrees = "90";
};
}),
(621,276,l),
(639,424,l,{
"Letterink-NibData" = {
AngleInDegrees = "270";
};
}),
(419,424,l),
(429,501,l,{
"Letterink-NibData" = {
AngleInDegrees = "90";
};
}),
(262,500,l,{
"Letterink-NibData" = {
AngleInDegrees = "180";
};
}),
(201,0,l,{
"Letterink-NibData" = {
AngleInDegrees = "90";
};
})
);
},
{
closed = 1;
nodes = (
(739,536,l),
(757,684,l,{
"Letterink-NibData" = {
AngleInDegrees = "270";
};
}),
(270,684,l,{
"Letterink-NibData" = {
AngleInDegrees = "180";
};
}),
(267,536,l)
);
}
);
width = 745;
}
);
metricRight = E;
userData = {
position = 130;
width = 61;
};
},
{
glyphname = Schwa;
kernLeft = O;
kernRight = O;
layers = (
{
anchors = (
{
name = bottom;
pos = (270,-1);
},
{
name = ogonek;
pos = (104,621);
},
{
name = top;
pos = (340,704);
}
);
layerId = "49C16FD3-6177-408B-A733-AEB3898BB77C";
shapes = (
{
closed = 1;
nodes = (
(240,704,o),
(167,676,o),
(85,616,c,{
"Letterink-NibData" = {
AngleInDegrees = 324.09028;
};
}),
(104,587,l,{
"Letterink-NibData" = {
AngleInDegrees = 237.68038;
};
}),
(172,635,o),
(245,667,o),
(335,667,cs,{
"Letterink-NibData" = {
AngleInDegrees = 270;
};
}),
(501,667,o),
(585,564,o),
(570,387,c,{
"Letterink-NibData" = {
AngleInDegrees = 90;
};
}),
(543,392,o),
(423,399,o),
(368,399,cs,{
"Letterink-NibData" = {
AngleInDegrees = 90;
};
}),
(181,399,o),
(61,325,o),
(44,191,cs),
(29,71,o),
(109,-13,o),
(242,-13,cs,{
"Letterink-NibData" = {
AngleInDegrees = 270;
};
}),
(427,-13,o),
(579,147,o),
(605,360,cs,{
"Letterink-NibData" = {
AngleInDegrees = 180;
};
}),
(632,582,o),
(526,704,o),
(336,704,cs,{
"Letterink-NibData" = {
AngleInDegrees = 90;
};
})
);
},
{
closed = 1;
nodes = (
(473,358,o),
(542,352,o),
(566,350,c,{
"Letterink-NibData" = {
AngleInDegrees = 357.92997;
};
}),
(542,169,o),
(396,25,o),
(239,25,cs,{
"Letterink-NibData" = {
AngleInDegrees = 90;
};
}),
(132,25,o),
(69,96,o),
(81,187,cs,{
"Letterink-NibData" = {
AngleInDegrees = 180;
};
}),
(96,298,o),
(203,363,o),
(367,360,cs,{
"Letterink-NibData" = {
AngleInDegrees = 270;
};
})
);
}
);
userData = {
RMXScaler = {
height = 140;
verticalShift = -260;
width = 135;
};
};
width = 640;
},
{
anchors = (
{
name = bottom;
pos = (282,-2);
},
{
name = ogonek;
pos = (102,617);
},
{
name = top;
pos = (356,697);
}
);
layerId = "0CAF3BED-C4AC-4024-B3E1-4C69D1EF7EC0";
shapes = (
{
closed = 1;
nodes = (
(250,709,o),
(160,678,o),
(79,614,c,{
"Letterink-NibData" = {
AngleInDegrees = 321.70984;
};
}),
(116,555,l,{
"Letterink-NibData" = {
AngleInDegrees = 233.56914;
};
}),
(186,604,o),
(259,633,o),
(338,633,cs,{
"Letterink-NibData" = {
AngleInDegrees = 270;
};
}),
(474,633,o),
(546,550,o),
(538,406,c,{
"Letterink-NibData" = {
AngleInDegrees = 91.10171;
};
}),
(520,409,o),
(421,417,o),
(390,417,cs,{
"Letterink-NibData" = {
AngleInDegrees = 91.29217;
};
}),
(186,417,o),
(56,335,o),
(39,200,cs),
(23,73,o),
(111,-20,o),
(252,-20,cs,{
"Letterink-NibData" = {
AngleInDegrees = 270;
};
}),
(436,-20,o),
(592,134,o),
(620,359,cs,{
"Letterink-NibData" = {
AngleInDegrees = 180;
};
}),
(646,571,o),
(540,709,o),
(343,709,cs,{
"Letterink-NibData" = {
AngleInDegrees = 90;
};
})
);
},
{
closed = 1;
nodes = (
(451,340,o),
(477,339,o),
(535,334,c,{
"Letterink-NibData" = {
AngleInDegrees = 3.91825;
};
}),
(507,173,o),
(384,56,o),
(252,56,cs,{
"Letterink-NibData" = {
AngleInDegrees = 90;
};
}),
(164,56,o),
(109,110,o),
(119,191,cs,{
"Letterink-NibData" = {
AngleInDegrees = 180;
};
}),
(131,290,o),
(224,344,o),
(389,341,cs,{
"Letterink-NibData" = {
AngleInDegrees = 270;
};
})
);
}
);
userData = {
RMXScaler = {
height = 140;
verticalShift = -260;
width = 135;
};
};
width = 649;
},
{
anchors = (
{
name = bottom;
pos = (287,-10);
},
{
name = ogonek;
pos = (82,610);
},
{
name = top;
pos = (371,700);
}
);
layerId = m004;
shapes = (
{
closed = 1;
nodes = (
(256,722,o),
(150,682,o),
(67,611,c,{
"Letterink-NibData" = {
AngleInDegrees = 321.70984;
};
}),
(141,494,l,{
"Letterink-NibData" = {
AngleInDegrees = "241.22019";
};
}),
(200,541,o),
(275,571,o),
(343,571,cs,{
"Letterink-NibData" = {
AngleInDegrees = "270";
};
}),
(428,571,o),
(481,522,o),
(475,434,c,{
"Letterink-NibData" = {
AngleInDegrees = 91.10171;
};
}),
(446,436,o),
(387,441,o),
(377,441,cs,{
"Letterink-NibData" = {
AngleInDegrees = 91.29217;
};
}),
(179,441,o),
(46,355,o),
(29,215,cs),
(12,76,o),
(108,-28,o),
(266,-30,cs,{
"Letterink-NibData" = {
AngleInDegrees = 270;
};
}),
(458,-32,o),
(619,125,o),
(646,348,cs,{
"Letterink-NibData" = {
AngleInDegrees = 180;
};
}),
(673,574,o),
(556,719,o),
(356,721,cs,{
"Letterink-NibData" = {
AngleInDegrees = 90;
};
})
);
},
{
closed = 1;
nodes = (
(417,308,o),
(435,308,o),
(476,304,c,{
"Letterink-NibData" = {
AngleInDegrees = 3.91825;
};
}),
(451,196,o),
(368,113,o),
(275,113,cs,{
"Letterink-NibData" = {
AngleInDegrees = 90;
};
}),
(222,113,o),
(181,143,o),
(188,199,cs,{
"Letterink-NibData" = {
AngleInDegrees = 180;
};
}),
(197,269,o),
(259,304,o),
(377,307,cs,{
"Letterink-NibData" = {
AngleInDegrees = 270;
};
})
);
}
);
userData = {
RMXScaler = {
height = 140;
verticalShift = -260;
width = 135;
};
};
width = 664;
}
);
unicode = 399;
userData = {
RMXScaler = {
source = schwa;
};
};
},
{
glyphname = F;
kernLeft = E;
kernRight = F;
layers = (
{
anchors = (
{
name = bottom;
pos = (329,0);
},
{
name = top;
pos = (414,684);
}
);
hints = (
{
name = _corner.caps_left;
origin = (0,8);
type = Corner;
}
);
layerId = "0CAF3BED-C4AC-4024-B3E1-4C69D1EF7EC0";
shapes = (
{
closed = 1;
nodes = (
(198,-1,l),
(238,323,l,{
"Letterink-NibData" = {
AngleInDegrees = 90;
};
}),
(488,323,l),
(497,400,l,{
"Letterink-NibData" = {
AngleInDegrees = 270;
};
}),
(247,400,l),
(273,609,l,{
"Letterink-NibData" = {
AngleInDegrees = 90;
};
}),
(609,609,l),
(618,685,l,{
"Letterink-NibData" = {
AngleInDegrees = 270;
};
}),
(189,685,l,{
"Letterink-NibData" = {
AngleInDegrees = 179.91648;
};
}),
(190,609,l),
(116,-1,l,{
"Letterink-NibData" = {
AngleInDegrees = 90;
};
})
);
}
);
width = 585;
},
{
anchors = (
{
name = bottom;
pos = (314,-18);
},
{
name = top;
pos = (402,684);
}
);
hints = (
{
name = _corner.caps_left;
origin = (0,8);
type = Corner;
}
);
layerId = "49C16FD3-6177-408B-A733-AEB3898BB77C";
shapes = (
{
closed = 1;
nodes = (
(140,0,l),
(182,345,l,{
"Letterink-NibData" = {
AngleInDegrees = 90;
};
}),
(449,345,l),
(454,381,l,{
"Letterink-NibData" = {
AngleInDegrees = 270;
};
}),
(187,381,l),
(220,648,l,{
"Letterink-NibData" = {
AngleInDegrees = 90;
};
}),
(580,648,l),
(584,684,l,{
"Letterink-NibData" = {
AngleInDegrees = 270;
};
}),
(182,684,l,{
"Letterink-NibData" = {
AngleInDegrees = 180;
};
}),
(182,649,l),
(102,0,l,{
"Letterink-NibData" = {
AngleInDegrees = 90;
};
})
);
}
);
width = 553;
},
{
anchors = (
{
name = bottom;
pos = (396,-3);
},
{
name = top;
pos = (482,684);
}
);
background = {
anchors = (
{
name = bottom;
pos = (391,0);
},
{
name = top;
pos = (391,684);
}
);
hints = (
{
name = _corner.caps_left;
origin = (0,8);
type = Corner;
}
);
shapes = (
{
closed = 1;
nodes = (
(299,-1,l),
(299,323,l,{
"Letterink-NibData" = {
AngleInDegrees = 90;
};
}),
(549,323,l),
(549,400,l,{
"Letterink-NibData" = {
AngleInDegrees = 270;
};
}),
(299,400,l),
(299,609,l,{
"Letterink-NibData" = {
AngleInDegrees = 90;
};
}),
(645,609,l),
(645,685,l,{
"Letterink-NibData" = {
AngleInDegrees = 270;
};
}),
(216,685,l,{
"Letterink-NibData" = {
AngleInDegrees = 179.91648;
};
}),
(217,-1,l,{
"Letterink-NibData" = {
AngleInDegrees = 90;
};
})
);
}
);
};
hints = (
{
name = _corner.caps_left;
origin = (0,8);
type = Corner;
}
);
layerId = m004;
shapes = (
{
closed = 1;
nodes = (
(320,0,l),
(351,263,l,{
"Letterink-NibData" = {
AngleInDegrees = "90";
};
}),
(551,263,l),
(569,411,l,{
"Letterink-NibData" = {
AngleInDegrees = "270";
};
}),
(369,411,l),
(385,536,l,{
"Letterink-NibData" = {
AngleInDegrees = "90";
};
}),
(671,536,l),
(689,684,l,{
"Letterink-NibData" = {
AngleInDegrees = "270";
};
}),
(222,684,l,{
"Letterink-NibData" = {
AngleInDegrees = "180";
};
}),
(219,538,l),
(153,0,l,{
"Letterink-NibData" = {
AngleInDegrees = "90";
};
})
);
}
);
width = 661;
}
);
metricLeft = E;
metricRight = "=E*.8";
unicode = 70;
userData = {
position = 129;
width = 61;
};
},
{
glyphname = F.ss01;
kernRight = F;
layers = (
{
anchors = (
{
name = bottom;
pos = (265,0);
},
{
name = top;
pos = (350,684);
}
);
layerId = "0CAF3BED-C4AC-4024-B3E1-4C69D1EF7EC0";
shapes = (
{
closed = 1;
nodes = (
(134,-1,l),
(173,315,l,{
"Letterink-NibData" = {
AngleInDegrees = 90;
};
}),
(451,315,l),
(460,393,l,{
"Letterink-NibData" = {
AngleInDegrees = 270;
};
}),
(182,393,l),
(209,608,l,{
"Letterink-NibData" = {
AngleInDegrees = 90;
};
}),
(555,608,l),
(564,686,l,{
"Letterink-NibData" = {
AngleInDegrees = 270;
};
}),
(136,686,l,{
"Letterink-NibData" = {
AngleInDegrees = 180;
};
}),
(52,-1,l,{
"Letterink-NibData" = {
AngleInDegrees = 90;
};
})
);
}
);
width = 531;
},
{
anchors = (
{
name = bottom;
pos = (256,0);
},
{
name = top;
pos = (342,684);
}
);
layerId = "49C16FD3-6177-408B-A733-AEB3898BB77C";
shapes = (
{
closed = 1;
nodes = (
(96,1,l),
(137,337,l,{
"Letterink-NibData" = {
AngleInDegrees = 90;
};
}),
(434,337,l),
(439,372,l,{
"Letterink-NibData" = {
AngleInDegrees = 270;
};
}),
(142,372,l),
(176,648,l,{
"Letterink-NibData" = {
AngleInDegrees = 90;
};
}),
(545,648,l),
(549,685,l,{
"Letterink-NibData" = {
AngleInDegrees = 270;
};
}),
(139,685,l,{
"Letterink-NibData" = {
AngleInDegrees = 180;
};
}),
(55,1,l,{
"Letterink-NibData" = {
AngleInDegrees = 90;
};
})
);
}
);
width = 518;
},
{
anchors = (
{
name = bottom;
pos = (268,-11);
},
{
name = top;
pos = (355,684);
}
);
layerId = m004;
shapes = (
{
closed = 1;
nodes = (
(202,1,l),
(233,263,l,{
"Letterink-NibData" = {
AngleInDegrees = "90";
};
}),
(453,263,l),
(471,411,l,{
"Letterink-NibData" = {
AngleInDegrees = "270";
};
}),
(251,411,l),
(267,536,l,{
"Letterink-NibData" = {
AngleInDegrees = "90";
};
}),
(573,536,l),
(591,684,l,{
"Letterink-NibData" = {
AngleInDegrees = "270";
};
}),
(119,684,l,{
"Letterink-NibData" = {
AngleInDegrees = "180";
};
}),
(35,1,l,{
"Letterink-NibData" = {
AngleInDegrees = "90";
};
})
);
}
);
width = 563;
}
);
metricLeft = N.ss01;
metricRight = "=E*.8";
userData = {
position = 95;
width = 61;
};
},
{
glyphname = F.swsh;
kernLeft = Swash;
kernRight = F;
layers = (
{
anchors = (
{
name = bottom;
pos = (374,0);
},
{
name = top;
pos = (452,684);
}
);
hints = (
{
name = _corner.caps_swash;
options = 1;
origin = (1,2);
type = Corner;
}
);
layerId = "0CAF3BED-C4AC-4024-B3E1-4C69D1EF7EC0";
shapes = (
{
closed = 1;
nodes = (
(265,-1,l),
(309,360,l,{
"Letterink-NibData" = {
AngleInDegrees = 90;
};
}),
(268,324,l,{
"Letterink-NibData" = {
AngleInDegrees = 90;
};
}),
(554,324,l),
(563,400,l,{
"Letterink-NibData" = {
AngleInDegrees = 270;
};
}),
(279,400,l),
(310,364,l),
(334,559,l,{
"Letterink-NibData" = {
AngleInDegrees = 270;
};
}),
(251,559,l,{
"Letterink-NibData" = {
AngleInDegrees = 180;
};
}),
(182,-1,l,{
"Letterink-NibData" = {
AngleInDegrees = 90;
};
})
);
},
{
closed = 1;
nodes = (
(685,608,l),
(694,684,l,{
"Letterink-NibData" = {
AngleInDegrees = 270;
};
}),
(230,684,l,{
"Letterink-NibData" = {
AngleInDegrees = 180;
};
}),
(231,608,l,{
"Letterink-NibData" = {
AngleInDegrees = 90;
};
})
);
}
);
width = 661;
},
{
anchors = (
{
name = bottom;
pos = (356,0);
},
{
name = top;
pos = (436,684);
}
);
hints = (
{
name = _corner.caps_swash;
options = 1;
origin = (1,2);
type = Corner;
}
);
layerId = "49C16FD3-6177-408B-A733-AEB3898BB77C";
shapes = (
{
closed = 1;
nodes = (
(212,0,l),
(256,361,l,{
"Letterink-NibData" = {
AngleInDegrees = 90;
};
}),
(238,345,l,{
"Letterink-NibData" = {
AngleInDegrees = 90;
};
}),
(522,345,l),
(527,381,l,{
"Letterink-NibData" = {
AngleInDegrees = 270;
};
}),
(243,381,l),
(257,365,l),
(282,570,l,{
"Letterink-NibData" = {
AngleInDegrees = 270;
};
}),
(244,570,l,{
"Letterink-NibData" = {
AngleInDegrees = 180;
};
}),
(174,0,l,{
"Letterink-NibData" = {
AngleInDegrees = 90;
};
})
);
},
{
closed = 1;
nodes = (
(664,648,l),
(668,684,l,{
"Letterink-NibData" = {
AngleInDegrees = 270;
};
}),
(220,684,l,{
"Letterink-NibData" = {
AngleInDegrees = 180;
};
}),
(221,648,l,{
"Letterink-NibData" = {
AngleInDegrees = 90;
};
})
);
}
);
width = 637;
},
{
anchors = (
{
name = bottom;
pos = (456,-4);
},
{
name = top;
pos = (543,684);
}
);
hints = (
{
name = _corner.caps_swash;
options = 1;
origin = (1,2);
type = Corner;
}
);
layerId = m004;
shapes = (
{
closed = 1;
nodes = (
(370,0,l),
(410,334,l,{
"Letterink-NibData" = {
AngleInDegrees = "90";
};
}),
(330,263,l,{
"Letterink-NibData" = {
AngleInDegrees = "90";
};
}),
(622,263,l),
(640,411,l,{
"Letterink-NibData" = {
AngleInDegrees = "270";
};
}),
(351,411,l),
(413,340,l),
(431,499,l,{
"Letterink-NibData" = {
AngleInDegrees = "90";
};
}),
(265,499,l),
(204,0,l,{
"Letterink-NibData" = {
AngleInDegrees = "90";
};
})
);
},
{
closed = 1;
nodes = (
(742,536,l),
(760,684,l,{
"Letterink-NibData" = {
AngleInDegrees = "270";
};
}),
(263,684,l,{
"Letterink-NibData" = {
AngleInDegrees = "180";
};
}),
(260,536,l)
);
}
);
width = 732;
}
);
metricLeft = E.swsh;
metricRight = F;
userData = {
position = 129;
width = 61;
};
},
{
glyphname = G;
kernLeft = O;
kernRight = O;
layers = (
{
anchors = (
{
name = bottom;
pos = (342,-9);
},
{
name = top;
pos = (428,689);
}
);
background = {
shapes = (
{
closed = 1;
nodes = (
(596,-25,o),
(742,126,o),
(742,326,cs),
(742,355,ls),
(742,548,o),
(590,702,o),
(400,702,cs,{
"Letterink-NibData" = {
AngleInDegrees = "270";
};
}),
(210,702,o),
(59,548,o),
(59,355,cs,{
"Letterink-NibData" = {
AngleInDegrees = "180";
};
}),
(59,326,ls,{
"Letterink-NibData" = {
AngleInDegrees = "180";
};
}),
(59,126,o),
(203,-19,o),
(404,-22,cs,{
"Letterink-NibData" = {
AngleInDegrees = 90.89517;
};
})
);
},
{
closed = 1;
nodes = (
(253,54,o),
(141,170,o),
(141,326,cs),
(141,355,ls),
(141,504,o),
(255,626,o),
(399,626,cs,{
"Letterink-NibData" = {
AngleInDegrees = "90";
};
}),
(545,626,o),
(660,504,o),
(660,355,cs,{
"Letterink-NibData" = {
AngleInDegrees = "180";
};
}),
(660,326,ls,{
"Letterink-NibData" = {
AngleInDegrees = "180";
};
}),
(660,170,o),
(548,54,o),
(401,54,cs,{
"Letterink-NibData" = {
AngleInDegrees = "270";
};
})
);
}
);
};
layerId = "0CAF3BED-C4AC-4024-B3E1-4C69D1EF7EC0";
shapes = (
{
closed = 1;
nodes = (
(558,-21,o),
(669,136,o),
(701,330,cs),
(703,342,l),
(387,342,l),
(378,272,l),
(657,272,l),
(620,305,l),
(606,160,o),
(517,55,o),
(364,55,cs),
(211,55,o),
(109,162,o),
(130,335,cs),
(150,502,o),
(283,627,o),
(438,627,cs),
(568,627,o),
(606,577,o),
(602,545,cs),
(600,529,o),
(587,508,o),
(568,508,cs),
(564,508,o),
(555,508,o),
(547,513,c),
(503,455,l),
(524,440,o),
(546,434,o),
(566,434,cs),
(618,434,o),
(671,475,o),
(679,537,cs),
(694,652,o),
(576,703,o),
(440,703,cs),
(251,703,o),
(75,541,o),
(51,343,cs),
(25,129,o),
(159,-21,o),
(362,-21,cs)
);
}
);
width = 731;
},
{
anchors = (
{
name = bottom;
pos = (353,0);
},
{
name = top;
pos = (435,688);
}
);
background = {
shapes = (
{
closed = 1;
nodes = (
(604,-14,o),
(746,131,o),
(746,331,cs),
(746,350,ls),
(746,550,o),
(598,702,o),
(404,702,cs,{
"Letterink-NibData" = {
AngleInDegrees = "270";
};
}),
(210,702,o),
(64,551,o),
(64,350,cs,{
"Letterink-NibData" = {
AngleInDegrees = "180";
};
}),
(64,331,ls,{
"Letterink-NibData" = {
AngleInDegrees = "180";
};
}),
(64,133,o),
(211,-14,o),
(408,-14,cs,{
"Letterink-NibData" = {
AngleInDegrees = "90";
};
})
);
},
{
closed = 1;
nodes = (
(234,24,o),
(106,156,o),
(106,331,cs),
(106,350,ls),
(106,526,o),
(235,662,o),
(403,662,cs,{
"Letterink-NibData" = {
AngleInDegrees = "90";
};
}),
(572,662,o),
(704,526,o),
(704,350,cs,{
"Letterink-NibData" = {
AngleInDegrees = "180";
};
}),
(704,331,ls,{
"Letterink-NibData" = {
AngleInDegrees = "180";
};
}),
(704,156,o),
(575,24,o),
(405,24,cs,{
"Letterink-NibData" = {
AngleInDegrees = "270";
};
})
);
}
);
};
layerId = "49C16FD3-6177-408B-A733-AEB3898BB77C";
shapes = (
{
closed = 1;
nodes = (
(536,-14,o),
(669,118,o),
(698,310,cs),
(701,330,l),
(411,330,l),
(406,292,l),
(678,292,l),
(661,312,l),
(635,136,o),
(518,25,o),
(360,25,cs),
(174,25,o),
(73,152,o),
(96,338,cs),
(119,527,o),
(267,658,o),
(434,658,cs),
(577,658,o),
(639,586,o),
(633,540,cs),
(630,515,o),
(611,485,o),
(581,485,cs),
(571,485,o),
(559,488,o),
(551,494,c),
(526,464,l),
(544,450,o),
(564,446,o),
(580,446,cs),
(620,446,o),
(664,483,o),
(671,536,cs),
(682,619,o),
(590,696,o),
(435,696,cs),
(254,696,o),
(84,556,o),
(58,342,cs),
(32,131,o),
(155,-14,o),
(359,-14,cs)
);
}
);
width = 737;
},
{
anchors = (
{
name = bottom;
pos = (396,-35);
},
{
name = top;
pos = (406,683);
}
);
associatedMasterId = "49C16FD3-6177-408B-A733-AEB3898BB77C";
layerId = "D0E3D1AC-81E4-4FC2-A1B9-BDF5A86A417E";
name = "3 Jan 22, 15:37";
shapes = (
{
closed = 1;
nodes = (
(541,-20,o),
(682,85,o),
(682,253,c),
(682,296,l,{
"Letterink-NibData" = {
AngleInDegrees = 270;
};
}),
(640,296,l,{
"Letterink-NibData" = {
AngleInDegrees = 180;
};
}),
(640,251,l,{
"Letterink-NibData" = {
AngleInDegrees = 180;
};
}),
(640,124,o),
(527,20,o),
(396,20,cs,{
"Letterink-NibData" = {
AngleInDegrees = 270;
};
}),
(231,20,o),
(107,157,o),
(107,329,cs),
(107,504,o),
(236,658,o),
(406,658,cs,{
"Letterink-NibData" = {
AngleInDegrees = 90;
};
}),
(470,658,o),
(591,637,o),
(591,563,cs,{
"Letterink-NibData" = {
AngleInDegrees = 180;
};
}),
(591,537,o),
(574,514,o),
(551,514,cs,{
"Letterink-NibData" = {
AngleInDegrees = 270;
};
}),
(541,514,o),
(533,518,o),
(528,524,c,{
"Letterink-NibData" = {
AngleInDegrees = 218.23383;
};
}),
(502,491,l,{
"Letterink-NibData" = {
AngleInDegrees = 138.36646;
};
}),
(510,482,o),
(528,473,o),
(550,473,cs,{
"Letterink-NibData" = {
AngleInDegrees = 90;
};
}),
(598,473,o),
(632,509,o),
(632,563,cs),
(632,669,o),
(490,698,o),
(405,698,cs,{
"Letterink-NibData" = {
AngleInDegrees = 270;
};
}),
(207,698,o),
(65,531,o),
(65,330,cs,{
"Letterink-NibData" = {
AngleInDegrees = 180;
};
}),
(65,138,o),
(202,-20,o),
(396,-20,cs,{
"Letterink-NibData" = {
AngleInDegrees = 90;
};
})
);
},
{
closed = 1;
nodes = (
(682,293,l),
(682,335,l,{
"Letterink-NibData" = {
AngleInDegrees = 270;
};
}),
(391,335,l,{
"Letterink-NibData" = {
AngleInDegrees = 180;
};
}),
(391,293,l,{
"Letterink-NibData" = {
AngleInDegrees = 90;
};
})
);
}
);
width = 735;
},
{
anchors = (
{
name = bottom;
pos = (395,-16);
},
{
name = top;
pos = (398,684);
}
);
associatedMasterId = "0CAF3BED-C4AC-4024-B3E1-4C69D1EF7EC0";
layerId = "801CC91F-0C96-44A6-9720-FE52325A0B43";
name = "3 Jan 22, 15:45";
shapes = (
{
closed = 1;
nodes = (
(546,-13,o),
(688,104,o),
(688,271,cs),
(688,319,l,{
"Letterink-NibData" = {
AngleInDegrees = 270;
};
}),
(605,319,l,{
"Letterink-NibData" = {
AngleInDegrees = 178.85424;
};
}),
(606,269,l,{
"Letterink-NibData" = {
AngleInDegrees = 180.96286;
};
}),
(604,150,o),
(509,63,o),
(395,63,cs,{
"Letterink-NibData" = {
AngleInDegrees = 270;
};
}),
(250,63,o),
(140,176,o),
(140,342,cs),
(140,497,o),
(250,620,o),
(404,620,cs,{
"Letterink-NibData" = {
AngleInDegrees = 90;
};
}),
(461,620,o),
(563,599,o),
(563,544,cs,{
"Letterink-NibData" = {
AngleInDegrees = 180;
};
}),
(563,530,o),
(556,518,o),
(542,517,cs,{
"Letterink-NibData" = {
AngleInDegrees = 264.28941;
};
}),
(532,516,o),
(522,523,o),
(516,528,c,{
"Letterink-NibData" = {
AngleInDegrees = 218.90414;
};
}),
(470,471,l,{
"Letterink-NibData" = {
AngleInDegrees = 136.54816;
};
}),
(488,452,o),
(516,442,o),
(541,442,cs,{
"Letterink-NibData" = {
AngleInDegrees = 90;
};
}),
(596,442,o),
(640,488,o),
(640,547,cs),
(640,656,o),
(486,696,o),
(403,696,cs,{
"Letterink-NibData" = {
AngleInDegrees = 270;
};
}),
(210,696,o),
(58,539,o),
(58,343,cs,{
"Letterink-NibData" = {
AngleInDegrees = 180;
};
}),
(58,141,o),
(201,-13,o),
(395,-13,cs,{
"Letterink-NibData" = {
AngleInDegrees = 90;
};
})
);
},
{
closed = 1;
nodes = (
(688,280,l),
(688,356,l,{
"Letterink-NibData" = {
AngleInDegrees = 270;
};
}),
(369,356,l,{
"Letterink-NibData" = {
AngleInDegrees = 180;
};
}),
(369,280,l,{
"Letterink-NibData" = {
AngleInDegrees = 90;
};
})
);
}
);
width = 731;
},
{
anchors = (
{
name = bottom;
pos = (397,-16);
},
{
name = top;
pos = (400,684);
}
);
associatedMasterId = "0CAF3BED-C4AC-4024-B3E1-4C69D1EF7EC0";
layerId = "F3CD14B1-1EDD-434D-B368-A4692BE06C00";
name = "5 Jan 22, 08:08";
shapes = (
{
attr = {
strokeHeight = 74;
strokeWidth = 80;
};
closed = 0;
nodes = (
(522,478,l,{
"Letterink-NibData" = {
AngleInDegrees = 116.56505;
};
}),
(532,473,o),
(541,471,o),
(550,471,cs,{
"Letterink-NibData" = {
AngleInDegrees = 90;
};
}),
(594,471,o),
(615,511,o),
(615,546,cs),
(615,617,o),
(526,674,o),
(398,668,cs,{
"Letterink-NibData" = {
AngleInDegrees = 267.25739;
};
}),
(231,660,o),
(97,522,o),
(97,334,cs,{
"Letterink-NibData" = {
AngleInDegrees = 180;
};
}),
(97,144,o),
(234,4,o),
(415,15,cs,{
"Letterink-NibData" = {
AngleInDegrees = 86.30861;
};
}),
(570,25,o),
(655,137,o),
(655,281,c,{
"Letterink-NibData" = {
AngleInDegrees = 358.26429;
};
}),
(654,314,l,{
"Letterink-NibData" = {
AngleInDegrees = 270.21221;
};
}),
(384,315,l,{
"Letterink-NibData" = {
AngleInDegrees = 270.21221;
};
})
);
}
);
width = 737;
},
{
anchors = (
{
name = bottom;
pos = (395,-35);
},
{
name = top;
pos = (405,683);
}
);
associatedMasterId = "49C16FD3-6177-408B-A733-AEB3898BB77C";
background = {
shapes = (
{
closed = 1;
nodes = (
(543,-19,o),
(681,85,o),
(681,253,c),
(681,296,l),
(639,296,l),
(639,251,l),
(639,124,o),
(526,20,o),
(395,20,cs),
(230,20,o),
(106,157,o),
(106,329,cs),
(106,504,o),
(235,658,o),
(405,658,cs),
(469,658,o),
(590,637,o),
(590,563,cs),
(590,537,o),
(573,514,o),
(550,514,cs),
(540,514,o),
(532,518,o),
(527,524,c),
(501,491,l),
(509,482,o),
(527,473,o),
(549,473,cs),
(597,473,o),
(631,509,o),
(631,563,cs),
(631,669,o),
(489,698,o),
(404,698,cs),
(206,698,o),
(64,531,o),
(64,330,cs),
(64,138,o),
(201,-21,o),
(395,-20,cs)
);
}
);
};
layerId = "F0F46AC2-3B0D-4489-B32E-B81CEA10F2A9";
name = "5 Jan 22, 08:18";
shapes = (
{
attr = {
strokeHeight = 38;
strokeWidth = 42;
};
closed = 0;
nodes = (
(521,484,l,{
"Letterink-NibData" = {
AngleInDegrees = 116.56505;
};
}),
(531,479,o),
(540,477,o),
(550,477,cs,{
"Letterink-NibData" = {
AngleInDegrees = 90;
};
}),
(594,477,o),
(616,519,o),
(616,556,cs),
(616,630,o),
(525,690,o),
(394,683,cs,{
"Letterink-NibData" = {
AngleInDegrees = 267.30572;
};
}),
(224,675,o),
(87,530,o),
(87,334,cs,{
"Letterink-NibData" = {
AngleInDegrees = 180;
};
}),
(87,135,o),
(227,-12,o),
(407,0,cs,{
"Letterink-NibData" = {
AngleInDegrees = 86.48932;
};
}),
(570,10,o),
(657,127,o),
(657,278,c,{
"Letterink-NibData" = {
AngleInDegrees = 358.36342;
};
}),
(656,313,l,{
"Letterink-NibData" = {
AngleInDegrees = 270.20759;
};
}),
(380,314,l,{
"Letterink-NibData" = {
AngleInDegrees = 270.20759;
};
})
);
}
);
width = 728;
},
{
anchors = (
{
name = bottom;
pos = (346,-10);
},
{
name = top;
pos = (433,703);
}
);
background = {
shapes = (
{
closed = 1;
nodes = (
(605,-25,o),
(751,126,o),
(751,326,cs),
(751,355,ls),
(751,548,o),
(599,702,o),
(409,702,cs,{
"Letterink-NibData" = {
AngleInDegrees = "270";
};
}),
(219,702,o),
(68,548,o),
(68,355,cs,{
"Letterink-NibData" = {
AngleInDegrees = "180";
};
}),
(68,326,ls,{
"Letterink-NibData" = {
AngleInDegrees = "180";
};
}),
(68,126,o),
(212,-19,o),
(413,-22,cs,{
"Letterink-NibData" = {
AngleInDegrees = 90.89517;
};
})
);
},
{
closed = 1;
nodes = (
(262,54,o),
(150,170,o),
(150,326,cs),
(150,355,ls),
(150,504,o),
(264,626,o),
(408,626,cs,{
"Letterink-NibData" = {
AngleInDegrees = "90";
};
}),
(554,626,o),
(669,504,o),
(669,355,cs,{
"Letterink-NibData" = {
AngleInDegrees = "180";
};
}),
(669,326,ls,{
"Letterink-NibData" = {
AngleInDegrees = "180";
};
}),
(669,170,o),
(557,54,o),
(410,54,cs,{
"Letterink-NibData" = {
AngleInDegrees = "270";
};
})
);
}
);
};
layerId = m004;
shapes = (
{
closed = 1;
nodes = (
(560,-28,o),
(695,109,o),
(714,338,cs),
(716,362,l),
(398,362,l),
(382,224,l),
(627,224,l),
(560,289,l),
(551,187,o),
(477,120,o),
(368,120,cs),
(250,120,o),
(185,200,o),
(200,325,cs),
(217,468,o),
(317,565,o),
(445,565,cs),
(503,565,o),
(560,545,o),
(558,521,cs),
(557,510,o),
(548,502,o),
(538,502,cs),
(534,502,o),
(531,503,o),
(527,507,c),
(452,422,l),
(472,400,o),
(503,385,o),
(542,385,cs),
(618,385,o),
(688,444,o),
(697,517,cs),
(711,628,o),
(601,713,o),
(445,713,cs),
(234,713,o),
(63,558,o),
(37,343,cs),
(11,128,o),
(142,-28,o),
(350,-28,cs)
);
}
);
width = 730;
},
{
anchors = (
{
name = bottom;
pos = (381,-16);
},
{
name = top;
pos = (384,684);
}
);
associatedMasterId = m004;
layerId = "0E9EACE4-EA9D-4B48-AA91-148DF9A2A64E";
name = "3 Jan 22, 15:45";
shapes = (
{
closed = 1;
nodes = (
(532,-13,o),
(674,104,o),
(674,271,cs),
(674,319,l,{
"Letterink-NibData" = {
AngleInDegrees = 270;
};
}),
(591,319,l,{
"Letterink-NibData" = {
AngleInDegrees = 178.85424;
};
}),
(592,269,l,{
"Letterink-NibData" = {
AngleInDegrees = 180.96286;
};
}),
(590,150,o),
(495,63,o),
(381,63,cs,{
"Letterink-NibData" = {
AngleInDegrees = 270;
};
}),
(236,63,o),
(126,176,o),
(126,342,cs),
(126,497,o),
(236,620,o),
(390,620,cs,{
"Letterink-NibData" = {
AngleInDegrees = 90;
};
}),
(447,620,o),
(549,599,o),
(549,544,cs,{
"Letterink-NibData" = {
AngleInDegrees = 180;
};
}),
(549,530,o),
(542,518,o),
(528,517,cs,{
"Letterink-NibData" = {
AngleInDegrees = 264.28941;
};
}),
(518,516,o),
(508,523,o),
(502,528,c,{
"Letterink-NibData" = {
AngleInDegrees = 218.90414;
};
}),
(456,471,l,{
"Letterink-NibData" = {
AngleInDegrees = 136.54816;
};
}),
(474,452,o),
(502,442,o),
(527,442,cs,{
"Letterink-NibData" = {
AngleInDegrees = 90;
};
}),
(582,442,o),
(626,488,o),
(626,547,cs),
(626,656,o),
(472,696,o),
(389,696,cs,{
"Letterink-NibData" = {
AngleInDegrees = 270;
};
}),
(196,696,o),
(44,539,o),
(44,343,cs,{
"Letterink-NibData" = {
AngleInDegrees = 180;
};
}),
(44,141,o),
(187,-13,o),
(381,-13,cs,{
"Letterink-NibData" = {
AngleInDegrees = 90;
};
})
);
},
{
closed = 1;
nodes = (
(674,280,l),
(674,356,l,{
"Letterink-NibData" = {
AngleInDegrees = 270;
};
}),
(355,356,l,{
"Letterink-NibData" = {
AngleInDegrees = 180;
};
}),
(355,280,l,{
"Letterink-NibData" = {
AngleInDegrees = 90;
};
})
);
}
);
width = 703;
},
{
anchors = (
{
name = bottom;
pos = (383,-16);
},
{
name = top;
pos = (386,684);
}
);
associatedMasterId = m004;
layerId = "E2560365-B553-4320-8997-4873FFE2CB5E";
name = "5 Jan 22, 08:08";
shapes = (
{
attr = {
strokeHeight = 74;
strokeWidth = 80;
};
closed = 0;
nodes = (
(508,478,l,{
"Letterink-NibData" = {
AngleInDegrees = 116.56505;
};
}),
(518,473,o),
(527,471,o),
(536,471,cs,{
"Letterink-NibData" = {
AngleInDegrees = 90;
};
}),
(580,471,o),
(601,511,o),
(601,546,cs),
(601,617,o),
(512,674,o),
(384,668,cs,{
"Letterink-NibData" = {
AngleInDegrees = 267.25739;
};
}),
(217,660,o),
(83,522,o),
(83,334,cs,{
"Letterink-NibData" = {
AngleInDegrees = 180;
};
}),
(83,144,o),
(220,4,o),
(401,15,cs,{
"Letterink-NibData" = {
AngleInDegrees = 86.30861;
};
}),
(556,25,o),
(641,137,o),
(641,281,c,{
"Letterink-NibData" = {
AngleInDegrees = 358.26429;
};
}),
(640,314,l,{
"Letterink-NibData" = {
AngleInDegrees = 270.21221;
};
}),
(370,315,l,{
"Letterink-NibData" = {
AngleInDegrees = 270.21221;
};
})
);
}
);
width = 709;
}
);
metricLeft = O;
metricRight = "=O*.975";
note = "Bold: 98/95.5%";
unicode = 71;
userData = {
position = 593;
width = 57;
};
},
{
glyphname = G.ss01;
kernLeft = O;
kernRight = O;
layers = (
{
anchors = (
{
name = bottom;
pos = (353,-6);
},
{
name = top;
pos = (436,691);
}
);
background = {
shapes = (
{
closed = 1;
nodes = (
(593,-25,o),
(739,126,o),
(739,326,cs),
(739,355,ls),
(739,548,o),
(587,702,o),
(397,702,cs,{
"Letterink-NibData" = {
AngleInDegrees = "270";
};
}),
(207,702,o),
(56,548,o),
(56,355,cs,{
"Letterink-NibData" = {
AngleInDegrees = "180";
};
}),
(56,326,ls,{
"Letterink-NibData" = {
AngleInDegrees = "180";
};
}),
(56,126,o),
(200,-19,o),
(401,-22,cs,{
"Letterink-NibData" = {
AngleInDegrees = 90.89517;
};
})
);
},
{
closed = 1;
nodes = (
(250,54,o),
(138,170,o),
(138,326,cs),
(138,355,ls),
(138,504,o),
(252,626,o),
(396,626,cs,{
"Letterink-NibData" = {
AngleInDegrees = "90";
};
}),
(542,626,o),
(657,504,o),
(657,355,cs,{
"Letterink-NibData" = {
AngleInDegrees = "180";
};
}),
(657,326,ls,{
"Letterink-NibData" = {
AngleInDegrees = "180";
};
}),
(657,170,o),
(545,54,o),
(398,54,cs,{
"Letterink-NibData" = {
AngleInDegrees = "270";
};
})
);
}
);
};
layerId = "0CAF3BED-C4AC-4024-B3E1-4C69D1EF7EC0";
shapes = (
{
closed = 1;
nodes = (
(544,-17,o),
(684,115,o),
(709,318,cs),
(714,358,l),
(406,358,l),
(397,282,l),
(666,282,l),
(633,322,l),
(614,164,o),
(505,59,o),
(360,59,cs),
(205,59,o),
(111,176,o),
(131,341,cs),
(151,510,o),
(282,633,o),
(439,633,cs),
(537,633,o),
(611,586,o),
(625,515,c),
(698,533,l),
(681,637,o),
(576,709,o),
(440,709,cs),
(240,709,o),
(78,558,o),
(52,348,cs),
(26,135,o),
(152,-17,o),
(356,-17,cs)
);
}
);
width = 741;
},
{
anchors = (
{
name = bottom;
pos = (353,-2);
},
{
name = top;
pos = (445,694);
}
);
background = {
shapes = (
{
closed = 1;
nodes = (
(599,-14,o),
(741,131,o),
(741,331,cs),
(741,350,ls),
(741,550,o),
(593,702,o),
(399,702,cs,{
"Letterink-NibData" = {
AngleInDegrees = "270";
};
}),
(205,702,o),
(59,551,o),
(59,350,cs,{
"Letterink-NibData" = {
AngleInDegrees = "180";
};
}),
(59,331,ls,{
"Letterink-NibData" = {
AngleInDegrees = "180";
};
}),
(59,133,o),
(206,-14,o),
(403,-14,cs,{
"Letterink-NibData" = {
AngleInDegrees = "90";
};
})
);
},
{
closed = 1;
nodes = (
(229,24,o),
(101,156,o),
(101,331,cs),
(101,350,ls),
(101,526,o),
(230,662,o),
(398,662,cs,{
"Letterink-NibData" = {
AngleInDegrees = "90";
};
}),
(567,662,o),
(699,526,o),
(699,350,cs,{
"Letterink-NibData" = {
AngleInDegrees = "180";
};
}),
(699,331,ls,{
"Letterink-NibData" = {
AngleInDegrees = "180";
};
}),
(699,156,o),
(570,24,o),
(400,24,cs,{
"Letterink-NibData" = {
AngleInDegrees = "270";
};
})
);
}
);
};
layerId = "49C16FD3-6177-408B-A733-AEB3898BB77C";
shapes = (
{
closed = 1;
nodes = (
(540,-12,o),
(679,119,o),
(701,318,cs),
(703,336,l),
(403,336,l),
(399,303,l),
(683,303,l),
(668,320,l),
(646,142,o),
(521,22,o),
(359,22,cs),
(185,22,o),
(73,151,o),
(95,337,cs),
(118,534,o),
(269,665,o),
(443,665,cs),
(572,665,o),
(644,596,o),
(658,525,c),
(690,534,l),
(672,624,o),
(582,699,o),
(444,699,cs),
(252,699,o),
(84,558,o),
(58,341,cs),
(33,133,o),
(159,-12,o),
(358,-12,cs)
);
}
);
width = 740;
},
{
anchors = (
{
name = bottom;
pos = (389,0);
},
{
name = top;
pos = (404,684);
}
);
associatedMasterId = "49C16FD3-6177-408B-A733-AEB3898BB77C";
layerId = "96951EB1-18FB-4FDF-9014-B6300BAB0AB6";
name = "3 Jan 22, 15:40";
shapes = (
{
closed = 1;
nodes = (
(545,-15,o),
(678,97,o),
(678,285,cs),
(678,343,l,{
"Letterink-NibData" = {
AngleInDegrees = 270;
};
}),
(636,343,l,{
"Letterink-NibData" = {
AngleInDegrees = 180;
};
}),
(636,273,ls,{
"Letterink-NibData" = {
AngleInDegrees = 180;
};
}),
(636,127,o),
(515,25,o),
(394,25,cs,{
"Letterink-NibData" = {
AngleInDegrees = 270;
};
}),
(212,25,o),
(107,154,o),
(107,331,cs),
(107,508,o),
(234,656,o),
(404,656,cs,{
"Letterink-NibData" = {
AngleInDegrees = 90;
};
}),
(473,656,o),
(580,625,o),
(587,557,c,{
"Letterink-NibData" = {
AngleInDegrees = 88.60282;
};
}),
(628,558,l,{
"Letterink-NibData" = {
AngleInDegrees = 356.1432;
};
}),
(622,647,o),
(510,696,o),
(406,696,cs,{
"Letterink-NibData" = {
AngleInDegrees = 270;
};
}),
(210,696,o),
(65,537,o),
(65,332,cs,{
"Letterink-NibData" = {
AngleInDegrees = 180;
};
}),
(65,131,o),
(182,-15,o),
(390,-15,cs,{
"Letterink-NibData" = {
AngleInDegrees = 90;
};
})
);
},
{
closed = 1;
nodes = (
(678,303,l),
(678,343,l,{
"Letterink-NibData" = {
AngleInDegrees = 270;
};
}),
(387,343,l,{
"Letterink-NibData" = {
AngleInDegrees = 180;
};
}),
(387,303,l,{
"Letterink-NibData" = {
AngleInDegrees = 90;
};
})
);
}
);
width = 729;
},
{
anchors = (
{
name = bottom;
pos = (394,0);
},
{
name = top;
pos = (408,684);
}
);
associatedMasterId = "0CAF3BED-C4AC-4024-B3E1-4C69D1EF7EC0";
layerId = "B969E5E4-86DE-47F2-A424-5DC87FFFE71B";
name = "5 Jan 22, 08:26";
shapes = (
{
attr = {
strokeHeight = 74;
strokeWidth = 80;
};
closed = 0;
nodes = (
(625,528,ls,{
"Letterink-NibData" = {
AngleInDegrees = 356.63354;
};
}),
(620,613,o),
(526,675,o),
(398,669,cs,{
"Letterink-NibData" = {
AngleInDegrees = 267.25739;
};
}),
(231,661,o),
(97,523,o),
(97,331,cs,{
"Letterink-NibData" = {
AngleInDegrees = 180;
};
}),
(97,145,o),
(229,15,o),
(410,15,c,{
"Letterink-NibData" = {
AngleInDegrees = 86.42367;
};
}),
(570,25,o),
(655,137,o),
(655,281,c,{
"Letterink-NibData" = {
AngleInDegrees = 358.26429;
};
}),
(654,314,l,{
"Letterink-NibData" = {
AngleInDegrees = 270.21221;
};
}),
(384,315,l,{
"Letterink-NibData" = {
AngleInDegrees = 270.21221;
};
})
);
}
);
width = 738;
},
{
anchors = (
{
name = bottom;
pos = (389,-27);
},
{
name = top;
pos = (389,721);
}
);
associatedMasterId = "49C16FD3-6177-408B-A733-AEB3898BB77C";
background = {
shapes = (
{
closed = 1;
nodes = (
(544,-15,o),
(677,97,o),
(677,285,cs),
(677,343,l),
(635,343,l),
(635,273,ls),
(635,127,o),
(514,25,o),
(393,25,cs),
(211,25,o),
(106,154,o),
(106,331,cs),
(106,508,o),
(233,656,o),
(403,656,cs),
(472,656,o),
(579,625,o),
(586,557,c),
(627,558,l),
(621,647,o),
(509,696,o),
(405,696,cs),
(209,696,o),
(64,537,o),
(64,332,cs),
(64,131,o),
(181,-15,o),
(389,-15,cs)
);
},
{
closed = 1;
nodes = (
(677,303,l),
(677,343,l),
(386,343,l),
(386,303,l)
);
}
);
};
layerId = "AFEECE5E-BFEE-4508-863A-E5AFB845FDE7";
name = "5 Jan 22, 08:33";
shapes = (
{
attr = {
strokeHeight = 38;
strokeWidth = 42;
};
closed = 0;
nodes = (
(625,537,ls,{
"Letterink-NibData" = {
AngleInDegrees = 356.78451;
};
}),
(620,626,o),
(524,691,o),
(393,684,cs,{
"Letterink-NibData" = {
AngleInDegrees = 267.30572;
};
}),
(223,676,o),
(86,532,o),
(86,330,cs,{
"Letterink-NibData" = {
AngleInDegrees = 180;
};
}),
(86,136,o),
(221,0,o),
(411,0,c,{
"Letterink-NibData" = {
AngleInDegrees = 86.37852;
};
}),
(569,10,o),
(656,127,o),
(656,278,c,{
"Letterink-NibData" = {
AngleInDegrees = 358.36342;
};
}),
(655,313,l,{
"Letterink-NibData" = {
AngleInDegrees = 270.20759;
};
}),
(379,314,l,{
"Letterink-NibData" = {
AngleInDegrees = 270.20759;
};
})
);
}
);
width = 728;
},
{
anchors = (
{
name = bottom;
pos = (340,-12);
},
{
name = top;
pos = (441,698);
}
);
background = {
shapes = (
{
closed = 1;
nodes = (
(602,-25,o),
(748,126,o),
(748,326,cs),
(748,355,ls),
(748,548,o),
(596,702,o),
(406,702,cs,{
"Letterink-NibData" = {
AngleInDegrees = "270";
};
}),
(216,702,o),
(65,548,o),
(65,355,cs,{
"Letterink-NibData" = {
AngleInDegrees = "180";
};
}),
(65,326,ls,{
"Letterink-NibData" = {
AngleInDegrees = "180";
};
}),
(65,126,o),
(209,-19,o),
(410,-22,cs,{
"Letterink-NibData" = {
AngleInDegrees = 90.89517;
};
})
);
},
{
closed = 1;
nodes = (
(259,54,o),
(147,170,o),
(147,326,cs),
(147,355,ls),
(147,504,o),
(261,626,o),
(405,626,cs,{
"Letterink-NibData" = {
AngleInDegrees = "90";
};
}),
(551,626,o),
(666,504,o),
(666,355,cs,{
"Letterink-NibData" = {
AngleInDegrees = "180";
};
}),
(666,326,ls,{
"Letterink-NibData" = {
AngleInDegrees = "180";
};
}),
(666,170,o),
(554,54,o),
(407,54,cs,{
"Letterink-NibData" = {
AngleInDegrees = "270";
};
})
);
}
);
};
layerId = m004;
shapes = (
{
closed = 1;
nodes = (
(548,-31,o),
(700,112,o),
(727,336,c),
(734,387,l),
(417,387,l),
(398,239,l),
(640,239,l),
(576,317,l),
(562,197,o),
(483,117,o),
(365,117,cs),
(251,117,o),
(184,197,o),
(201,330,cs),
(218,463,o),
(311,565,o),
(437,565,cs),
(513,565,o),
(558,526,o),
(565,489,c),
(710,523,l),
(689,644,o),
(574,713,o),
(438,713,cs),
(234,713,o),
(64,563,o),
(38,348,cs),
(11,122,o),
(145,-31,o),
(349,-31,cs)
);
}
);
width = 744;
},
{
anchors = (
{
name = bottom;
pos = (380,0);
},
{
name = top;
pos = (394,684);
}
);
associatedMasterId = m004;
layerId = "2166FA3C-D590-4885-A8B0-B32BF30CBC31";
name = "5 Jan 22, 08:26";
shapes = (
{
attr = {
strokeHeight = 74;
strokeWidth = 80;
};
closed = 0;
nodes = (
(611,528,ls,{
"Letterink-NibData" = {
AngleInDegrees = 356.63354;
};
}),
(606,613,o),
(512,675,o),
(384,669,cs,{
"Letterink-NibData" = {
AngleInDegrees = 267.25739;
};
}),
(217,661,o),
(83,523,o),
(83,331,cs,{
"Letterink-NibData" = {
AngleInDegrees = 180;
};
}),
(83,145,o),
(215,15,o),
(396,15,c,{
"Letterink-NibData" = {
AngleInDegrees = 86.42367;
};
}),
(556,25,o),
(641,137,o),
(641,281,c,{
"Letterink-NibData" = {
AngleInDegrees = 358.26429;
};
}),
(640,314,l,{
"Letterink-NibData" = {
AngleInDegrees = 270.21221;
};
}),
(370,315,l,{
"Letterink-NibData" = {
AngleInDegrees = 270.21221;
};
})
);
}
);
width = 710;
}
);
metricLeft = O;
metricRight = O;
userData = {
position = 593;
width = 57;
};
},
{
glyphname = G.swsh;
kernLeft = O;
kernRight = O;
layers = (
{
layerId = "0CAF3BED-C4AC-4024-B3E1-4C69D1EF7EC0";
shapes = (
{
closed = 1;
nodes = (
(567,-266,o),
(638,-218,o),
(651,-112,cs),
(707,342,l),
(630,342,l),
(575,-108,ls),
(569,-154,o),
(542,-190,o),
(500,-190,cs),
(482,-190,o),
(461,-179,o),
(452,-155,c),
(382,-185,l),
(400,-233,o),
(444,-266,o),
(498,-266,cs)
);
},
{
ref = G;
}
);
width = 735;
},
{
layerId = "49C16FD3-6177-408B-A733-AEB3898BB77C";
shapes = (
{
closed = 1;
nodes = (
(575,-268,o),
(638,-223,o),
(650,-128,cs),
(706,328,l),
(667,328,l),
(611,-126,ls),
(603,-187,o),
(562,-226,o),
(513,-226,cs),
(484,-226,o),
(459,-210,o),
(447,-179,c),
(408,-197,l),
(426,-240,o),
(465,-268,o),
(512,-268,cs)
);
},
{
ref = G;
}
);
width = 742;
},
{
anchors = (
{
name = bottom;
pos = (397,0);
},
{
name = top;
pos = (406,684);
}
);
associatedMasterId = "49C16FD3-6177-408B-A733-AEB3898BB77C";
layerId = "99324C05-2E3B-491C-BB33-A281431388C0";
name = "3 Jan 22, 15:43";
shapes = (
{
closed = 1;
nodes = (
(636,-275,o),
(681,-247,o),
(681,-188,cs),
(681,296,l,{
"Letterink-NibData" = {
AngleInDegrees = 270;
};
}),
(639,296,l,{
"Letterink-NibData" = {
AngleInDegrees = 180;
};
}),
(639,231,l,{
"Letterink-NibData" = {
AngleInDegrees = 189.05072;
};
}),
(621,118,o),
(528,19,o),
(393,19,cs,{
"Letterink-NibData" = {
AngleInDegrees = 270;
};
}),
(233,19,o),
(107,157,o),
(107,331,cs),
(107,504,o),
(230,661,o),
(403,661,cs,{
"Letterink-NibData" = {
AngleInDegrees = 90;
};
}),
(471,661,o),
(592,637,o),
(592,563,cs,{
"Letterink-NibData" = {
AngleInDegrees = 180;
};
}),
(592,537,o),
(575,514,o),
(552,514,cs,{
"Letterink-NibData" = {
AngleInDegrees = 270;
};
}),
(546,514,o),
(539,516,o),
(532,519,c,{
"Letterink-NibData" = {
AngleInDegrees = 218.23383;
};
}),
(506,486,l,{
"Letterink-NibData" = {
AngleInDegrees = 122.73523;
};
}),
(520,477,o),
(535,473,o),
(551,473,cs,{
"Letterink-NibData" = {
AngleInDegrees = 90;
};
}),
(599,473,o),
(633,509,o),
(633,562,cs),
(633,670,o),
(489,701,o),
(406,701,cs,{
"Letterink-NibData" = {
AngleInDegrees = 270;
};
}),
(208,701,o),
(65,530,o),
(65,333,cs,{
"Letterink-NibData" = {
AngleInDegrees = 180;
};
}),
(65,137,o),
(206,-21,o),
(389,-21,cs,{
"Letterink-NibData" = {
AngleInDegrees = 90;
};
}),
(494,-21,o),
(601,31,o),
(639,124,c,{
"Letterink-NibData" = {
AngleInDegrees = 180;
};
}),
(639,-188,l,{
"Letterink-NibData" = {
AngleInDegrees = 186.00901;
};
}),
(637,-207,o),
(623,-229,o),
(596,-229,cs,{
"Letterink-NibData" = {
AngleInDegrees = 270;
};
}),
(583,-229,o),
(573,-224,o),
(566,-217,c,{
"Letterink-NibData" = {
AngleInDegrees = 236.65929;
};
}),
(528,-242,l,{
"Letterink-NibData" = {
AngleInDegrees = 142.69605;
};
}),
(544,-263,o),
(567,-275,o),
(595,-275,cs,{
"Letterink-NibData" = {
AngleInDegrees = 90;
};
})
);
}
);
width = 787;
},
{
anchors = (
{
name = bottom;
pos = (392,-35);
},
{
name = top;
pos = (402,683);
}
);
associatedMasterId = "49C16FD3-6177-408B-A733-AEB3898BB77C";
layerId = "993784D9-67C7-4A50-9317-88BF6374F3F5";
name = "5 Jan 22, 08:42";
shapes = (
{
closed = 1;
nodes = (
(632,-188,l,{
"Letterink-NibData" = {
AngleInDegrees = 186.00901;
};
}),
(630,-207,o),
(616,-229,o),
(589,-229,cs,{
"Letterink-NibData" = {
AngleInDegrees = 270;
};
}),
(576,-229,o),
(566,-224,o),
(559,-217,c,{
"Letterink-NibData" = {
AngleInDegrees = 236.65929;
};
}),
(521,-242,l,{
"Letterink-NibData" = {
AngleInDegrees = 142.69605;
};
}),
(537,-263,o),
(560,-275,o),
(588,-275,cs,{
"Letterink-NibData" = {
AngleInDegrees = 90;
};
}),
(629,-275,o),
(674,-247,o),
(674,-188,cs),
(674,296,l,{
"Letterink-NibData" = {
AngleInDegrees = 270;
};
}),
(632,296,l,{
"Letterink-NibData" = {
AngleInDegrees = 180;
};
})
);
},
{
ref = G;
}
);
width = 780;
},
{
anchors = (
{
name = bottom;
pos = (392,-35);
},
{
name = top;
pos = (402,683);
}
);
associatedMasterId = "49C16FD3-6177-408B-A733-AEB3898BB77C";
hints = (
{
name = _corner.caps_swash;
options = 1;
origin = (0,2);
scale = (-1,1);
type = Corner;
}
);
layerId = "A1B0A753-5F1E-49B0-BC7C-F65043380999";
name = "5 Jan 22, 08:46";
shapes = (
{
closed = 1;
nodes = (
(651,330,l,{
"Letterink-NibData" = {
AngleInDegrees = 270;
};
}),
(651,-154,l),
(693,-154,l,{
"Letterink-NibData" = {
AngleInDegrees = 186.00901;
};
}),
(693,330,l,{
"Letterink-NibData" = {
AngleInDegrees = 180;
};
})
);
},
{
ref = G;
},
{
closed = 0;
nodes = (
(344,-192,l),
(363,-228,o),
(402,-253,o),
(446,-253,cs),
(509,-253,o),
(561,-202,o),
(561,-139,cs),
(561,-139,o),
(561,-139,o),
(561,-138,cs),
(561,308,l)
);
}
);
width = 799;
},
{
anchors = (
{
name = bottom;
pos = (400,-16);
},
{
name = top;
pos = (403,689);
}
);
associatedMasterId = "0CAF3BED-C4AC-4024-B3E1-4C69D1EF7EC0";
layerId = "14C1AB9A-2353-4380-971D-F4E2C0A0EA14";
name = "5 Jan 22, 08:50";
shapes = (
{
closed = 1;
nodes = (
(612,-161,l,{
"Letterink-NibData" = {
AngleInDegrees = 180;
};
}),
(612,-174,o),
(602,-183,o),
(589,-183,cs,{
"Letterink-NibData" = {
AngleInDegrees = 270;
};
}),
(576,-183,o),
(570,-178,o),
(563,-165,c,{
"Letterink-NibData" = {
AngleInDegrees = 235.68491;
};
}),
(500,-208,l,{
"Letterink-NibData" = {
AngleInDegrees = 154.88516;
};
}),
(515,-240,o),
(551,-263,o),
(588,-263,cs,{
"Letterink-NibData" = {
AngleInDegrees = 90;
};
}),
(633,-263,o),
(692,-228,o),
(692,-162,cs),
(692,317,l,{
"Letterink-NibData" = {
AngleInDegrees = 270;
};
}),
(612,317,l,{
"Letterink-NibData" = {
AngleInDegrees = 180;
};
})
);
},
{
attr = {
strokeHeight = 74;
strokeWidth = 80;
};
closed = 0;
nodes = (
(522,478,l,{
"Letterink-NibData" = {
AngleInDegrees = 116.56505;
};
}),
(532,473,o),
(541,471,o),
(550,471,cs,{
"Letterink-NibData" = {
AngleInDegrees = 90;
};
}),
(594,471,o),
(615,511,o),
(615,546,cs),
(615,617,o),
(526,674,o),
(398,668,cs,{
"Letterink-NibData" = {
AngleInDegrees = 267.25739;
};
}),
(231,660,o),
(97,522,o),
(97,334,cs,{
"Letterink-NibData" = {
AngleInDegrees = 180;
};
}),
(97,144,o),
(234,4,o),
(415,15,cs,{
"Letterink-NibData" = {
AngleInDegrees = 86.30861;
};
}),
(570,25,o),
(655,137,o),
(655,281,c,{
"Letterink-NibData" = {
AngleInDegrees = 358.26429;
};
}),
(654,314,l,{
"Letterink-NibData" = {
AngleInDegrees = 270.21221;
};
}),
(384,315,l,{
"Letterink-NibData" = {
AngleInDegrees = 270.21221;
};
})
);
}
);
width = 786;
},
{
layerId = m004;
shapes = (
{
closed = 1;
nodes = (
(555,-239,o),
(655,-177,o),
(673,-31,cs),
(718,335,l),
(558,335,l),
(514,-23,ls),
(510,-56,o),
(496,-91,o),
(464,-91,cs),
(457,-91,o),
(440,-85,o),
(433,-67,c),
(297,-127,l),
(322,-193,o),
(381,-239,o),
(458,-239,cs)
);
},
{
ref = G;
}
);
width = 734;
},
{
anchors = (
{
name = bottom;
pos = (386,-16);
},
{
name = top;
pos = (389,689);
}
);
associatedMasterId = m004;
layerId = "1BDCECD6-6FE7-4C37-9D37-AA6D55EDC2F1";
name = "5 Jan 22, 08:50";
shapes = (
{
closed = 1;
nodes = (
(598,-161,l,{
"Letterink-NibData" = {
AngleInDegrees = 180;
};
}),
(598,-174,o),
(588,-183,o),
(575,-183,cs,{
"Letterink-NibData" = {
AngleInDegrees = 270;
};
}),
(562,-183,o),
(556,-178,o),
(549,-165,c,{
"Letterink-NibData" = {
AngleInDegrees = 235.68491;
};
}),
(486,-208,l,{
"Letterink-NibData" = {
AngleInDegrees = 154.88516;
};
}),
(501,-240,o),
(537,-263,o),
(574,-263,cs,{
"Letterink-NibData" = {
AngleInDegrees = 90;
};
}),
(619,-263,o),
(678,-228,o),
(678,-162,cs),
(678,317,l,{
"Letterink-NibData" = {
AngleInDegrees = 270;
};
}),
(598,317,l,{
"Letterink-NibData" = {
AngleInDegrees = 180;
};
})
);
},
{
attr = {
strokeHeight = 74;
strokeWidth = 80;
};
closed = 0;
nodes = (
(508,478,l,{
"Letterink-NibData" = {
AngleInDegrees = 116.56505;
};
}),
(518,473,o),
(527,471,o),
(536,471,cs,{
"Letterink-NibData" = {
AngleInDegrees = 90;
};
}),
(580,471,o),
(601,511,o),
(601,546,cs),
(601,617,o),
(512,674,o),
(384,668,cs,{
"Letterink-NibData" = {
AngleInDegrees = 267.25739;
};
}),
(217,660,o),
(83,522,o),
(83,334,cs,{
"Letterink-NibData" = {
AngleInDegrees = 180;
};
}),
(83,144,o),
(220,4,o),
(401,15,cs,{
"Letterink-NibData" = {
AngleInDegrees = 86.30861;
};
}),
(556,25,o),
(641,137,o),
(641,281,c,{
"Letterink-NibData" = {
AngleInDegrees = 358.26429;
};
}),
(640,314,l,{
"Letterink-NibData" = {
AngleInDegrees = 270.21221;
};
}),
(370,315,l,{
"Letterink-NibData" = {
AngleInDegrees = 270.21221;
};
})
);
}
);
width = 758;
}
);
metricLeft = O;
metricRight = G;
userData = {
position = 593;
width = 57;
};
},
{
glyphname = H;
kernLeft = E;
layers = (
{
anchors = (
{
name = bottom;
pos = (375,0);
},
{
name = center;
pos = (436,500);
},
{
name = top;
pos = (458,675);
},
{
name = topleft;
pos = (100,684);
}
);
hints = (
{
name = _corner.caps_vert;
options = 1;
origin = (0,9);
type = Corner;
}
);
layerId = "0CAF3BED-C4AC-4024-B3E1-4C69D1EF7EC0";
shapes = (
{
closed = 1;
nodes = (
(192,-1,l),
(231,319,l,{
"Letterink-NibData" = {
AngleInDegrees = 90;
};
}),
(587,319,l,{
"Letterink-NibData" = {
AngleInDegrees = 180;
};
}),
(548,-1,l,{
"Letterink-NibData" = {
AngleInDegrees = 90;
};
}),
(630,-1,l),
(714,686,l,{
"Letterink-NibData" = {
AngleInDegrees = 270;
};
}),
(632,686,l,{
"Letterink-NibData" = {
AngleInDegrees = 180;
};
}),
(596,395,l,{
"Letterink-NibData" = {
AngleInDegrees = 270;
};
}),
(240,395,l),
(259,574,l,{
"Letterink-NibData" = {
AngleInDegrees = 269.30131;
};
}),
(176,573,l,{
"Letterink-NibData" = {
AngleInDegrees = 180;
};
}),
(110,-1,l,{
"Letterink-NibData" = {
AngleInDegrees = 90;
};
})
);
}
);
width = 743;
},
{
anchors = (
{
name = bottom;
pos = (371,0);
},
{
name = center;
pos = (431,489);
},
{
name = top;
pos = (455,685);
},
{
name = topleft;
pos = (128,684);
}
);
hints = (
{
name = _corner.caps_vert;
options = 1;
origin = (0,9);
type = Corner;
}
);
layerId = "49C16FD3-6177-408B-A733-AEB3898BB77C";
shapes = (
{
closed = 1;
nodes = (
(158,1,l),
(200,340,l,{
"Letterink-NibData" = {
AngleInDegrees = 90;
};
}),
(618,340,l,{
"Letterink-NibData" = {
AngleInDegrees = 180;
};
}),
(576,1,l,{
"Letterink-NibData" = {
AngleInDegrees = 90;
};
}),
(613,1,l),
(697,685,l,{
"Letterink-NibData" = {
AngleInDegrees = 270;
};
}),
(660,685,l,{
"Letterink-NibData" = {
AngleInDegrees = 180;
};
}),
(622,376,l,{
"Letterink-NibData" = {
AngleInDegrees = 270;
};
}),
(204,376,l),
(230,581,l,{
"Letterink-NibData" = {
AngleInDegrees = 270;
};
}),
(192,581,l,{
"Letterink-NibData" = {
AngleInDegrees = 180;
};
}),
(120,1,l,{
"Letterink-NibData" = {
AngleInDegrees = 90;
};
})
);
}
);
width = 730;
},
{
anchors = (
{
name = bottom;
pos = (390,0);
},
{
name = center;
pos = (450,500);
},
{
name = top;
pos = (472,684);
},
{
name = topleft;
pos = (163,684);
}
);
hints = (
{
name = _corner.caps_vert;
options = 1;
origin = (0,9);
type = Corner;
}
);
layerId = m004;
shapes = (
{
closed = 1;
nodes = (
(282,0,l),
(315,270,l,{
"Letterink-NibData" = {
AngleInDegrees = "90";
};
}),
(550,270,l,{
"Letterink-NibData" = {
AngleInDegrees = "180";
};
}),
(517,0,l,{
"Letterink-NibData" = {
AngleInDegrees = "90";
};
}),
(682,0,l),
(766,684,l,{
"Letterink-NibData" = {
AngleInDegrees = "270";
};
}),
(601,684,l,{
"Letterink-NibData" = {
AngleInDegrees = "180";
};
}),
(569,422,l,{
"Letterink-NibData" = {
AngleInDegrees = "270";
};
}),
(334,422,l),
(343,507,l,{
"Letterink-NibData" = {
AngleInDegrees = "270";
};
}),
(177,507,l,{
"Letterink-NibData" = {
AngleInDegrees = "180";
};
}),
(117,0,l,{
"Letterink-NibData" = {
AngleInDegrees = "90";
};
})
);
}
);
width = 779;
}
);
unicode = 72;
userData = {
position = 554;
width = 61;
};
},
{
glyphname = H.ss01;
layers = (
{
anchors = (
{
name = bottom;
pos = (328,0);
},
{
name = center;
pos = (391,512);
},
{
name = top;
pos = (412,684);
},
{
name = topleft;
pos = (95,684);
}
);
hints = (
{
name = _corner.left;
options = 2;
origin = (0,10);
type = Corner;
}
);
layerId = "0CAF3BED-C4AC-4024-B3E1-4C69D1EF7EC0";
shapes = (
{
closed = 1;
nodes = (
(138,-1,l),
(177,318,l,{
"Letterink-NibData" = {
AngleInDegrees = 90;
};
}),
(554,318,l,{
"Letterink-NibData" = {
AngleInDegrees = 180;
};
}),
(515,-1,l,{
"Letterink-NibData" = {
AngleInDegrees = 90;
};
}),
(597,-1,l),
(681,684,l,{
"Letterink-NibData" = {
AngleInDegrees = 270;
};
}),
(599,684,l,{
"Letterink-NibData" = {
AngleInDegrees = 180;
};
}),
(563,394,l,{
"Letterink-NibData" = {
AngleInDegrees = 270;
};
}),
(186,394,l),
(206,543,l,{
"Letterink-NibData" = {
AngleInDegrees = 270;
};
}),
(123,543,l,{
"Letterink-NibData" = {
AngleInDegrees = 180;
};
}),
(55,-1,l,{
"Letterink-NibData" = {
AngleInDegrees = 90;
};
})
);
}
);
width = 710;
},
{
anchors = (
{
name = bottom;
pos = (308,0);
},
{
name = center;
pos = (371,498);
},
{
name = top;
pos = (393,684);
},
{
name = topleft;
pos = (83,684);
}
);
hints = (
{
name = _corner.left;
options = 2;
origin = (0,10);
type = Corner;
}
);
layerId = "49C16FD3-6177-408B-A733-AEB3898BB77C";
shapes = (
{
closed = 1;
nodes = (
(96,0,l),
(140,340,l,{
"Letterink-NibData" = {
AngleInDegrees = 90;
};
}),
(565,340,l,{
"Letterink-NibData" = {
AngleInDegrees = 180;
};
}),
(524,0,l,{
"Letterink-NibData" = {
AngleInDegrees = 90;
};
}),
(562,0,l),
(646,684,l,{
"Letterink-NibData" = {
AngleInDegrees = 270;
};
}),
(608,684,l,{
"Letterink-NibData" = {
AngleInDegrees = 180;
};
}),
(570,376,l,{
"Letterink-NibData" = {
AngleInDegrees = 270;
};
}),
(145,376,l),
(168,553,l,{
"Letterink-NibData" = {
AngleInDegrees = 270;
};
}),
(130,553,l,{
"Letterink-NibData" = {
AngleInDegrees = 180;
};
}),
(58,0,l,{
"Letterink-NibData" = {
AngleInDegrees = 90;
};
})
);
}
);
width = 679;
},
{
anchors = (
{
name = bottom;
pos = (331,0);
},
{
name = center;
pos = (394,508);
},
{
name = top;
pos = (415,684);
},
{
name = topleft;
pos = (81,684);
}
);
hints = (
{
name = _corner.left;
origin = (0,10);
type = Corner;
}
);
layerId = m004;
shapes = (
{
closed = 1;
nodes = (
(206,0,l),
(239,270,l,{
"Letterink-NibData" = {
AngleInDegrees = "90";
};
}),
(489,270,l,{
"Letterink-NibData" = {
AngleInDegrees = "180";
};
}),
(456,0,l,{
"Letterink-NibData" = {
AngleInDegrees = "90";
};
}),
(621,0,l),
(705,684,l,{
"Letterink-NibData" = {
AngleInDegrees = "270";
};
}),
(540,684,l,{
"Letterink-NibData" = {
AngleInDegrees = "180";
};
}),
(508,422,l,{
"Letterink-NibData" = {
AngleInDegrees = "270";
};
}),
(258,422,l),
(271,525,l,{
"Letterink-NibData" = {
AngleInDegrees = "270";
};
}),
(105,525,l,{
"Letterink-NibData" = {
AngleInDegrees = "180";
};
}),
(40,0,l,{
"Letterink-NibData" = {
AngleInDegrees = "90";
};
})
);
}
);
width = 718;
}
);
metricRight = H;
userData = {
position = 525;
width = 61;
};
},
{
glyphname = H.swsh;
kernLeft = Swash;
layers = (
{
anchors = (
{
name = bottom;
pos = (412,0);
},
{
name = center;
pos = (471,478);
},
{
name = top;
pos = (495,675);
},
{
name = topleft;
pos = (134,684);
}
);
hints = (
{
name = _corner.caps_swash_vert;
options = 1;
origin = (0,9);
type = Corner;
}
);
layerId = "0CAF3BED-C4AC-4024-B3E1-4C69D1EF7EC0";
shapes = (
{
closed = 1;
nodes = (
(236,-1,l),
(275,317,l,{
"Letterink-NibData" = {
AngleInDegrees = 90;
};
}),
(620,317,l,{
"Letterink-NibData" = {
AngleInDegrees = 180;
};
}),
(581,-1,l,{
"Letterink-NibData" = {
AngleInDegrees = 90;
};
}),
(663,-1,l),
(747,686,l,{
"Letterink-NibData" = {
AngleInDegrees = 270;
};
}),
(665,686,l,{
"Letterink-NibData" = {
AngleInDegrees = 180;
};
}),
(629,395,l,{
"Letterink-NibData" = {
AngleInDegrees = 270;
};
}),
(284,395,l),
(302,536,l,{
"Letterink-NibData" = {
AngleInDegrees = 270;
};
}),
(219,537,l,{
"Letterink-NibData" = {
AngleInDegrees = 180;
};
}),
(153,-1,l,{
"Letterink-NibData" = {
AngleInDegrees = 90;
};
})
);
}
);
width = 776;
},
{
anchors = (
{
name = bottom;
pos = (407,0);
},
{
name = center;
pos = (462,450);
},
{
name = top;
pos = (491,684);
},
{
name = topleft;
pos = (158,684);
}
);
hints = (
{
name = _corner.caps_swash_vert;
options = 1;
origin = (0,9);
type = Corner;
}
);
layerId = "49C16FD3-6177-408B-A733-AEB3898BB77C";
shapes = (
{
closed = 1;
nodes = (
(202,1,l),
(244,340,l,{
"Letterink-NibData" = {
AngleInDegrees = 90;
};
}),
(655,340,l,{
"Letterink-NibData" = {
AngleInDegrees = 180;
};
}),
(613,1,l,{
"Letterink-NibData" = {
AngleInDegrees = 90;
};
}),
(651,1,l),
(735,685,l,{
"Letterink-NibData" = {
AngleInDegrees = 270;
};
}),
(697,685,l,{
"Letterink-NibData" = {
AngleInDegrees = 180;
};
}),
(659,376,l,{
"Letterink-NibData" = {
AngleInDegrees = 270;
};
}),
(248,376,l),
(270,558,l,{
"Letterink-NibData" = {
AngleInDegrees = 270;
};
}),
(232,558,l,{
"Letterink-NibData" = {
AngleInDegrees = 180;
};
}),
(164,1,l,{
"Letterink-NibData" = {
AngleInDegrees = 90;
};
})
);
}
);
width = 768;
},
{
anchors = (
{
name = bottom;
pos = (464,0);
},
{
name = center;
pos = (527,512);
},
{
name = top;
pos = (548,684);
},
{
name = topleft;
pos = (223,684);
}
);
hints = (
{
name = _corner.caps_swash_vert;
options = 1;
origin = (0,9);
type = Corner;
}
);
layerId = m004;
shapes = (
{
closed = 1;
nodes = (
(348,0,l),
(382,270,l,{
"Letterink-NibData" = {
AngleInDegrees = "90";
};
}),
(619,270,l,{
"Letterink-NibData" = {
AngleInDegrees = "180";
};
}),
(587,0,l,{
"Letterink-NibData" = {
AngleInDegrees = "90";
};
}),
(752,0,l),
(835,684,l,{
"Letterink-NibData" = {
AngleInDegrees = "270";
};
}),
(670,684,l,{
"Letterink-NibData" = {
AngleInDegrees = "180";
};
}),
(638,422,l,{
"Letterink-NibData" = {
AngleInDegrees = "270";
};
}),
(401,422,l),
(407,472,l,{
"Letterink-NibData" = {
AngleInDegrees = "270";
};
}),
(240,471,l,{
"Letterink-NibData" = {
AngleInDegrees = "180";
};
}),
(181,0,l,{
"Letterink-NibData" = {
AngleInDegrees = "90";
};
})
);
}
);
width = 849;
}
);
metricRight = H;
userData = {
position = 554;
width = 61;
};
},
{
glyphname = I;
layers = (
{
anchors = (
{
name = bottom;
pos = (92,0);
},
{
name = center;
pos = (133,340);
},
{
name = ogonek;
pos = (133,-1);
},
{
name = top;
pos = (174,684);
},
{
name = topleft;
pos = (69,684);
}
);
layerId = "0CAF3BED-C4AC-4024-B3E1-4C69D1EF7EC0";
shapes = (
{
closed = 1;
nodes = (
(133,-1,l),
(217,684,l,{
"Letterink-NibData" = {
AngleInDegrees = 270;
};
}),
(135,684,l,{
"Letterink-NibData" = {
AngleInDegrees = 180;
};
}),
(51,-1,l,{
"Letterink-NibData" = {
AngleInDegrees = 90;
};
})
);
}
);
width = 246;
},
{
anchors = (
{
name = bottom;
pos = (72,0);
},
{
name = center;
pos = (114,343);
},
{
name = ogonek;
pos = (93,1);
},
{
name = top;
pos = (158,685);
},
{
name = topleft;
pos = (70,684);
}
);
layerId = "49C16FD3-6177-408B-A733-AEB3898BB77C";
shapes = (
{
closed = 1;
nodes = (
(93,1,l),
(177,684,l,{
"Letterink-NibData" = {
AngleInDegrees = 270;
};
}),
(139,684,l,{
"Letterink-NibData" = {
AngleInDegrees = 180;
};
}),
(55,1,l,{
"Letterink-NibData" = {
AngleInDegrees = 90;
};
})
);
}
);
width = 210;
},
{
anchors = (
{
name = bottom;
pos = (118,-1);
},
{
name = center;
pos = (160,339);
},
{
name = ogonek;
pos = (200,0);
},
{
name = top;
pos = (201,684);
},
{
name = topleft;
pos = (57,684);
}
);
layerId = m004;
shapes = (
{
closed = 1;
nodes = (
(200,0,l),
(284,684,l,{
"Letterink-NibData" = {
AngleInDegrees = 270;
};
}),
(119,684,l,{
"Letterink-NibData" = {
AngleInDegrees = 180;
};
}),
(35,0,l,{
"Letterink-NibData" = {
AngleInDegrees = 90;
};
})
);
}
);
width = 297;
}
);
metricLeft = "=|H";
metricRight = H;
unicode = 73;
userData = {
position = 54;
width = 61;
};
},
{
glyphname = I.swsh;
kernLeft = Swash;
layers = (
{
anchors = (
{
name = bottom;
pos = (231,0);
},
{
name = center;
pos = (272,340);
},
{
name = ogonek;
pos = (322,-1);
},
{
name = top;
pos = (315,684);
},
{
name = topleft;
pos = (174,684);
}
);
hints = (
{
name = _corner.caps_swash;
options = 1;
origin = (0,2);
type = Corner;
}
);
layerId = "0CAF3BED-C4AC-4024-B3E1-4C69D1EF7EC0";
shapes = (
{
closed = 1;
nodes = (
(295,608,l),
(295,684,l),
(230,684,l),
(230,608,l)
);
},
{
closed = 1;
nodes = (
(272,0,l),
(356,684,l,{
"Letterink-NibData" = {
AngleInDegrees = 270;
};
}),
(274,684,l,{
"Letterink-NibData" = {
AngleInDegrees = 180;
};
}),
(190,0,l,{
"Letterink-NibData" = {
AngleInDegrees = 90;
};
})
);
}
);
width = 385;
},
{
anchors = (
{
name = bottom;
pos = (255,0);
},
{
name = center;
pos = (254,342);
},
{
name = ogonek;
pos = (277,1);
},
{
name = top;
pos = (254,684);
},
{
name = topleft;
pos = (166,684);
}
);
hints = (
{
name = _corner.caps_swash;
origin = (0,2);
type = Corner;
}
);
layerId = "49C16FD3-6177-408B-A733-AEB3898BB77C";
shapes = (
{
closed = 1;
nodes = (
(271,648,l),
(271,684,l),
(217,684,l),
(217,648,l)
);
},
{
closed = 1;
nodes = (
(222,1,l),
(306,684,l,{
"Letterink-NibData" = {
AngleInDegrees = 270;
};
}),
(269,684,l,{
"Letterink-NibData" = {
AngleInDegrees = 180;
};
}),
(185,1,l,{
"Letterink-NibData" = {
AngleInDegrees = 90;
};
})
);
}
);
width = 339;
},
{
anchors = (
{
name = bottom;
pos = (226,0);
},
{
name = center;
pos = (225,386);
},
{
name = ogonek;
pos = (249,1);
},
{
name = top;
pos = (223,684);
},
{
name = topleft;
pos = (135,684);
}
);
associatedMasterId = "49C16FD3-6177-408B-A733-AEB3898BB77C";
hints = (
{
name = _corner.caps_swash_vert;
options = 1;
origin = (0,1);
type = Corner;
}
);
layerId = "AE169FFE-AC8B-4E8A-9035-7F809B0493BD";
name = "5 Jan 22, 09:48";
shapes = (
{
closed = 1;
nodes = (
(245,1,l),
(245,576,l,{
"Letterink-NibData" = {
AngleInDegrees = 270;
};
}),
(203,576,l,{
"Letterink-NibData" = {
AngleInDegrees = 180;
};
}),
(203,1,l,{
"Letterink-NibData" = {
AngleInDegrees = 90;
};
})
);
}
);
width = 356;
},
{
anchors = (
{
name = bottom;
pos = (295,0);
},
{
name = center;
pos = (341,341);
},
{
name = ogonek;
pos = (428,-1);
},
{
name = top;
pos = (382,684);
},
{
name = topleft;
pos = (197,684);
}
);
hints = (
{
name = _corner.caps_swash;
options = 1;
origin = (0,2);
type = Corner;
}
);
layerId = m004;
shapes = (
{
closed = 1;
nodes = (
(401,536,l),
(401,684,l),
(263,684,l,{
"Letterink-NibData" = {
AngleInDegrees = 180;
};
}),
(263,536,l)
);
},
{
closed = 1;
nodes = (
(378,-1,l),
(462,684,l,{
"Letterink-NibData" = {
AngleInDegrees = 270;
};
}),
(297,684,l,{
"Letterink-NibData" = {
AngleInDegrees = 180;
};
}),
(213,-1,l,{
"Letterink-NibData" = {
AngleInDegrees = 90;
};
})
);
}
);
width = 475;
}
);
metricLeft = E.swsh;
metricRight = H;
userData = {
position = 54;
width = 61;
};
},
